<?xml version="1.0" encoding="utf-8"?><!-- Uploaded to: SVG Repo, www.svgrepo.com, Generator: SVG Repo Mixer Tools -->
<svg width="800px" height="800px" viewBox="0 0 24 24" fill="none" xmlns="http://www.w3.org/2000/svg"><path clip-rule="evenodd" d="m3 6.75c-.41421 0-.75.33579-.75.75s.33579.75.75.75h18c.4142 0 .75-.33579.75-.75s-.3358-.75-.75-.75zm0 9c-.41421 0-.75.3358-.75.75s.33579.75.75.75h12c.4142 0 .75-.3358.75-.75s-.3358-.75-.75-.75zm-.75-2.25c0-.4142.33579-.75.75-.75h18c.4142 0 .75.3358.75.75s-.3358.75-.75.75h-18c-.41421 0-.75-.3358-.75-.75zm.75-3.75c-.41421 0-.75.3358-.75.75s.33579.75.75.75h12c.4142 0 .75-.3358.75-.75s-.3358-.75-.75-.75z" fill="#000000" fill-rule="evenodd"/></svg>