<svg width="41" height="45" viewBox="0 0 41 45" fill="none" xmlns="http://www.w3.org/2000/svg">
<g clip-path="url(#clip0_812_7647)">
<path d="M9.74597 0.0269707L31.0674 0C35.889 0.517837 36.7982 4.96665 37.946 8.78031C40.9547 18.7783 42.8403 30.1195 38.2216 39.9382C37.0094 42.5166 35.4419 44.124 32.4072 44.4167L8.48709 44.4113C4.14957 44.0634 2.63151 40.1971 1.48371 36.6612C-1.55242 27.3146 0.552575 16.5263 3.48036 7.39132C4.58291 3.94581 5.49622 0.628417 9.74597 0.0269707ZM38.3053 15.6443C37.8637 13.6809 37.3796 11.7228 36.8174 9.79036C35.7807 6.23292 35.0964 1.63577 30.56 1.30673C24.0956 0.838788 17.0579 1.66949 10.5345 1.30673C6.14486 1.58857 5.52227 5.34154 4.4828 8.78165C3.79851 11.0458 3.23352 13.3464 2.68636 15.6457H16.2365C16.3859 14.9741 15.9691 14.9768 15.6235 14.583C12.6148 11.1524 13.6707 5.80005 18.0302 4.13595C24.2519 1.76119 29.7221 8.7358 25.8248 14.0221C25.4395 14.5453 24.6948 15.0051 24.7565 15.6457H38.3066L38.3053 15.6443ZM23.6595 14.2634C23.835 14.0585 24.2656 13.8022 24.5001 13.5271C27.7392 9.73911 24.3095 4.09145 19.4125 5.09206C15.5645 5.87691 13.9436 10.4673 16.4435 13.4732C16.8508 13.9627 17.5173 14.2189 17.5735 14.8865C17.845 20.4397 17.2033 26.3396 17.5653 31.8524C17.8409 36.0315 23.0273 35.8332 23.4085 32.2394L23.4154 14.9849C23.4181 14.7516 23.5073 14.4415 23.6595 14.2648V14.2634ZM16.2351 16.9565H2.5314C2.36959 16.9565 2.14606 18.4102 2.10218 18.6543C1.20121 23.5575 1.0202 28.9355 2.12 33.8158C2.48889 35.4543 3.04565 37.0537 3.70115 38.5977L3.86159 38.6679L37.2823 38.6139C39.5354 33.5637 39.9646 27.9187 39.4325 22.4598C39.2913 21.0075 39.0883 19.4769 38.7852 18.0488C38.7084 17.6874 38.6879 17.2356 38.4589 16.9565H24.7552V32.6534C24.7552 34.5805 22.3622 36.3012 20.5123 36.2998C18.6623 36.2985 16.2351 34.5373 16.2351 32.5523V16.9565ZM36.6624 39.9719H4.32784C5.1287 41.9731 6.96903 42.9751 9.09596 43.1059C16.5834 43.5644 24.555 42.7539 32.0931 43.0992C34.1241 42.9495 35.9246 41.8841 36.6624 39.9706V39.9719Z" fill="#030303"/>
<path d="M31.4184 12.7977C31.4184 13.9022 30.5079 14.7976 29.3848 14.7976C28.2616 14.7976 27.3511 13.9022 27.3511 12.7977C27.3511 11.6933 28.2616 10.7979 29.3848 10.7979C30.5079 10.7979 31.4184 11.6933 31.4184 12.7977ZM30.0622 12.7923C30.0622 12.4309 29.7646 12.1383 29.3971 12.1383C29.0296 12.1383 28.732 12.4309 28.732 12.7923C28.732 13.1537 29.0296 13.4464 29.3971 13.4464C29.7646 13.4464 30.0622 13.1537 30.0622 12.7923Z" fill="#030303"/>
<path d="M31.4172 6.80517C31.4172 7.90962 30.5066 8.8037 29.3848 8.8037C28.2631 8.8037 27.3525 7.90827 27.3525 6.80517C27.3525 5.70207 28.2631 4.80664 29.3848 4.80664C30.5066 4.80664 31.4172 5.70207 31.4172 6.80517ZM30.0568 6.80247C30.0568 6.43972 29.7578 6.14574 29.389 6.14574C29.0201 6.14574 28.7211 6.43972 28.7211 6.80247C28.7211 7.16523 29.0201 7.45921 29.389 7.45921C29.7578 7.45921 30.0568 7.16523 30.0568 6.80247Z" fill="#030303"/>
<path d="M24.455 10.1675C24.455 12.3157 22.6846 14.0567 20.5001 14.0567C18.3156 14.0567 16.5452 12.3157 16.5452 10.1675C16.5452 8.01928 18.3156 6.27832 20.5001 6.27832C22.6846 6.27832 24.455 8.01928 24.455 10.1675ZM19.8281 7.77115C17.2349 8.26471 17.2733 12.0676 19.8281 12.6164V7.77115ZM21.1624 12.6164C23.746 12.0824 23.7529 8.25392 21.1624 7.77115V12.6164Z" fill="#030303"/>
<path d="M13.6474 12.8061C13.6474 13.9092 12.7382 14.8047 11.6151 14.8047C10.492 14.8047 9.58276 13.9106 9.58276 12.8061C9.58276 11.7017 10.492 10.8076 11.6151 10.8076C12.7382 10.8076 13.6474 11.7017 13.6474 12.8061ZM12.2857 12.7859C12.2857 12.4191 11.9826 12.1211 11.6096 12.1211C11.2366 12.1211 10.9335 12.4191 10.9335 12.7859C10.9335 13.1527 11.2366 13.4507 11.6096 13.4507C11.9826 13.4507 12.2857 13.1527 12.2857 12.7859Z" fill="#030303"/>
<path d="M13.6501 6.80749C13.6501 7.91194 12.7396 8.80737 11.6164 8.80737C10.4933 8.80737 9.58276 7.91194 9.58276 6.80749C9.58276 5.70304 10.4933 4.80762 11.6164 4.80762C12.7396 4.80762 13.6501 5.70304 13.6501 6.80749ZM12.2774 6.8021C12.2774 6.44204 11.9812 6.15076 11.6151 6.15076C11.2489 6.15076 10.9527 6.44204 10.9527 6.8021C10.9527 7.16216 11.2489 7.45344 11.6151 7.45344C11.9812 7.45344 12.2774 7.16216 12.2774 6.8021Z" fill="#030303"/>
</g>
<defs>
<clipPath id="clip0_812_7647">
<rect width="41" height="44.4167" fill="white"/>
</clipPath>
</defs>
</svg>
