<svg width="40" height="40" viewBox="0 0 40 40" fill="none" xmlns="http://www.w3.org/2000/svg">
<g clip-path="url(#clip0_2149_3114)">
<path d="M6.91701 39.9989C6.30004 39.9989 4.64185 39.372 3.85475 38.9048C1.85415 37.7173 0.486689 35.693 0.00430698 33.2046L0 33.1842V6.88654L0.00323024 6.86939C0.540526 3.64581 2.76724 1.11346 5.81442 0.260415C5.95225 0.221835 6.09976 0.197187 6.25589 0.171467C6.47985 0.133958 6.7092 0.0953784 6.94716 0.0117883L6.98161 0H8.73563L8.7787 0.01929C8.94021 0.0932351 9.13511 0.140388 9.37307 0.16075C9.9362 0.211119 10.3604 0.3215 10.9968 0.585131C13.5638 1.64822 15.4825 4.12271 15.7722 6.74186L15.8249 7.21875H37.9337V9.58071L39.9978 11.7969L38.2352 13.7881L40.0011 15.7246L38.2352 17.719L40.0011 19.6555L38.2352 21.6498L40.0011 23.5863L38.2352 25.5807L40.0011 27.5172L38.2352 29.5116L40.0011 31.4481L38.2395 33.4371L39.9978 35.4229L37.9337 37.6391V40.0011H6.91701V39.9989ZM36.5921 38.6636V37.0604L36.6524 36.9983C36.773 36.8739 36.9496 36.7014 37.0669 36.5867C37.4944 36.1688 37.6516 36.0102 37.7302 35.8773C37.9553 35.4979 37.937 35.1507 37.6753 34.8463L37.6656 34.8346L36.3003 33.42L36.4446 33.271C36.6287 33.0813 36.8591 32.8541 37.012 32.703C37.3523 32.3665 37.5666 32.1532 37.6732 32.0246C37.8336 31.8435 37.9057 31.6174 37.8831 31.3806C37.8551 31.0966 37.6775 30.8919 36.8602 30.0678C36.7385 29.9456 36.5867 29.7924 36.4543 29.6541L36.3121 29.5062L37.6549 28.1141C37.8282 27.9309 37.9079 27.7005 37.8831 27.4508C37.8551 27.1668 37.6775 26.9621 36.8602 26.138C36.7385 26.0158 36.5867 25.8626 36.4543 25.7243L36.3121 25.5764L37.6549 24.1843C37.8282 24.0011 37.9079 23.7707 37.8831 23.5199C37.8551 23.2359 37.6775 23.0312 36.8602 22.2071C36.7385 22.0849 36.5867 21.9317 36.4543 21.7934L36.3121 21.6455L37.6549 20.2534C37.8282 20.0702 37.9079 19.8398 37.8831 19.589C37.8551 19.305 37.6775 19.1014 36.8602 18.2762C36.7385 18.1541 36.5867 18.0008 36.4543 17.8626L36.3121 17.7136L37.6549 16.3215C37.8282 16.1382 37.9079 15.9078 37.8831 15.6571C37.8551 15.3731 37.6775 15.1684 36.8602 14.3443C36.7353 14.2189 36.5856 14.0667 36.4543 13.9306L36.3121 13.7816L37.6549 12.3896C37.8282 12.2063 37.9079 11.9759 37.8831 11.7251C37.8562 11.454 37.6936 11.2664 36.9474 10.5131C36.8538 10.4177 36.7385 10.3019 36.6513 10.2108L36.5921 10.1487V8.55084H15.8497V33.1188C15.8335 33.2474 15.756 33.5775 15.6171 34.1015L15.6031 34.1562C15.2672 35.4304 14.5404 36.6746 13.5013 37.7549L12.6291 38.6615H36.5932L36.5921 38.6636ZM7.92484 25.5839C4.30806 25.5839 1.36531 28.5128 1.36531 32.1125C1.36531 35.7123 4.30806 38.6411 7.92484 38.6411C11.5416 38.6411 14.4844 35.7123 14.4844 32.1125C14.4844 28.5128 11.5416 25.5839 7.92484 25.5839ZM1.34162 27.484L2.26332 26.5516C3.75138 25.047 5.76059 24.2186 7.92269 24.2186C10.0848 24.2186 12.0962 25.047 13.5842 26.5516L14.4865 27.4636L14.5059 26.183C14.535 24.2508 14.5684 22.0614 13.9815 19.9202C12.4967 14.5061 7.53829 10.3941 1.92414 9.91828L1.34055 9.86899V27.484H1.34162ZM7.96576 1.35566C4.72045 1.35566 1.98121 3.65332 1.45145 6.81795C1.29317 7.76638 1.28671 8.22505 1.66895 8.43831C1.84554 8.53691 2.10611 8.5712 2.75108 8.63657C2.9449 8.65586 3.14625 8.67622 3.23562 8.69337C6.95254 9.37173 10.1806 11.2718 12.5699 14.1889L14.5081 16.8295V7.52632C14.5081 5.82559 13.3323 3.89873 12.2264 2.94816C11.014 1.9065 9.54104 1.35566 7.96468 1.35566H7.96576Z" fill="black"/>
<path d="M6.91699 39.7862C6.34201 39.7862 4.71397 39.1668 3.96456 38.722C2.01457 37.5657 0.68587 35.5938 0.215332 33.1654V6.90527C0.739707 3.76421 2.90289 1.30044 5.87255 0.467757C5.99853 0.432392 6.14066 0.408816 6.2914 0.383096C6.51537 0.345587 6.76302 0.303792 7.01821 0.214844H8.68824C8.87236 0.299506 9.0931 0.352017 9.35367 0.375594C9.89204 0.423819 10.3001 0.529914 10.9139 0.784971C13.4108 1.81913 15.2768 4.22288 15.5579 6.76702L15.6322 7.43467H37.7184V9.66588L39.7071 11.8017L37.9456 13.7907L39.7114 15.7272L37.9456 17.7216L39.7114 19.6581L37.9456 21.6525L39.7114 23.589L37.9456 25.5834L39.7114 27.5199L37.9456 29.5142L39.7114 31.4507L37.952 33.4376L39.7071 35.4191L37.7184 37.555V39.7862H6.91699ZM15.6332 33.099C15.6257 33.1697 15.5837 33.3851 15.4082 34.0517L15.3942 34.1063C15.0669 35.3463 14.3584 36.5583 13.3452 37.6118L12.1241 38.8806H36.8074V37.1499C36.9259 37.0277 37.0992 36.8584 37.2188 36.7426C37.6699 36.3011 37.8239 36.1457 37.9165 35.9893C38.2621 35.4073 38.0662 34.9722 37.84 34.7097L37.826 34.6936L36.6007 33.4237C36.7805 33.2394 37.0034 33.0186 37.1649 32.8589C37.5159 32.5117 37.727 32.3017 37.8411 32.1645C38.036 31.9437 38.1275 31.6608 38.0985 31.3639C38.0618 30.9931 37.826 30.7413 37.0142 29.9215C36.8936 29.7993 36.7428 29.6471 36.6115 29.51L37.812 28.2657C38.0295 28.0353 38.1297 27.7417 38.0995 27.4331C38.0629 27.0623 37.8271 26.8104 37.0152 25.9906C36.8947 25.8684 36.7439 25.7162 36.6115 25.5791L37.812 24.3349C38.0295 24.1045 38.1297 23.8108 38.0995 23.5011C38.0629 23.1303 37.8271 22.8785 37.0152 22.0586C36.8947 21.9365 36.7439 21.7843 36.6125 21.6471L37.8131 20.4029C38.0306 20.1725 38.1308 19.8789 38.1006 19.5692C38.064 19.1984 37.8282 18.9465 37.0163 18.1267C36.8957 18.0045 36.745 17.8524 36.6125 17.7152L37.8131 16.471C38.0306 16.2406 38.1308 15.9469 38.1006 15.6372C38.064 15.2664 37.8282 15.0146 37.0163 14.1947C36.8957 14.0726 36.745 13.9204 36.6136 13.7832L37.8142 12.539C38.0317 12.3086 38.1318 12.015 38.1017 11.7063C38.0662 11.3495 37.8508 11.1169 37.1057 10.3646C37.012 10.2703 36.899 10.1556 36.8117 10.0645V8.33809H15.6386V33.0958L15.6332 33.099ZM7.92483 25.3712C4.1896 25.3712 1.14995 28.3954 1.14995 32.1141C1.14995 35.8328 4.1896 38.857 7.92483 38.857C11.6601 38.857 14.6997 35.8328 14.6997 32.1141C14.6997 28.3954 11.6601 25.3712 7.92483 25.3712ZM1.12626 28.0096L2.41728 26.7033C3.86442 25.2394 5.81979 24.4335 7.92375 24.4335C10.0277 24.4335 11.9842 25.2394 13.4324 26.7033L14.6954 27.9807L14.7223 26.1889C14.7514 24.2427 14.7858 22.0361 14.1904 19.866C12.6819 14.3673 7.64595 10.1899 1.94351 9.70768L1.12626 9.63802V28.0096ZM14.7234 17.4869V7.52683C14.7234 5.76287 13.5099 3.76849 12.3675 2.78685C11.1163 1.71089 9.59378 1.14291 7.96574 1.14291C4.61491 1.14291 1.7863 3.51558 1.23932 6.78417C1.09073 7.67365 1.02612 8.3263 1.56342 8.62636C1.77661 8.74532 2.03718 8.78068 2.72846 8.85034C2.90935 8.86856 3.11501 8.88999 3.19684 8.90393C6.86316 9.57265 10.046 11.447 12.403 14.3244L14.7234 17.4869Z" fill="black"/>
<path d="M7.92384 35.2027C6.21181 35.2027 4.81958 33.817 4.81958 32.1131C4.81958 30.4091 6.21181 29.0234 7.92384 29.0234C9.63586 29.0234 11.0281 30.4091 11.0281 32.1131C11.0281 33.817 9.63586 35.2027 7.92384 35.2027ZM7.92491 30.3973C6.97415 30.3973 6.19997 31.1668 6.19997 32.1141C6.19997 33.0615 6.97307 33.8309 7.92491 33.8309C8.87676 33.8309 9.64986 33.0615 9.64986 32.1141C9.64986 31.1668 8.87568 30.3973 7.92491 30.3973Z" fill="black"/>
<path d="M7.92382 34.9889C6.33131 34.9889 5.03491 33.6996 5.03491 32.1136C5.03491 30.5275 6.33024 29.2383 7.92382 29.2383C9.5174 29.2383 10.8127 30.5286 10.8127 32.1136C10.8127 33.6986 9.5174 34.9889 7.92382 34.9889ZM7.9249 30.1835C6.85569 30.1835 5.9846 31.0494 5.9846 32.1146C5.9846 33.1799 6.85461 34.0458 7.9249 34.0458C8.99518 34.0458 9.86519 33.1799 9.86519 32.1146C9.86519 31.0494 8.99518 30.1835 7.9249 30.1835Z" fill="black"/>
<path d="M17.2 15.1523C24.7089 14.5021 27.0641 12.2862 27.6439 4.70838C28.496 12.312 30.2003 14.5843 38.0879 15.1523C30.2833 15.8528 27.8882 17.977 27.6439 25.5963C26.9551 18.6044 25.4739 15.6244 17.2 15.1523Z" fill="white" stroke="black" stroke-linejoin="round"/>
</g>
<defs>
<clipPath id="clip0_2149_3114">
<rect width="40" height="40" fill="white"/>
</clipPath>
</defs>
</svg>
