<svg width="68" height="28" viewBox="0 0 68 28" fill="none" xmlns="http://www.w3.org/2000/svg">
<path d="M67.9935 16.1818V17.137C67.8551 17.1689 67.7363 17.2539 67.6866 17.3779C67.2467 17.8821 66.4715 18.1371 65.5987 18.1383L61.1977 18.1454V24.1434C61.2012 25.7351 59.328 27.1885 56.8215 27.1885H11.1791C8.81094 27.1885 6.83836 25.8449 6.83127 24.3217L6.79579 18.1489L2.06658 18.1123C0.588922 18.1005 -0.337052 17.0567 0.115292 16.1228L6.12348 1.6294C6.49245 0.736772 7.7395 0 9.19765 0H58.8047C60.2628 0 61.5099 0.736772 61.8806 1.6294L67.8019 15.9209C67.8569 16.0531 67.8977 16.111 67.9935 16.1818ZM65.691 16.6151L59.7112 2.06863C59.5072 1.70378 59.1559 1.52313 58.5386 1.5066H9.46551C8.88012 1.52431 8.45084 1.69788 8.29828 2.06627L2.29541 16.6163H65.691V16.6151ZM56.7505 25.6843C58.0153 25.6064 58.9058 25.0077 58.9076 24.2155L58.9129 18.1312H9.08944L9.09299 24.2166C9.09299 25.0432 10.081 25.6465 11.3192 25.6843H56.7523H56.7505Z" fill="black"/>
<path d="M58.0937 15.1105L9.98201 15.0963C7.93316 15.0963 6.37923 13.6747 6.89366 12.396L10.0104 4.65402C10.3634 3.7791 11.6193 3.02344 13.058 3.02344H54.945C56.4404 3.02344 57.6679 3.8157 58.0298 4.7225L61.1022 12.3889C61.6273 13.6972 60.1567 14.9629 58.0919 15.1093L58.0937 15.1105ZM57.7708 13.5945C58.6205 13.5945 58.9664 13.1529 58.9079 12.6971L55.816 5.09325C55.6794 4.75792 55.2625 4.53004 54.6878 4.53004H13.3134C12.7404 4.53004 12.3218 4.75792 12.1852 5.09325L9.09152 12.6971C9.01701 13.2072 9.47113 13.5956 10.2765 13.5956L57.769 13.5933L57.7708 13.5945Z" fill="black"/>
</svg>
