<svg width="65" height="23" viewBox="0 0 65 23" fill="none" xmlns="http://www.w3.org/2000/svg">
<path d="M0 16.6454V14.6158L0.707704 13.1356L10.0368 1.29224C10.6817 0.690398 11.3046 0.240374 12.1633 0.0379538L52.5364 0C53.4647 0.0795222 54.2522 0.610875 54.9497 1.21814C57.7076 5.10207 61.1544 8.66431 63.897 12.5229C65.6824 15.0351 65.3871 18.7293 62.373 19.8209C61.745 20.0486 60.4433 19.9456 60.2142 20.092C59.8867 20.3035 59.4318 22.6873 58.9465 22.9367L6.29127 23C5.52586 22.8391 5.23735 20.3541 4.83004 20.092C4.60601 19.9474 3.54022 20.0432 3.06841 19.9402C1.47141 19.5914 0.56175 18.1437 0 16.6454ZM52.4668 1.08801H12.5774C12.7013 1.58322 13.1494 2.39651 13.6517 2.44712H51.2686C51.7082 2.71279 52.5856 1.20187 52.4685 1.08801H52.4668ZM11.3911 1.64286C11.067 1.67358 10.2422 2.7887 9.96895 3.11583C7.43683 6.14851 4.11045 10.1047 1.90588 13.3344C0.368277 15.5864 0.926634 17.9467 3.41972 18.8865L61.2919 18.9462C63.9292 18.3046 64.7557 15.7526 63.1876 13.4103C60.6419 9.60954 57.0304 6.12863 54.4338 2.30434C54.2607 2.11457 53.7974 1.57599 53.5564 1.63924C53.4766 1.66093 52.5483 2.86461 52.7757 3.11402L60.0835 12.5229C61.2189 13.8549 60.8863 15.9171 59.2044 16.4503H5.83643C4.15458 15.9171 3.82194 13.8531 4.95732 12.5229L12.2652 3.11402C12.4722 2.80858 11.5693 1.62659 11.3928 1.64286H11.3911ZM50.9411 3.38692H14.1015C14.1914 3.70682 14.8533 4.72434 15.0502 4.74965H49.9941C50.1638 4.74603 51.0243 3.46102 50.9428 3.38692H50.9411ZM13.0221 3.79719L5.48004 13.62C5.06254 14.4785 5.46646 15.3894 6.35406 15.3713L13.8605 5.49426C14.171 4.93941 13.2631 4.3177 13.0238 3.79719H13.0221ZM52.0222 3.79538C51.7455 4.25805 50.8936 4.97918 51.1855 5.49246L58.6919 15.3695C59.5795 15.3876 59.9834 14.4749 59.5659 13.6182L52.0239 3.79538H52.0222ZM7.62182 15.4273H57.4207L50.0891 5.81958L15.0485 5.81055L14.8889 5.85031L7.62182 15.4255V15.4273ZM58.9448 20.0288H6.09779C6.22508 20.6071 6.42364 21.8542 7.0431 21.9301H57.9995C58.4899 22.1054 59.0228 20.1065 58.9448 20.0288Z" fill="#040404"/>
</svg>
