<svg width="43" height="63" viewBox="0 0 43 63" fill="none" xmlns="http://www.w3.org/2000/svg">
<path d="M23.0478 52.2872C23.0478 55.1871 20.691 57.5391 17.785 57.5391C14.879 57.5391 12.5222 55.1871 12.5222 52.2872C12.5222 49.3873 14.879 47.0353 17.785 47.0353C20.691 47.0353 23.0478 49.3873 23.0478 52.2872ZM20.8666 52.2889C20.8666 50.5916 19.4876 49.2137 17.785 49.2137C16.0824 49.2137 14.7034 50.5898 14.7034 52.2889C14.7034 53.988 16.0824 55.3641 17.785 55.3641C19.4876 55.3641 20.8666 53.988 20.8666 52.2889Z" fill="black"/>
<path d="M3.67173 62.7274C3.56499 62.5006 3.31537 62.3786 3.20864 62.1484C2.85744 61.3959 3.06918 57.0151 3.19657 55.9516C3.82839 50.7152 7.9498 46.8807 7.22503 41.378L4.22951 17.5737C3.16214 15.2631 1.42855 13.2444 0.0891755 11.0626C-0.484103 8.96838 1.84344 9.43395 3.1656 9.36695C3.62698 7.38612 4.95084 5.60286 6.83423 4.76964C7.09763 4.65282 8.19427 4.24394 8.39225 4.24394H12.4999V0.881857C12.4999 0.447209 13.1231 0.117357 13.5345 0.0778436C16.2512 -0.174699 19.3655 0.285719 22.1268 0.0847155C22.4057 -0.0441328 23.0444 0.634469 23.0444 0.759881V4.24738H27.1521C28.333 4.24738 30.4127 5.71625 31.134 6.63537C32.9038 8.89451 32.4786 11.0231 32.117 13.6671H40.5148C41.3738 13.6671 42.9491 15.3524 42.906 16.2973L42.9112 34.2879C42.8182 35.5369 41.8765 36.5935 40.7265 37.0023L28.5551 39.8009C28.5947 40.4039 28.3537 41.0413 28.3176 41.6254C28.0094 46.5388 31.7297 50.6105 32.346 55.4637C32.5526 57.0855 32.6697 60.0903 32.4872 61.6897C32.4304 62.1948 32.2272 62.4164 31.8709 62.7274H3.67345H3.67173ZM20.8357 2.1669H14.7052V4.24738H20.8357V2.1669ZM30.1527 9.38585C29.6242 7.77095 28.2659 6.57352 26.5409 6.44467C20.7754 6.01518 14.4676 6.76937 8.64703 6.46013C7.19232 6.78827 5.78925 7.87059 5.51036 9.38585H30.1527ZM30.1527 11.5883H3.05714C4.13139 13.2977 5.41394 14.8954 6.34014 16.6924L9.31155 40.7046L26.052 40.7132L30.1527 11.5866V11.5883ZM31.5007 17.8263H38.0598C38.2096 17.8263 38.8156 18.4791 38.7399 18.7385C38.4266 23.1537 39.1376 28.0998 38.7399 32.4514C38.6658 33.2692 38.3749 33.3534 37.657 33.5733C35.0024 34.3876 31.9518 34.6728 29.2558 35.439C29.0922 35.5352 28.9545 36.8082 28.9253 37.0968C28.9063 37.2807 28.8495 37.449 29.1077 37.4026C32.8315 36.4835 36.6516 35.8393 40.3203 34.7638L40.6904 34.2776C40.6387 28.2767 40.8109 22.2466 40.6026 16.2646C40.439 15.9107 39.8864 15.8025 39.5283 15.7458H31.7417L31.4973 17.8263H31.5007ZM36.5277 20.0287H31.2562L29.5399 33.1197L36.5277 31.6526V20.0304V20.0287ZM5.26417 60.6486H30.275C30.2491 58.5905 30.4144 56.5512 29.972 54.5274C29.3987 51.9024 27.7994 49.5264 26.961 47.0113C26.5168 45.6816 26.3068 44.29 26.0899 42.9259L9.4338 42.9088C9.4097 44.5769 9.08087 46.2605 8.5403 47.829C7.73633 50.1638 6.21274 52.1944 5.67045 54.6305C5.22973 56.6079 5.24007 58.6334 5.26589 60.6503L5.26417 60.6486Z" fill="black"/>
<path d="M21.8674 15.5951L20.8074 37.6991L23.091 37.8082L24.1511 15.7042L21.8674 15.5951Z" fill="black"/>
<path d="M13.6906 15.5841L11.4087 15.6927L12.4653 37.8054L14.7472 37.6968L13.6906 15.5841Z" fill="black"/>
</svg>
