<svg width="57" height="31" viewBox="0 0 57 31" fill="none" xmlns="http://www.w3.org/2000/svg">
<path d="M34.3054 0.117906C24.9947 -0.0814561 13.3411 -0.224858 4.24947 1.41201C2.99998 1.6376 0.197845 1.9996 0.0436325 3.55777C-0.140373 5.41498 0.295982 8.67997 0.656986 10.5599C2.52508 20.2692 9.09314 27.8747 18.5668 30.8563L38.0994 30.8459C49.492 27.3763 57.1589 15.85 56.4316 4.0177C56.4071 3.61198 56.6121 3.46683 56.3125 2.93695C55.6833 1.81948 51.9506 1.33331 50.6819 1.15843C45.4105 0.427441 39.6398 0.233325 34.3054 0.119654V0.117906ZM3.44684 3.72391C3.56425 3.4371 3.99011 3.46509 4.24947 3.41087C9.27369 2.37559 15.4142 2.34062 20.5751 2.20246C30.0925 1.94889 40.304 1.84571 49.7531 3.02264C50.0825 3.06286 53.2352 3.48957 53.2282 3.6662C50.6889 4.12088 48.0953 4.45315 45.5175 4.663C33.8392 5.61434 20.2159 5.62484 8.56569 4.42867C6.85181 4.25204 5.14491 3.98098 3.44505 3.72391H3.44684ZM2.03608 5.36952C7.90498 6.66712 13.9912 6.84899 19.9811 7.01513C28.3559 7.24597 36.9218 7.31242 45.2844 6.66012C48.3564 6.42054 51.4705 6.08302 54.4636 5.36777C54.6424 15.9724 47.9166 25.6677 37.7437 28.847L19.0365 28.8627C8.67084 25.8688 2.20958 15.9532 2.03608 5.36952Z" fill="black"/>
<path d="M8.54291 16.0811C7.43012 15.7506 6.88155 16.6477 7.35121 17.6235C8.50255 20.0158 12.2721 23.3613 14.5204 24.7953C15.1338 25.187 17.3821 26.5668 17.971 26.5073C18.7193 26.4322 19.1538 25.4301 18.5773 24.8565C15.6472 23.3141 12.8766 21.4971 10.7474 18.9299C10.3601 18.4629 8.84608 16.1703 8.54291 16.0811Z" fill="black"/>
<path d="M5.36747 13.0833C6.0404 13.7076 7.1269 13.1742 7.06907 12.2683C7.0165 11.4254 6.59594 10.3761 5.56025 10.7049C4.6262 11.0005 4.84875 12.6006 5.36747 13.0815V13.0833Z" fill="black"/>
</svg>
