<svg width="39" height="39" viewBox="0 0 39 39" fill="none" xmlns="http://www.w3.org/2000/svg">
<g clip-path="url(#clip0_812_7699)">
<path d="M34.9181 0C35.0695 0.112955 35.2545 0.111937 35.4283 0.212681C35.7413 0.393816 38.2058 3.47718 38.4792 3.93714C38.9223 4.68 38.7505 5.04125 38.7942 5.83092C38.9772 9.16462 39.22 13.4345 38.6103 16.6848C38.095 19.4323 37.221 22.1941 36.6631 24.9427C36.4944 25.5757 35.8165 26.2279 35.1661 26.3378C34.5157 26.4477 32.1751 26.2147 31.6518 25.8555C30.3326 24.9508 30.8174 23.3145 30.6578 21.9377C28.7015 22.2664 27.1466 23.4081 25.6435 24.614C25.7421 24.8949 25.6841 25.1503 25.5825 25.425C25.364 26.0173 23.7715 27.2771 23.2379 27.8002C19.8821 31.0911 12.6198 38.6377 7.86354 38.9898C5.79336 39.1435 4.73846 37.4766 5.28623 35.5717C6.36553 31.8136 14.8109 26.4254 18.0213 23.9475C19.125 23.0957 20.2175 22.013 21.307 21.2203C21.7318 20.9109 22.0702 20.8438 22.5865 20.9414C23.1353 19.8506 22.4483 18.6213 21.185 18.7383C20.686 18.7851 20.8913 19.0446 20.7053 19.4761C20.621 19.6725 20.5376 19.7732 20.3883 19.9208C19.5031 20.7959 17.9522 21.7606 16.9278 22.6256C13.9033 25.1778 11.1218 28.0352 7.85947 30.3035C5.6958 31.8065 1.46601 34.4828 -0.000488281 30.7746V29.7082C0.833883 27.2333 2.87865 25.2012 4.7913 23.4987C8.45197 20.2403 12.6614 17.8387 16.6636 15.0485C17.0823 14.6821 17.7063 15.0647 18.0701 14.8571L20.6566 12.7191C20.625 12.3589 20.37 12.1167 20.4025 11.7148C20.4381 11.2629 20.7521 10.9098 21.0702 10.6249L33.7839 0.350059L34.4618 0H34.9181ZM35.9832 2.89409L34.7179 1.37683L21.8273 11.6913L21.7877 11.8114C22.4645 12.6683 23.1414 13.7256 23.8863 14.5132C24.613 15.2825 25.4656 15.5501 26.4748 15.1207L31.1111 11.4604C31.9312 9.19718 32.0979 6.47812 32.8693 4.23327C33.3673 2.78215 34.6366 2.67327 35.9842 2.89511L35.9832 2.89409ZM34.5919 4.12947C34.3835 4.17628 34.1864 4.3798 34.1345 4.58536C33.5634 7.31053 32.7148 10.053 32.2036 12.7822C31.6365 15.8066 31.9282 19.2003 32.0308 22.2766C32.0491 22.8169 31.9262 23.9363 32.0613 24.3789C32.1335 24.616 32.3804 24.7595 32.602 24.8277C32.9567 24.9366 34.2616 25.073 34.6529 25.0658C35.1447 25.0567 35.2677 24.9071 35.4303 24.4685C35.9568 22.0171 36.6519 19.5941 37.1641 17.1396C37.8857 13.6818 37.6143 10.4682 37.5025 6.97268C37.4852 6.42012 37.6092 5.24172 37.472 4.79397C37.3877 4.52023 37.0889 4.35029 36.8257 4.2984C36.4171 4.218 34.9394 4.0501 34.5929 4.12845L34.5919 4.12947ZM30.7341 13.4823L23.9016 18.9042C24.0296 19.645 24.2105 20.1742 23.9879 20.9323C23.9219 21.1582 23.5865 21.666 23.5997 21.8105C23.6261 22.0985 24.7796 23.1436 24.8782 23.5353H24.989C26.5947 22.1148 28.4789 20.9374 30.6253 20.57C30.6883 18.2092 30.418 15.8371 30.7341 13.4813V13.4823ZM20.1698 17.6647C20.9218 17.3981 21.6241 17.3422 22.3863 17.6128C22.6302 17.6993 22.8304 17.9354 23.0692 17.8896C23.1729 17.8703 24.7207 16.6736 24.7217 16.5677C24.4656 16.3927 24.1668 16.3408 23.8853 16.1882C22.9269 15.6702 22.3141 14.4949 21.5682 13.7256C21.2541 14.0115 18.9177 15.7252 18.873 15.8961C18.8435 16.0091 18.8933 16.0366 18.938 16.1139C19.2287 16.6105 19.8964 17.1213 20.1687 17.6658L20.1698 17.6647ZM17.3191 16.2319C13.9064 18.6172 10.2518 20.6463 7.03933 23.3104C5.49254 24.5937 1.48024 28.1461 1.30036 30.1356C1.25666 30.624 1.60626 31.1868 2.11034 31.2895C3.99149 31.6732 7.21108 29.1831 8.66539 28.0617C12.3616 25.2124 15.5711 21.7749 19.3669 19.0467L19.4645 18.8655L17.4227 16.2584L17.3191 16.2319ZM22.2816 22.2491C22.2155 22.2033 22.058 22.3162 21.9909 22.362C21.0803 22.9777 20.0122 24.0665 19.0874 24.786C16.6849 26.6553 14.1239 28.3242 11.7559 30.2424C10.3961 31.3435 6.71005 34.4543 6.47326 36.1507C6.27813 37.5489 7.08913 37.8399 8.29648 37.5957C11.3453 36.977 16.4461 32.6501 18.7551 30.4714L24.3264 24.9478L22.2826 22.2491H22.2816Z" fill="#030303"/>
<path d="M36.7998 14.5814C36.7998 15.7099 35.8862 16.6238 34.7601 16.6238C33.6341 16.6238 32.7205 15.7089 32.7205 14.5814C32.7205 13.4539 33.6341 12.5391 34.7601 12.5391C35.8862 12.5391 36.7998 13.4539 36.7998 14.5814ZM35.5061 14.5763C35.5061 14.1662 35.1738 13.8345 34.7652 13.8345C34.3567 13.8345 34.0244 14.1672 34.0244 14.5763C34.0244 14.9854 34.3567 15.3182 34.7652 15.3182C35.1738 15.3182 35.5061 14.9854 35.5061 14.5763Z" fill="#030303"/>
<path d="M31.4733 9.17508C31.4733 10.3016 30.5606 11.2154 29.4356 11.2154C28.3106 11.2154 27.3979 10.3016 27.3979 9.17508C27.3979 8.04858 28.3106 7.13477 29.4356 7.13477C30.5606 7.13477 31.4733 8.04858 31.4733 9.17508ZM30.1775 9.17406C30.1775 8.76295 29.8442 8.42917 29.4336 8.42917C29.023 8.42917 28.6896 8.76295 28.6896 9.17406C28.6896 9.58518 29.023 9.91895 29.4336 9.91895C29.8442 9.91895 30.1775 9.58518 30.1775 9.17406Z" fill="#030303"/>
</g>
<defs>
<clipPath id="clip0_812_7699">
<rect width="39" height="39" fill="white"/>
</clipPath>
</defs>
</svg>
