<svg width="53" height="53" viewBox="0 0 53 53" fill="none" xmlns="http://www.w3.org/2000/svg">
<path d="M17.3136 37.7609C18.2333 37.5528 18.7342 38.3109 18.3794 39.1329L13.7327 43.7503C12.877 44.3063 11.8995 43.3081 12.4537 42.474L16.93 37.9934C17.0396 37.8886 17.1629 37.7943 17.3152 37.7594L17.3136 37.7609Z" fill="black"/>
<path d="M12.988 36.8328C13.7402 36.6793 14.3446 37.3828 14.0538 38.1075C13.9716 38.3111 13.0368 39.2759 12.848 39.3732C11.9938 39.8107 11.1062 39.089 11.4975 38.2321C11.6086 37.9875 12.7414 36.8829 12.988 36.8328Z" fill="black"/>
<path d="M21.0255 28.9213L31.6147 28.897C32.8677 28.9836 32.9499 30.5394 31.7197 30.7506H21.1016C19.9902 30.6199 19.9034 29.1234 21.0255 28.9213Z" fill="black"/>
<path d="M50.8335 0C51.7866 0.395034 52.4154 0.983028 52.7915 1.9539V3.29094C52.3241 4.53682 51.3832 5.31321 50.0144 5.35272L47.0942 23.778L46.4014 25.4007H50.5747C50.6143 25.4007 51.2187 25.6423 51.3146 25.6909C52.0729 26.0692 52.4642 26.7104 52.79 27.4579V28.795C52.3332 29.9603 51.3177 30.8339 50.0068 30.7489L47.0318 49.4264C46.6116 51.125 45.0175 52.5046 43.262 52.6566L9.45881 52.652C7.0456 52.3177 5.64335 50.297 5.50784 47.9572L2.81145 30.7489C0.13941 30.8674 -1.1045 27.2315 1.23259 25.8322C1.41529 25.7228 2.08216 25.4022 2.24355 25.4022H6.41679L5.72405 23.7795L2.79927 5.36031C-0.422401 5.15368 -1.06643 1.10306 1.98624 0.00151925H50.832L50.8335 0ZM2.68356 1.7731C1.57059 1.90832 1.56145 3.32133 2.66529 3.48998C6.71369 3.77714 11.2432 3.12989 15.2353 3.4915C16.0833 3.56898 16.8324 4.03847 17.2603 4.76168C17.7886 5.65507 17.5176 6.31599 17.8556 7.15012C18.2286 8.07389 19.1984 8.65885 20.1744 8.74393C24.2319 9.09339 28.8178 8.49628 32.9286 8.71354C35.8199 8.29724 34.5486 5.46211 36.062 4.12811C36.4487 3.78777 37.0729 3.5386 37.5875 3.4915C41.5461 3.13141 46.0452 3.76954 50.0601 3.49605C51.5202 3.33348 51.103 1.66066 49.7541 1.74423L2.68203 1.7731H2.68356ZM15.9006 6.99211C15.7667 6.64113 15.8656 6.13671 15.7773 5.82979C15.7514 5.73863 15.3662 5.34664 15.3342 5.34664H4.66893L7.60437 23.6534C7.91649 24.5301 8.60315 25.1409 9.50753 25.3536L42.956 25.4037C44.2075 25.2898 45.0647 24.445 45.325 23.2432L48.1554 5.34664H37.4901C37.4566 5.34664 37.0729 5.73863 37.047 5.82979C36.9587 6.13671 37.0577 6.64113 36.9237 6.99211H43.5711C44.6323 6.99211 45.9142 8.65277 45.7955 9.71632C44.9124 13.5178 44.8454 17.9543 43.8649 21.6813C43.5376 22.9257 42.5814 23.6474 41.3071 23.7568H11.6208C10.4728 23.7355 9.38573 23.0199 9.02641 21.9244L7.03951 9.81357C6.85833 8.7181 8.16771 6.99059 9.25632 6.99059H15.9037L15.9006 6.99211ZM9.48165 8.86548C9.09797 8.97488 8.86198 9.31065 8.88939 9.71177C9.6811 13.3248 9.84096 17.3238 10.6753 20.8958C10.7697 21.2984 10.8123 21.6904 11.2569 21.8576L41.2035 21.9092C41.5735 21.9244 41.8963 21.7451 42.0227 21.3896L43.9334 9.71329C43.9624 9.34712 43.7568 9.02654 43.4203 8.89131L36.1518 8.84725C35.2535 9.75431 34.2029 10.4578 32.8509 10.5915C28.7127 10.3742 24.2745 10.8847 20.1728 10.5976C18.7325 10.4973 17.6196 9.84243 16.6741 8.84421L9.48165 8.867V8.86548ZM2.47345 27.2726C1.56297 27.6007 1.62692 28.6552 2.56023 28.8907H15.0267C16.295 28.9636 17.4079 29.8692 17.6241 31.1333C17.7003 31.5784 17.6287 31.9355 17.7825 32.4156C18.0839 33.3561 18.9883 34.058 19.9643 34.1446C24.139 34.5184 28.8985 33.8757 33.1341 34.1158C36.1548 33.4655 34.1695 30.0971 36.8628 29.0958C37.143 28.991 37.4916 28.9165 37.7915 28.8907L50.5199 28.8405C51.17 28.3802 51.1654 27.6524 50.424 27.2954L2.4704 27.271L2.47345 27.2726ZM15.9006 32.3928C15.8336 31.9871 15.8108 30.7473 15.2307 30.7473H4.66741L7.60437 49.0526C7.8023 49.8624 8.58183 50.5765 9.38268 50.7741C20.7088 50.9883 32.114 50.9883 43.4401 50.7741C44.4374 50.5082 45.1621 49.6513 45.325 48.6439L48.1554 30.7473H37.5921C37.012 30.7473 36.9892 31.9871 36.9222 32.3928H43.3625C43.4477 32.3928 44.139 32.6496 44.2775 32.7149C45.2382 33.1662 45.7803 34.172 45.7909 35.2219C44.882 38.9671 44.8622 43.4371 43.8801 47.1018C43.5726 48.2474 42.7215 49.0496 41.5111 49.1605H11.4122C10.2048 49.1119 9.28524 48.3157 8.96399 47.1808C7.94542 43.5753 7.97891 39.0218 7.03647 35.3221C6.98774 34.2859 7.5389 33.2118 8.47526 32.7499C8.63208 32.6724 9.34766 32.3943 9.45728 32.3943H15.8976L15.9006 32.3928ZM9.58518 34.2647C9.18171 34.4029 8.85893 34.7706 8.88939 35.2143L10.7545 46.731C10.8108 46.9757 11.0224 47.1565 11.2326 47.2826L41.4106 47.3099C41.7029 47.3038 41.9161 47.0516 42.0485 46.8146L43.9334 35.2158C43.9684 34.798 43.6746 34.4591 43.3168 34.2905L36.2553 34.2464C35.2565 35.0866 34.4389 35.8676 33.0565 35.9907C28.7827 35.7688 24.203 36.2915 19.9658 35.9967C18.4478 35.8904 17.6546 35.19 16.5675 34.2464L9.58366 34.2662L9.58518 34.2647Z" fill="black"/>
<path d="M18.2377 12.4757C18.6473 12.8494 18.5209 13.48 18.221 13.8841C17.7916 14.463 14.372 17.8983 13.8346 18.2477C12.8571 18.8828 11.8431 17.9028 12.5496 16.9654C13.7128 15.4202 15.8732 13.9373 17.1415 12.3967C17.4338 12.1338 17.9713 12.2326 18.2377 12.4757Z" fill="black"/>
<path d="M12.8845 11.4395C13.9107 11.1705 14.471 12.1201 13.8376 13.0075C13.4052 13.6122 12.4765 14.4524 11.7396 13.8674C10.8657 13.1746 12.2055 11.6172 12.883 11.4395H12.8845Z" fill="black"/>
<path d="M21.0255 3.54775L31.6147 3.52344C32.8677 3.61004 32.9499 5.16587 31.7197 5.37706H21.1016C19.9902 5.24639 19.9034 3.74982 21.0255 3.54775Z" fill="black"/>
</svg>
