<svg width="52" height="54" viewBox="0 0 52 54" fill="none" xmlns="http://www.w3.org/2000/svg">
<g clip-path="url(#clip0_276_441)">
<path d="M39.0557 8.16998C39.4236 10.3738 38.1882 12.0739 36.0431 12.4179L18.0598 12.4064C14.191 11.7596 14.0852 6.32335 17.9263 5.54981L36.3897 5.56133C37.5925 5.79833 38.8458 6.92902 39.0541 8.16998L39.0557 8.16998ZM37.1514 8.89086C37.1108 8.4218 36.7006 7.92475 36.3132 7.6894C30.2049 7.53798 24.0119 7.53798 17.9003 7.6894C16.4843 8.58144 17.0116 10.3952 18.6457 10.489C24.0835 10.1894 29.9477 10.8922 35.3351 10.4956C36.2872 10.4248 37.2491 10.0446 37.1514 8.89086Z" fill="black"/>
<path d="M46.4794 38.3364L46.4599 51.1525C46.3166 52.5383 45.5826 53.5653 44.2414 53.9702L10.1824 53.9998C8.30742 53.6558 7.62546 51.9211 7.85821 50.1436C5.89045 50.5929 4.56233 51.4521 2.53272 50.5287C-0.906387 48.9636 -0.813613 44.0129 2.65316 42.53C4.18147 41.8766 6.06948 41.6231 7.65801 41.0816L7.86146 40.8051L7.85495 2.59366C7.99818 1.11899 9.18795 0.0212153 10.656 0.00146531L43.7971 0.00146676C45.397 0.185801 46.4273 1.47779 46.4778 3.0759L46.4892 31.386C46.5477 31.5621 48.3169 32.1628 48.6604 32.3241C49.5393 32.7339 50.3954 33.2096 51.2336 33.7C53.9614 37.1777 48.688 37.6566 46.4778 38.338L46.4794 38.3364ZM17.5115 34.7172L21.3851 43.8812L49.9315 35.2586C40.0667 29.7533 27.8679 31.7382 17.5115 34.7172ZM44.4481 30.8593L44.4482 2.7171C44.4482 2.57062 43.9322 1.96002 43.6799 2.04889L10.7732 2.04889C10.3566 1.95672 9.76575 2.45212 9.76575 2.83889L9.76575 40.5023L16.7986 38.4516C16.9337 38.3034 15.599 35.6767 15.516 35.2307C15.0847 32.9265 17.0297 32.6961 18.6801 32.2204C26.2256 30.0397 34.7949 29.0028 42.565 30.4166C43.1982 30.5318 43.8329 30.6849 44.4498 30.861L44.4481 30.8593ZM44.4481 39.0539L9.81783 49.533C9.71041 50.4744 9.53788 51.9261 10.7765 52.0742L43.3202 52.0742C43.7694 52.1285 44.4481 51.7681 44.4481 51.2875L44.4481 39.0539ZM19.3002 44.5988L17.6254 40.3854L3.33024 44.4194C0.931164 45.5402 1.92074 49.2088 4.68765 48.9257C9.57206 47.535 14.4076 45.9089 19.3002 44.5988Z" fill="black"/>
<path d="M3.74359 46.3371C3.74359 46.897 4.19247 47.3509 4.74619 47.3509C5.29991 47.3509 5.74878 46.897 5.74878 46.3371C5.74878 45.7772 5.29991 45.3232 4.74619 45.3232C4.19247 45.3232 3.74359 45.7772 3.74359 46.3371Z" fill="black"/>
</g>
<defs>
<clipPath id="clip0_276_441">
<rect width="54" height="52" fill="white" transform="translate(52 2.27299e-06) rotate(90)"/>
</clipPath>
</defs>
</svg>
