<svg width="46" height="46" viewBox="0 0 46 46" fill="none" xmlns="http://www.w3.org/2000/svg">
<path d="M46 21.505L43.9519 27.3155C42.6069 29.7899 40.5494 30.1016 38.0529 29.2624C35.9435 28.5527 33.049 27.5377 31.0639 26.6026C28.8978 25.5796 28.1034 23.4664 28.7358 21.1614C29.1684 19.5853 29.9958 18.0076 30.378 16.3979L9.90785 8.82589C19.6891 18.7301 29.5584 28.5463 39.2877 38.4985C39.4277 38.807 39.3758 39.1522 39.1336 39.3888C35.7201 42.4131 32.1414 48.5865 26.9661 44.8156C24.8676 42.4947 22.0597 40.3239 20.0525 37.9742C18.0437 35.6228 17.836 32.7327 19.8731 30.3063C21.2244 28.6966 23.0681 27.3507 24.4524 25.7474L9.45798 10.597L9.34162 10.5698C4.6901 14.0449 -1.42595 9.61554 0.29811 3.93934C1.56284 -0.22789 7.27934 -1.40117 10.0857 1.93965C10.5104 2.44477 11.212 3.53333 10.1816 3.85942C9.3998 4.10718 9.08204 3.16408 8.60855 2.71011C6.51797 0.704023 2.57435 1.58159 1.78467 4.44926C0.65365 8.55895 4.63348 11.6456 8.20115 9.46369C7.67733 8.49501 4.71212 6.93969 6.3827 5.92945C18.6871 4.77055 30.9962 3.63244 43.3069 2.56785C43.7285 2.69093 43.8953 2.79643 44.0007 3.23921C44.1941 4.05763 44.4505 6.77664 44.3813 7.59347C44.2901 8.65486 43.579 9.65551 42.6336 10.1047C41.6206 10.5858 37.8012 10.8879 36.5317 10.9295C35.6807 10.9567 35.1066 10.9263 34.3563 10.4867C32.3522 9.31343 32.9657 7.09154 32.4781 5.17177L10.3578 7.27377C21.9701 11.5081 33.5257 15.9615 45.1254 20.2518L46 20.7777V21.5082V21.505ZM42.588 4.26224L34.1486 4.99274C34.5261 6.53048 33.8309 9.14399 35.9891 9.37098C37.7163 9.01132 39.7612 9.17436 41.457 8.8147C42.2404 8.64846 42.6934 8.20089 42.8523 7.40005L42.588 4.26224ZM44.2932 21.5977L31.8645 17.1204C31.4461 18.6038 30.6533 20.1463 30.2616 21.6169C29.8699 23.0875 30.2474 24.3583 31.6018 25.0505C34.0935 25.7746 36.7819 27.3203 39.2453 27.9565C40.5619 28.297 41.7606 27.9421 42.4811 26.7353L44.2932 21.5977ZM25.5755 26.8887C24.2069 28.4025 22.4262 29.7484 21.1284 31.3101C19.6042 33.142 19.7174 35.2312 21.3078 36.9719C23.3968 39.2577 25.8381 41.2718 27.9618 43.5305C31.9384 46.3134 34.5529 41.1519 37.2491 39.0244L37.375 38.807L25.5755 26.8903V26.8887Z" fill="black"/>
</svg>
