<svg width="49" height="38" viewBox="0 0 49 38" fill="none" xmlns="http://www.w3.org/2000/svg">
<path d="M49 1.913V2.67679C48.8069 3.30273 48.4545 3.92024 47.8837 4.28455C47.7258 4.38442 47.3156 4.4857 47.2958 4.50961C47.1605 4.66293 46.6179 7.93753 46.4656 8.50299C46.3007 9.11346 46.1781 9.60015 45.7862 10.1164C44.1568 12.2671 41.8818 11.5357 39.5264 11.6524V13.2278C39.5264 13.3403 39.2051 13.9185 39.0979 14.0422C38.9838 14.1745 38.3396 14.6119 38.2339 14.6119H35.1244V16.0439H43.7847C45.6481 16.0439 46.7926 17.8682 47.1507 19.4648C47.9019 22.8139 48.2064 26.3487 48.9986 29.6993V31.2269C48.3587 33.2988 46.5826 34.4185 44.4049 34.1864C44.5444 35.7379 44.3626 37.0896 42.5429 37.2458C41.2785 37.3541 38.2254 37.3907 37.0146 37.2176C36.4776 37.1403 35.9504 36.8322 35.677 36.3554C35.6178 36.2513 35.4105 35.7393 35.4105 35.6661V34.1864H13.5936V35.6661C13.5936 35.7393 13.3864 36.2499 13.3272 36.3554C13.0551 36.8322 12.5266 37.1403 11.9895 37.2176C11.0663 37.3499 6.68962 37.3625 5.89605 37.1417C4.46817 36.7436 4.53584 35.4059 4.59927 34.1864C1.80273 34.4185 -0.214334 32.7319 0.0182417 29.854C0.30438 26.3136 1.58988 22.4102 1.98879 18.8332C2.21713 17.525 3.90999 16.0425 5.22087 16.0425H13.8811V14.6105H10.8675C10.3869 14.6105 9.48051 13.7004 9.48051 13.2264V11.651C7.12798 11.5328 4.85016 12.2657 3.22073 10.115C2.7739 9.5242 2.04376 7.93472 3.25597 7.77718C4.03968 7.6759 4.03262 8.49596 4.27507 8.96858C4.56261 9.52842 5.26034 10.0559 5.89181 10.1248H43.1151C45.4057 9.87726 45.1942 6.22427 45.7468 4.58557H3.26161C3.3631 5.17213 4.52879 9.35259 3.64218 9.4834C3.08118 9.56639 2.87819 9.39057 2.71187 8.89544C2.6287 8.64928 1.7689 4.57431 1.71111 4.50961C1.68997 4.4857 1.27976 4.38442 1.1233 4.28455C-0.830328 3.03548 -0.0381568 0.156134 2.25659 0.00421968L46.6587 0C47.9034 0.106903 48.6406 0.734253 49 1.913ZM1.53209 1.52758V3.06642H47.4763V1.52758H1.53209ZM37.9957 11.6538H11.0113V13.0857H37.9957V11.6538ZM33.5951 14.6133H15.4147V16.0453H33.5951V14.6133ZM2.14664 32.054C2.50607 32.4141 3.08258 32.6335 3.59283 32.6644H45.4155C46.6108 32.6138 47.4861 31.5757 47.5538 30.4279L45.5494 19.1553C45.2464 18.165 44.4303 17.5996 43.4055 17.57H5.5056C4.42729 17.6629 3.69432 18.2691 3.41805 19.3072C2.48916 22.8012 2.32002 26.8762 1.45315 30.4279C1.44751 30.9301 1.79143 31.6995 2.14664 32.054ZM12.0642 34.1892H6.13143V35.7224H12.0642V34.1892ZM42.8755 34.1892H36.9427V35.7224H42.8755V34.1892Z" fill="black"/>
<path d="M44.4077 29.7007L42.7797 20.5352L6.28231 20.531L4.60073 29.7021H33.4612C33.5218 29.7021 33.8981 29.9975 33.9376 30.0847C34.1941 30.6446 33.7868 31.2438 33.1736 31.2297L3.87902 31.2339C3.39696 31.255 2.93746 30.8345 2.98116 30.3379C3.76909 26.9592 4.02141 23.2964 4.82062 19.943C4.98413 19.2566 5.0264 19.0752 5.7932 19.0034H43.1194C43.8792 19.0611 43.9877 19.1328 44.1709 19.8629C45.011 23.205 45.2098 26.9592 46.0273 30.3379C46.0724 30.8274 45.6185 31.2536 45.1294 31.2339L29.623 31.2297C28.9915 31.2185 28.5827 30.6924 28.859 30.0847C28.8985 29.9975 29.2748 29.7021 29.3355 29.7021H44.4063L44.4077 29.7007Z" fill="black"/>
<path d="M27.6763 21.6212C28.8477 21.4566 30.074 22.2823 30.2107 23.5075C30.2854 24.1841 30.2854 26.5289 30.0655 27.0873C29.2621 29.1227 26.1075 28.719 25.8665 26.5486C25.8016 25.962 25.7847 23.6692 25.913 23.1615C26.1075 22.3864 26.9096 21.7281 27.6778 21.6212H27.6763ZM27.768 23.184C27.5565 23.2487 27.3536 23.5891 27.3197 23.8071C27.2436 24.2952 27.2338 26.3854 27.5509 26.6991C27.8032 26.9495 28.2726 26.972 28.5178 26.6921C28.8646 26.294 28.8505 24.0181 28.6391 23.5342C28.4812 23.1713 28.1358 23.0728 27.768 23.1854V23.184Z" fill="black"/>
<path d="M20.5553 24.606C21.6463 24.5103 22.9332 24.9604 23.07 25.6061C23.1517 25.9887 23.1419 26.9747 23.0686 27.3629C22.8092 28.74 19.0217 28.74 18.7624 27.3629C18.6905 26.9789 18.6848 25.7805 18.854 25.4401C19.0471 25.049 19.8604 24.6664 20.5553 24.606ZM20.6483 25.4809C19.9929 25.592 20.1085 27.1449 20.3988 27.4122C20.6117 27.6091 21.1953 27.595 21.4448 27.4192C21.7182 27.2265 21.7196 25.8874 21.5251 25.6694C21.356 25.4781 21.0021 25.4218 20.6483 25.4823V25.4809Z" fill="black"/>
<path d="M20.5553 21.6113C21.6463 21.5226 22.9332 21.939 23.07 22.5368C23.1517 22.8913 23.1419 23.8028 23.0686 24.1629C22.8092 25.4373 19.0217 25.4373 18.7624 24.1629C18.6905 23.8084 18.6848 22.6986 18.854 22.3835C19.0471 22.022 19.8604 21.6675 20.5553 21.6113ZM20.6483 22.4229C19.9929 22.5256 20.1085 23.9617 20.3988 24.2093C20.6117 24.3921 21.1953 24.3795 21.4448 24.2163C21.7182 24.0377 21.7196 22.7998 21.5251 22.5973C21.356 22.4201 21.0021 22.368 20.6483 22.4243V22.4229Z" fill="black"/>
<path d="M24.4558 28.3476C24.8715 28.3476 25.2085 28.0113 25.2085 27.5965C25.2085 27.1816 24.8715 26.8453 24.4558 26.8453C24.0401 26.8453 23.7031 27.1816 23.7031 27.5965C23.7031 28.0113 24.0401 28.3476 24.4558 28.3476Z" fill="black"/>
</svg>
