<svg width="37" height="53" viewBox="0 0 37 53" fill="none" xmlns="http://www.w3.org/2000/svg">
<g clip-path="url(#clip0_812_7668)">
<path d="M4.53905 53.0008C2.21236 52.4071 0.54284 51.3221 0.248077 48.8159C-0.131249 45.5704 -0.162658 40.3458 0.743376 37.2196C1.22176 35.5647 2.20753 34.1792 2.60376 32.4432C3.30201 29.3838 2.88162 23.873 2.32833 20.7325C2.14712 19.7023 1.33049 19.39 1.20002 18.4385C1.07921 17.5705 1.08404 14.9856 1.18794 14.1057C1.26283 13.4714 2.13988 13.0016 2.66417 12.6702C4.61637 11.4445 6.98655 10.784 9.23835 10.3261V5.54739C9.17553 5.37332 8.43621 5.3137 8.12936 5.19209C5.59247 4.17863 6.19166 0.322745 9.08855 0.108131C13.3602 -0.20902 18.1151 0.296514 22.4205 0.182053C25.4286 1.11681 24.868 5.34947 21.7054 5.38047L21.7175 10.3285C23.904 10.7339 26.0084 11.4302 27.9534 12.4913C28.2795 12.6678 28.9561 13.2425 29.217 13.3116C30.053 13.531 31.8578 13.2472 32.8532 13.3379C34.6411 13.5 36.2816 14.802 36.7504 16.5165C37.1079 17.8257 37.0113 23.4795 36.8832 25.0581C36.5088 29.7248 32.5415 31.7779 28.1974 31.8256C28.3859 33.6641 29.5697 35.2427 30.1109 36.9096C31.0846 39.907 31.0508 45.4488 30.7077 48.6108C30.5144 50.3873 29.8186 51.6011 28.1636 52.4023L26.2065 53.0032H4.53905V53.0008ZM9.01124 1.88942C7.98198 2.27096 8.13661 3.45849 9.19727 3.62541H21.7634C22.9376 3.48949 22.824 1.86558 21.657 1.86796L9.01365 1.88942H9.01124ZM19.9271 5.38047H11.0287V10.028C13.9884 9.72997 16.9674 9.75858 19.9271 10.028V5.38047ZM26.209 13.5429C21.6111 11.621 16.2498 11.187 11.3065 11.7998C9.05956 12.0788 6.77877 12.6153 4.74925 13.593C11.205 14.399 17.7841 14.2822 24.2737 13.8505L26.209 13.5429ZM32.8556 15.0905C31.9278 14.9618 30.727 15.1859 29.7679 15.0905V16.8456H31.9134C32.4691 16.8456 33.2422 17.8042 33.3171 18.3527C33.4983 19.6618 33.4403 22.8619 33.3292 24.2355C33.1069 27.0183 30.5313 28.1915 27.9872 28.3131V30.0682C31.679 29.9633 34.8078 28.6851 35.1098 24.648C35.2862 22.2849 34.977 19.7047 35.0978 17.3178C34.9625 16.2948 33.8921 15.2336 32.8556 15.0882V15.0905ZM12.8093 16.0205L2.96859 15.1931V18.2406C2.96859 18.541 3.57503 18.8582 3.86738 18.9035C5.23005 19.111 6.96722 19.2278 8.36131 19.3256C9.83995 19.4281 11.3331 19.3804 12.8093 19.533V16.0205ZM27.9896 15.2956L18.1489 16.0181V19.4281C19.3835 19.4281 20.6302 19.3971 21.8648 19.3232C23.3652 19.235 25.1966 19.1229 26.668 18.8987C26.9918 18.8487 27.5281 18.8057 27.748 18.5697C27.7843 18.5291 27.9896 18.1619 27.9896 18.1381V15.298V15.2956ZM16.3682 16.0205H14.5876V19.533H16.3682V16.0205ZM31.5485 18.603H29.664C29.5722 18.987 29.345 19.3494 29.1252 19.6737C28.9995 19.8597 28.7845 19.9074 28.7241 20.0267C28.5477 20.3915 28.253 23.7681 28.1974 24.4405C28.1418 25.113 28.1104 25.7878 28.0911 26.4555C29.0261 26.4698 30.3888 26.0811 31.0218 25.3705C31.1571 25.2179 31.5461 24.4858 31.5461 24.338V18.6054L31.5485 18.603ZM19.9271 21.0806V27.2782L26.1075 26.818L26.8371 20.8231C26.9048 20.5823 26.5206 20.6538 26.3612 20.6633C24.2229 20.816 22.0847 21.1641 19.9271 21.0806ZM11.0311 21.1856L4.12107 20.773C4.28778 22.7952 4.6067 24.8173 4.65986 26.8537L11.0311 27.3855V21.1879V21.1856ZM18.1489 21.2881H12.8093V27.4904H18.1489V21.2881ZM26.209 28.6231C19.0863 29.3385 11.8695 29.3504 4.74925 28.6231C4.73959 29.193 4.80724 29.7701 4.64294 30.3257C6.06119 30.5499 7.54708 30.7049 8.98949 30.7907C13.6888 31.0721 18.6345 31.0626 23.329 30.6882C24.2858 30.6119 25.2522 30.464 26.209 30.3782V28.6231ZM26.4071 32.1452C20.1687 32.7818 13.8893 32.8915 7.62923 32.4432C7.17501 32.4099 4.7106 32.0522 4.5318 32.1785C4.19355 34.4177 2.70766 36.3659 2.26793 38.5168C1.81612 40.7321 1.86203 42.9617 1.92726 45.196C1.9635 46.4241 1.81612 48.916 2.5047 49.8937C3.13289 50.7855 4.36751 51.1695 5.42576 51.2481C11.9081 51.7275 18.9873 50.8762 25.5325 51.2481C26.8106 51.1599 28.5357 50.5042 28.8208 49.1211C29.2146 47.2015 29.1493 43.3051 29.0358 41.2782C28.8691 38.2855 28.1201 37.2553 27.1512 34.6681C26.842 33.8454 26.6414 32.9917 26.4095 32.1475L26.4071 32.1452Z" fill="#030303"/>
<path d="M12.3679 43.3181C13.5977 43.1417 17.1493 43.156 18.4129 43.2895C20.2999 43.4922 21.3968 45.4666 20.5463 47.1502C20.2419 47.7535 19.4156 48.4545 18.7174 48.5475C17.3764 48.7288 13.8417 48.6835 12.4404 48.5618C9.43716 48.2972 9.30428 43.7545 12.3679 43.3157V43.3181ZM12.6771 45.0708C11.6745 45.2473 11.6189 46.4467 12.5491 46.7996H18.2994C19.2803 46.6422 19.2706 45.2163 18.1931 45.0517C17.3571 44.9253 13.4889 44.9253 12.6771 45.0684V45.0708Z" fill="#030303"/>
<path d="M7.01885 34.7486C7.08892 34.8249 7.22905 35.1111 7.24355 35.2089C7.34502 35.8742 6.15148 37.8128 5.89779 38.5878C5.66584 39.2913 5.64893 40.8746 5.27685 41.28C4.73806 41.8643 3.72572 41.4016 3.69673 40.6553C3.67257 40.0138 4.02773 38.5306 4.25001 37.8915C4.3829 37.5076 5.52571 34.9394 5.69 34.7677C6.02101 34.4219 6.6951 34.4005 7.01885 34.751V34.7486Z" fill="#030303"/>
<path d="M4.1968 42.4861C5.63437 42.1594 5.5933 43.9216 5.48457 44.8922C5.32753 46.2872 3.78123 46.2967 3.60969 45.0901C3.52029 44.4653 3.42123 42.665 4.1968 42.4885V42.4861Z" fill="#030303"/>
</g>
<defs>
<clipPath id="clip0_812_7668">
<rect width="37" height="53" fill="white"/>
</clipPath>
</defs>
</svg>
