<svg width="45" height="51" viewBox="0 0 45 51" fill="none" xmlns="http://www.w3.org/2000/svg">
<path d="M44.862 21.4898C44.4823 16.2751 43.1485 10.8933 42.8107 5.74483C42.7068 4.16313 43.0143 2.16799 42.8151 0.672727C42.7718 0.351489 42.6101 0.230484 42.3748 0.0345726L2.68927 0C2.48429 0.125326 2.22878 0.334202 2.18259 0.57333C2.49872 6.86988 1.01478 13.0209 0.356526 19.2383C0.01874 22.4362 -0.0332271 25.6068 0.0158529 28.8264C0.912285 35.4111 1.0321 42.4437 2.08588 48.9736C2.15372 49.3957 2.24755 49.704 2.61709 49.9532L42.0067 50.0166C42.6693 50.0238 42.8483 49.4202 42.9046 48.8642C43.5989 39.7744 45.5289 30.6386 44.862 21.4898ZM42.9176 31.84L41.142 48.1842L3.90328 48.2375L3.80223 48.0157C3.07325 38.707 1.15913 29.5668 2.07433 20.1962C2.50883 15.7479 3.4067 11.3326 3.80223 6.87708H7.323C7.31867 6.84251 7.31578 6.8065 7.31578 6.77048V5.20175C7.31578 5.1859 7.31723 5.17006 7.31867 5.15277H3.9105V1.7027H41.0814V5.15277H13.8001C13.8001 5.16861 13.803 5.18446 13.803 5.20175V6.77048C13.803 6.8065 13.8001 6.84251 13.7958 6.87708H41.1897C41.5837 11.3326 42.4845 15.7479 42.9176 20.1962C43.2943 24.0712 43.2467 27.9592 42.9176 31.84Z" fill="black"/>
<path d="M12.8936 8.57114H8.22527C7.36637 8.57114 6.66626 7.87393 6.66626 7.01537V5.44664C6.66626 4.58953 7.36493 3.89087 8.22527 3.89087H12.8936C13.7525 3.89087 14.4527 4.58808 14.4527 5.44664V7.01537C14.4527 7.87249 13.754 8.57114 12.8936 8.57114ZM8.22527 5.18734C8.08236 5.18734 7.96544 5.30403 7.96544 5.44664V7.01537C7.96544 7.15799 8.08236 7.27467 8.22527 7.27467H12.8936C13.0366 7.27467 13.1535 7.15799 13.1535 7.01537V5.44664C13.1535 5.30403 13.0366 5.18734 12.8936 5.18734H8.22527Z" fill="black"/>
<path d="M13.0882 30.143C13.4664 30.0883 13.81 29.6576 14.194 29.6388C14.6371 29.6187 14.8797 29.9673 14.7959 30.3908C14.6978 30.8892 13.1532 31.3271 13.0882 31.6743C13.0579 31.8342 13.0522 33.4029 13.0998 33.4793C13.4737 33.5528 14.0222 34.1434 14.3658 34.0238C14.4986 33.9777 15.7934 33.2128 15.8309 33.135C16.0893 32.6006 15.3849 30.7293 16.596 30.9425C16.7808 30.9756 17.0767 31.2076 17.0767 31.3891V32.4219C17.5228 32.2419 18.6401 31.2969 18.962 32.0676C19.2839 32.8383 18.2287 33.1508 17.7176 33.4202C17.7061 33.5081 17.6931 33.5124 17.7624 33.5657C18.1189 33.8452 19.2969 34.1722 18.604 34.9097C18.041 35.509 16.9093 34.2053 16.4704 34.2053C16.2221 34.2053 15.1987 34.9933 14.8667 35.0912C14.7656 35.2036 14.7541 36.2869 14.8306 36.4108C14.9432 36.5937 16.1341 37.0748 16.3622 37.3068C16.4372 37.3457 16.5022 37.3284 16.5787 37.3068C17.0782 37.1656 18.1059 36.0089 18.6328 36.6686C19.2319 37.4177 18.1305 37.6813 17.7609 37.9709C17.6917 38.0256 17.7046 38.0299 17.7162 38.1163C18.2388 38.4131 19.2925 38.6782 18.9605 39.469C18.6285 40.2599 17.5228 39.2832 17.0753 39.1146V40.1475C17.0753 40.3247 16.7779 40.5681 16.5946 40.5969C15.3892 40.7813 16.0836 38.9288 15.8295 38.403C15.792 38.3252 14.4971 37.5603 14.3643 37.5142C14.0193 37.3932 13.4708 37.9838 13.0983 38.0587C13.0507 38.1351 13.0565 39.7052 13.0868 39.8637C13.1763 40.3333 14.9937 40.5537 14.7815 41.4857C14.5808 42.3673 13.5213 41.5534 13.0868 41.3935V42.8542C13.0868 43.0127 12.6667 43.1899 12.4805 43.1812C12.3174 43.174 11.9479 42.9767 11.9479 42.8542V41.3935C11.5696 41.4483 11.2261 41.879 10.8421 41.8977C10.3989 41.9179 10.1564 41.5693 10.2402 41.1458C10.3383 40.6474 11.8829 40.2094 11.9479 39.8623C11.9782 39.7024 11.9839 38.1336 11.9363 38.0573C11.5624 37.9838 11.0139 37.3932 10.6703 37.5128C10.5375 37.5589 9.24268 38.3238 9.20514 38.4016C8.95108 38.9288 9.64542 40.7813 8.44007 40.5955C8.25674 40.5667 7.95938 40.3247 7.95938 40.146V39.1132C7.42671 39.3048 6.51729 40.2354 6.07846 39.4632C5.69015 38.779 6.84497 38.3569 7.31845 38.1149C7.33 38.027 7.34299 38.0227 7.2737 37.9694C6.91715 37.6899 5.73923 37.363 6.43212 36.624C7.00665 36.0117 8.11095 37.3284 8.56566 37.3284C8.81395 37.3284 9.83885 36.5404 10.1694 36.4425C10.2705 36.3301 10.282 35.2468 10.2055 35.1229C10.0929 34.94 8.902 34.4588 8.67392 34.2269C8.59886 34.188 8.5339 34.2053 8.45739 34.2269C7.95793 34.3681 6.93014 35.5248 6.40325 34.8651C5.80419 34.116 6.9056 33.8524 7.27514 33.5628C7.34443 33.5081 7.33144 33.5038 7.31989 33.4173C6.84064 33.1725 5.70747 32.7662 6.07846 32.069C6.49131 31.2954 7.44404 32.2275 7.96082 32.4191V31.3862C7.96082 31.209 8.25819 30.9656 8.44152 30.9368C9.64686 30.7524 8.95253 32.6049 9.20659 33.1307C9.24412 33.2085 10.539 33.9734 10.6718 34.0195C11.0168 34.1405 11.5653 33.5499 11.9377 33.475C11.9854 33.3986 11.9796 31.8284 11.9493 31.67C11.8598 31.2004 10.0424 30.98 10.2546 30.0479C10.4552 29.1663 11.5148 29.9802 11.9493 30.1401V28.6794C11.9493 28.5556 12.3203 28.3582 12.482 28.3524C12.6682 28.3452 13.0882 28.521 13.0882 28.6794V30.1401V30.143ZM12.4935 34.5006C12.4314 34.5064 11.4455 35.074 11.4123 35.1258C11.3358 35.2497 11.3473 36.333 11.4484 36.4453C11.4946 36.4958 12.4805 37.0417 12.5426 37.0359C12.6047 37.0302 13.5906 36.4626 13.6238 36.4108C13.7003 36.2869 13.6887 35.2036 13.5877 35.0912C13.5415 35.0408 12.5556 34.4949 12.4935 34.5006Z" fill="black"/>
</svg>
