<?xml version="1.0" encoding="UTF-8"?>
<svg id="freezer-block-trays-icon" data-name="Freezer Block Trays" xmlns="http://www.w3.org/2000/svg" viewBox="0 0 341.72 248.27">
  <g id="Camada_1-2" data-name="Camada 1">
    <path d="M130.07,198.42c-3.81,0-7.53-.76-10.72-2.59L7.68,131.8c-3.87-2.22-6.13-4.59-7.56-7.94l-.12-.27v-.3c-.04-3.28,1.62-7.79,5.36-9.95L193.76,4.43c6.55-3.7,14.13-5.12,21.95-4.12,3.49.45,6.92,1.64,10.21,3.54l110.98,64.17c4,2.31,5.67,7.28,3.71,11.06-1.62,3.14-3.95,5.42-7.78,7.63l-185.33,106.92c-4.76,2.74-11.21,4.77-17.42,4.77ZM3,122.96c1.17,2.59,2.98,4.41,6.17,6.24l111.66,64.02c7.37,4.22,18.21,1.83,25.16-2.18l185.33-106.92c3.3-1.9,5.28-3.82,6.62-6.41h0c1.08-2.09.31-5.44-2.55-7.09L224.41,6.45c-2.94-1.7-6-2.76-9.09-3.16-7.27-.93-14.02.33-20.08,3.75L6.86,115.93c-2.48,1.43-3.79,4.56-3.86,7.03ZM138.23,185.81c-.94,0-1.87-.24-2.71-.73L28.4,123c-1.69-.98-2.69-2.73-2.69-4.68,0-1.95,1.01-3.7,2.7-4.67l45.4-26.15c1.67-.96,3.73-.96,5.4,0l107.13,62.01c1.69.98,2.69,2.72,2.69,4.67s-1.01,3.7-2.7,4.67l-45.41,26.22c-.83.48-1.77.72-2.7.72ZM76.51,89.78c-.41,0-.83.11-1.2.32l-45.4,26.15c-.75.43-1.2,1.21-1.2,2.07,0,.87.45,1.64,1.2,2.08l107.12,62.08c.74.43,1.66.43,2.4,0l45.41-26.22c.75-.43,1.2-1.21,1.2-2.08,0-.87-.45-1.64-1.2-2.08l-107.13-62.01c-.37-.21-.79-.32-1.2-.32ZM201.62,148.48c-1.11,0-2.22-.29-3.22-.86l-105.09-60.9c-2.01-1.16-3.2-3.24-3.2-5.56,0-2.32,1.2-4.39,3.21-5.55l43.37-24.98c1.98-1.14,4.44-1.14,6.41,0l105.1,60.83c2,1.16,3.2,3.24,3.2,5.55,0,2.32-1.2,4.39-3.21,5.55l-43.38,25.05c-.99.57-2.1.86-3.21.86ZM139.9,52.77c-.59,0-1.18.15-1.7.45l-43.37,24.98c-1.07.62-1.71,1.72-1.71,2.95,0,1.23.63,2.34,1.7,2.96l105.09,60.9c1.05.61,2.36.61,3.42,0l43.38-25.05c1.07-.62,1.71-1.72,1.71-2.95,0-1.23-.64-2.34-1.7-2.96l-105.1-60.83c-.53-.31-1.12-.46-1.71-.46ZM265.8,111.73c-1.07,0-2.15-.28-3.11-.83l-105.52-61.15c-1.94-1.12-3.09-3.13-3.09-5.37,0-2.24,1.16-4.24,3.1-5.36l43.8-25.23c1.91-1.1,4.29-1.1,6.2,0l105.53,61.08c1.94,1.12,3.09,3.13,3.09,5.37,0,2.24-1.16,4.24-3.1,5.36l-43.81,25.3c-.96.55-2.03.83-3.1.83ZM204.08,15.95c-.55,0-1.1.14-1.6.43l-43.8,25.23c-1,.58-1.6,1.61-1.6,2.77,0,1.16.59,2.19,1.59,2.77l105.52,61.15c.99.57,2.21.57,3.2,0l43.81-25.3c1-.58,1.6-1.61,1.6-2.77,0-1.16-.6-2.19-1.6-2.77l-105.53-61.08c-.49-.29-1.05-.43-1.6-.43Z"/>
    <path d="M130.08,206.74c-3.86,0-7.62-.79-10.89-2.66L8.79,140.81c-.44-.25-.9-.5-1.38-.76-3.23-1.74-7.26-3.91-7.32-8.75L0,123.29l2.88-.61c1.17,2.74,2.99,4.63,6.29,6.52l111.66,64.02c7.37,4.22,18.21,1.83,25.16-2.18l185.33-106.92c4.68-2.7,7.05-5.77,7.05-9.13l3-.12c.27,3.27.41,5.53.33,8.09-.1,3.42-1.59,6.65-4.08,8.86-1.31,1.16-2.83,2.23-4.8,3.36l-185.17,106.68c-4.95,2.85-11.37,4.88-17.56,4.88ZM3.06,128.33l.04,2.94c.03,2.86,2.29,4.29,5.74,6.15.5.27.98.53,1.44.79l110.4,63.27c7.49,4.29,18.18,1.98,25.46-2.22l185.17-106.68c1.79-1.03,3.16-1.98,4.31-3,1.88-1.66,3-4.11,3.08-6.7,0-.32.01-.63.02-.94-1.42,1.74-3.39,3.35-5.89,4.79l-185.33,106.92c-7.67,4.43-19.75,7-28.15,2.18L7.68,131.8c-1.9-1.09-3.4-2.21-4.62-3.47Z"/>
    <rect x="109.13" y="79.72" width="61.44" height="3" transform="translate(58.35 220.91) rotate(-89.89)"/>
    <rect x="45.34" y="116.9" width="61.44" height="3" transform="translate(-42.48 194.23) rotate(-89.89)"/>
    <rect x="173.69" y="43.33" width="61.44" height="3" transform="translate(159.18 249.16) rotate(-89.89)"/>
    <path d="M132.49,248.27c-3.49,0-7.05-.53-10.66-1.59l-.33-.14L12.9,183.77c-1.44-.83-4.77-3.09-4.79-6.2l-.08-40.65,112.65,64.56c7.49,4.29,18.18,1.98,25.46-2.22l187.43-107.98-.23,42.27c-.02,2.66-2.29,5.3-6.72,7.86l-54.19,31.19c-.96.55-2.15.52-3.2-.09-1.25-.73-2.03-2.12-2.03-3.63v-29.12c0-.16-.09-.25-.17-.29-.08-.04-.2-.08-.34,0l-4.73,2.89c-1.03.63-1.68,1.78-1.68,2.99v30.8c0,1.86-.89,3.59-2.36,4.68l.02.04-53.24,30.58c-1.02.58-2.23.58-3.24,0-1.02-.59-1.62-1.64-1.62-2.81v-29.12c0-.16-.09-.25-.17-.29s-.2-.08-.34,0l-4.73,2.89c-1.03.63-1.68,1.78-1.68,2.99v30.8c0,2.1-1.14,4.04-2.97,5.07l-42.1,23.63c-4.95,2.43-10.08,3.65-15.37,3.65ZM122.85,243.85c8.27,2.39,16.22,1.75,23.62-1.88l42.02-23.59c.89-.5,1.44-1.44,1.44-2.46v-30.8c0-2.25,1.19-4.38,3.11-5.55l4.73-2.89c1.04-.64,2.3-.66,3.37-.06,1.07.6,1.7,1.69,1.7,2.91v29.12c0,.09.04.17.12.21.08.05.16.05.25,0l52.64-30.24h0c.89-.51,1.44-1.45,1.44-2.46v-30.8c0-2.25,1.19-4.38,3.11-5.55l4.73-2.89c1.04-.64,2.3-.66,3.37-.06,1.07.6,1.7,1.69,1.7,2.91v29.12c0,.53.28.83.4.93.17.14.31.18.36.17l54.17-31.17c3.3-1.91,5.2-3.83,5.22-5.28l.2-37.04-182.9,105.38c-8.02,4.62-19.93,7.1-28.45,2.22L11.04,142.1l.07,35.46c0,1.04,1.29,2.46,3.29,3.61l108.45,62.67Z"/>
  </g>
</svg>
