<svg width="32" height="50" viewBox="0 0 32 50" fill="none" xmlns="http://www.w3.org/2000/svg">
<g clip-path="url(#clip0_2645_1196)">
<path d="M31.0597 50H1.1683C0.484417 50 0.0284951 49.5645 0 48.8676V46.4286C0.0569902 45.18 0.940339 44.2218 2.05165 43.6992L4.27427 9.69803C4.30276 9.08827 4.81567 8.7108 5.32858 8.7108H6.4114V4.76191C6.3829 2.11963 8.40606 0 10.9991 0H21.0864C23.5939 0 25.5601 2.11963 25.5601 4.64576V8.68177H26.6714C27.1273 8.68177 27.6687 9.05923 27.6972 9.63995L29.8059 43.6411C31.0882 44.1057 32 45.2381 32 46.6028V48.8676C32 49.3322 31.6866 49.971 31.0597 49.971V50ZM23.4515 8.7108V4.64576C23.423 3.25203 22.3687 2.20674 21.0009 2.20674H11.0276C9.65984 2.20674 8.54853 3.25203 8.54853 4.64576V8.7108H23.4515ZM27.6687 43.4669L25.6741 10.8885H6.35441L4.21728 43.4669H27.6687ZM29.8344 47.8513C29.9199 47.3868 29.8914 47.0964 29.8629 46.7189C29.8629 46.1382 29.4069 45.6736 28.7801 45.6736H3.21995C2.59305 45.6736 2.16563 46.1382 2.13713 46.7189C2.13713 47.1254 2.08014 47.4739 2.16563 47.8513H29.8059H29.8344Z" fill="black"/>
<path d="M19.2058 18.5518C19.2058 19.1906 18.6644 19.568 18.18 19.568C17.6956 19.568 17.0972 19.1615 17.0972 18.5518V16.1708C17.0972 15.6191 17.6101 15.2417 18.066 15.2126C18.6074 15.1836 19.1773 15.532 19.1773 16.1127V18.5227L19.2058 18.5518Z" fill="black"/>
<path d="M12.7944 25.083C12.7944 25.7218 12.253 26.0993 11.7686 26.0993C11.2842 26.0993 10.6858 25.6928 10.6858 25.083V22.7021C10.6858 22.1504 11.1987 21.7729 11.6546 21.7439C12.196 21.7148 12.7659 22.0633 12.7659 22.644V25.054L12.7944 25.083Z" fill="black"/>
<path d="M19.2058 31.5908C19.2058 32.2296 18.6644 32.6071 18.18 32.6071C17.6956 32.6071 17.0972 32.2006 17.0972 31.5908V29.2099C17.0972 28.6582 17.6101 28.2807 18.066 28.2517C18.6074 28.2226 19.1773 28.5711 19.1773 29.1518V31.5618L19.2058 31.5908Z" fill="black"/>
<path d="M12.7944 38.1221C12.7944 38.7609 12.253 39.1383 11.7686 39.1383C11.2842 39.1383 10.6858 38.7318 10.6858 38.1221V35.7411C10.6858 35.1894 11.1987 34.812 11.6546 34.7829C12.196 34.7539 12.7659 35.1023 12.7659 35.6831V38.093L12.7944 38.1221Z" fill="black"/>
<path d="M25.5886 38.1221C25.5886 38.7609 25.0472 39.1383 24.5628 39.1383C24.0784 39.1383 23.48 38.7318 23.48 38.1221V35.7411C23.48 35.1894 23.9929 34.812 24.4488 34.7829C24.9902 34.7539 25.5601 35.1023 25.5601 35.6831V38.093L25.5886 38.1221Z" fill="black"/>
<path d="M14.9314 18.4942C14.9314 19.133 14.4755 19.5686 13.9341 19.5976C13.3927 19.6266 12.8228 19.2492 12.8228 18.6104V16.2584C12.8228 15.6487 13.3357 15.2422 13.8486 15.2422C14.4185 15.2422 14.9314 15.6487 14.9314 16.2875V18.4942Z" fill="black"/>
<path d="M21.3428 24.9942C21.3428 25.633 20.8868 26.0686 20.3454 26.0976C19.804 26.1266 19.2341 25.7492 19.2341 25.1104V22.7584C19.2341 22.1487 19.747 21.7422 20.26 21.7422C20.8299 21.7422 21.3428 22.1487 21.3428 22.7875V24.9942Z" fill="black"/>
<path d="M14.9314 31.5333C14.9314 32.1721 14.4755 32.6076 13.9341 32.6367C13.3927 32.6657 12.8228 32.2882 12.8228 31.6494V29.2975C12.8228 28.6878 13.3357 28.2812 13.8486 28.2812C14.4185 28.2812 14.9314 28.6878 14.9314 29.3265V31.5333Z" fill="black"/>
<path d="M8.54858 38.0333C8.54858 38.6721 8.09266 39.1076 7.55125 39.1367C7.00984 39.1657 6.43994 38.7882 6.43994 38.1494V35.7975C6.43994 35.1878 6.95285 34.7812 7.46576 34.7812C8.03567 34.7812 8.54858 35.1878 8.54858 35.8265V38.0333Z" fill="black"/>
<path d="M21.3428 38.0333C21.3428 38.6721 20.8868 39.1076 20.3454 39.1367C19.804 39.1657 19.2341 38.7882 19.2341 38.1494V35.7975C19.2341 35.1878 19.747 34.7812 20.26 34.7812C20.8299 34.7812 21.3428 35.1878 21.3428 35.8265V38.0333Z" fill="black"/>
<path d="M10.6572 18.5545C10.6572 19.1933 10.1442 19.5708 9.63133 19.5998C9.08992 19.5998 8.54851 19.2223 8.52002 18.6126V16.2897C8.52002 15.6799 9.00444 15.3025 9.51735 15.2734C10.0872 15.2734 10.6287 15.6509 10.6287 16.2897V18.5835L10.6572 18.5545Z" fill="black"/>
<path d="M23.4516 18.5545C23.4516 19.1933 22.9387 19.5708 22.4258 19.5998C21.8844 19.5998 21.3429 19.2223 21.3145 18.6126V16.2897C21.3145 15.6799 21.7989 15.3025 22.3118 15.2734C22.8817 15.2734 23.4231 15.6509 23.4231 16.2897V18.5835L23.4516 18.5545Z" fill="black"/>
<path d="M17.0685 25.0545C17.0685 25.6933 16.5556 26.0708 16.0427 26.0998C15.5013 26.0998 14.9599 25.7223 14.9314 25.1126V22.7897C14.9314 22.1799 15.4158 21.8025 15.9287 21.7734C16.4986 21.7734 17.04 22.1509 17.04 22.7897V25.0835L17.0685 25.0545Z" fill="black"/>
<path d="M10.6572 31.5858C10.6572 32.2245 10.1442 32.602 9.63133 32.6311C9.08992 32.6311 8.54851 32.2536 8.52002 31.6438V29.3209C8.52002 28.7112 9.00444 28.3337 9.51735 28.3047C10.0872 28.3047 10.6287 28.6822 10.6287 29.3209V31.6148L10.6572 31.5858Z" fill="black"/>
<path d="M23.4516 31.5858C23.4516 32.2245 22.9387 32.602 22.4258 32.6311C21.8844 32.6311 21.3429 32.2536 21.3145 31.6438V29.3209C21.3145 28.7112 21.7989 28.3337 22.3118 28.3047C22.8817 28.3047 23.4231 28.6822 23.4231 29.3209V31.6148L23.4516 31.5858Z" fill="black"/>
<path d="M17.0685 38.1248C17.0685 38.7636 16.5556 39.1411 16.0427 39.1701C15.5013 39.1701 14.9599 38.7926 14.9314 38.1829V35.86C14.9314 35.2503 15.4158 34.8728 15.9287 34.8438C16.4986 34.8438 17.04 35.2212 17.04 35.86V38.1539L17.0685 38.1248Z" fill="black"/>
</g>
<defs>
<clipPath id="clip0_2645_1196">
<rect width="32" height="50" fill="white"/>
</clipPath>
</defs>
</svg>
