<svg width="31" height="25" viewBox="0 0 31 25" fill="none" xmlns="http://www.w3.org/2000/svg">
<path d="M7.94972 17.3363C8.37198 17.2407 8.60199 17.5889 8.4391 17.9663L6.30543 20.0865C5.91253 20.3418 5.4637 19.8834 5.71818 19.5004L7.77355 17.4431C7.82388 17.3949 7.88051 17.3517 7.95042 17.3356L7.94972 17.3363Z" fill="black"/>
<path d="M5.96358 16.9082C6.30894 16.8377 6.58649 17.1607 6.45296 17.4935C6.41521 17.587 5.98596 18.03 5.89927 18.0747C5.50707 18.2756 5.09949 17.9442 5.27916 17.5507C5.3302 17.4384 5.85033 16.9312 5.96358 16.9082Z" fill="black"/>
<path d="M9.6542 13.2768L14.5165 13.2656C15.0918 13.3054 15.1296 14.0198 14.5647 14.1168H9.68916C9.17881 14.0568 9.13896 13.3696 9.6542 13.2768Z" fill="black"/>
<path d="M23.3414 0C23.7791 0.181389 24.0678 0.451381 24.2405 0.89718V1.51111C24.0258 2.08319 23.5938 2.43969 22.9653 2.45783L21.6244 10.9182L21.3063 11.6633H23.2226C23.2408 11.6633 23.5183 11.7743 23.5623 11.7966C23.9105 11.9703 24.0902 12.2647 24.2398 12.608V13.2219C24.03 13.757 23.5637 14.1581 22.9618 14.1191L21.5958 22.6953C21.4028 23.4753 20.6708 24.1087 19.8648 24.1785L4.34324 24.1764C3.23516 24.0229 2.59128 23.0951 2.52906 22.0207L1.29094 14.1191C0.0640134 14.1735 -0.507155 12.504 0.565971 11.8615C0.649864 11.8112 0.956073 11.664 1.03018 11.664H2.94642L2.62833 10.9189L1.28535 2.46131C-0.193956 2.36643 -0.489677 0.506495 0.912029 0.000697601H23.3407L23.3414 0ZM1.23222 0.814159C0.721173 0.87625 0.716978 1.52507 1.22383 1.60251C3.08275 1.73436 5.16259 1.43716 6.99564 1.6032C7.38504 1.63878 7.72901 1.85436 7.92545 2.18644C8.16804 2.59666 8.0436 2.90014 8.1988 3.28315C8.37008 3.70732 8.81541 3.97592 9.26354 4.01499C11.1267 4.17544 13.2324 3.90127 15.1199 4.00103C16.4475 3.80988 15.8638 2.50806 16.5587 1.89552C16.7363 1.73925 17.0229 1.62483 17.2592 1.6032C19.0769 1.43786 21.1427 1.73087 22.9863 1.6053C23.6567 1.53065 23.4652 0.762533 22.8458 0.800904L1.23152 0.814159H1.23222ZM7.30115 3.21059C7.23963 3.04944 7.28507 2.81781 7.24453 2.67689C7.23264 2.63503 7.05577 2.45504 7.04108 2.45504H2.14385L3.49173 10.861C3.63504 11.2636 3.95034 11.544 4.36561 11.6417L19.7243 11.6647C20.2989 11.6124 20.6925 11.2245 20.8121 10.6727L22.1117 2.45504H17.2145C17.1991 2.45504 17.0229 2.63503 17.011 2.67689C16.9705 2.81781 17.0159 3.04944 16.9544 3.21059H20.0067C20.494 3.21059 21.0826 3.97313 21.0281 4.46148C20.6226 6.20701 20.5918 8.24415 20.1416 9.95549C19.9913 10.5269 19.5523 10.8582 18.9671 10.9085H5.33597C4.80884 10.8987 4.30968 10.5701 4.14469 10.0671L3.23236 4.50613C3.14917 4.00313 3.7504 3.2099 4.25026 3.2099H7.30255L7.30115 3.21059ZM4.35372 4.0708C4.17755 4.12103 4.06919 4.27521 4.08177 4.45939C4.44531 6.1184 4.51871 7.95462 4.90182 9.5948C4.94517 9.77968 4.96474 9.95967 5.16888 10.0364L18.9196 10.0601C19.0895 10.0671 19.2377 9.98479 19.2957 9.82154L20.1731 4.46009C20.1864 4.29195 20.092 4.14475 19.9375 4.08266L16.6 4.06243C16.1875 4.47892 15.7051 4.80194 15.0843 4.86333C13.1841 4.76356 11.1462 4.99798 9.26284 4.86612C8.60149 4.82007 8.09044 4.51939 7.6563 4.06103L4.35372 4.07149V4.0708ZM1.13574 12.5228C0.717677 12.6735 0.74704 13.1577 1.17559 13.2658H6.89986C7.48222 13.2993 7.99326 13.7151 8.09254 14.2956C8.12749 14.5 8.09464 14.6639 8.16525 14.8844C8.30367 15.3162 8.71894 15.6386 9.16707 15.6783C11.084 15.8499 13.2694 15.5548 15.2143 15.6651C16.6014 15.3665 15.6897 13.8198 16.9264 13.36C17.0551 13.3119 17.2152 13.2777 17.3529 13.2658L23.1974 13.2428C23.4959 13.0314 23.4938 12.6973 23.1534 12.5333L1.13434 12.5221L1.13574 12.5228ZM7.30115 14.8739C7.27039 14.6877 7.2599 14.1184 6.99355 14.1184H2.14315L3.49173 22.5237C3.58261 22.8955 3.94055 23.2234 4.30828 23.3141C9.50893 23.4125 14.7459 23.4125 19.9466 23.3141C20.4045 23.192 20.7373 22.7986 20.8121 22.336L22.1117 14.1184H17.2613C16.9949 14.1184 16.9845 14.6877 16.9537 14.8739H19.9109C19.9501 14.8739 20.2675 14.9918 20.3311 15.0218C20.7722 15.229 21.0211 15.6909 21.026 16.173C20.6086 17.8927 20.5995 19.9452 20.1486 21.6279C20.0074 22.1539 19.6166 22.5223 19.0608 22.5732H5.24019C4.6858 22.5509 4.26354 22.1853 4.11603 21.6642C3.64833 20.0086 3.66371 17.9178 3.23096 16.219C3.20859 15.7432 3.46167 15.25 3.89162 15.0379C3.96362 15.0023 4.2922 14.8746 4.34254 14.8746H7.29975L7.30115 14.8739ZM4.40126 15.7334C4.216 15.7969 4.06779 15.9658 4.08177 16.1695L4.93818 21.4577C4.96404 21.57 5.06122 21.653 5.15769 21.7109L19.0147 21.7235C19.1489 21.7207 19.2468 21.6049 19.3076 21.496L20.1731 16.1702C20.1892 15.9783 20.0542 15.8227 19.8899 15.7453L16.6475 15.7251C16.1889 16.1109 15.8135 16.4695 15.1787 16.526C13.2163 16.4241 11.1134 16.6641 9.16776 16.5288C8.47075 16.4799 8.10652 16.1583 7.60736 15.7251L4.40056 15.7341L4.40126 15.7334Z" fill="black"/>
<path d="M8.37437 5.72507C8.56243 5.89669 8.5044 6.18622 8.36668 6.37179C8.16953 6.6376 6.59934 8.21499 6.35255 8.37545C5.90373 8.66707 5.43812 8.21708 5.76251 7.78663C6.29662 7.07712 7.28865 6.39621 7.87101 5.68879C8.00524 5.5681 8.25202 5.61345 8.37437 5.72507Z" fill="black"/>
<path d="M5.91627 5.25568C6.38747 5.1322 6.64474 5.56823 6.35391 5.97566C6.15537 6.25332 5.72891 6.63913 5.39055 6.37053C4.98926 6.0524 5.60447 5.33731 5.91557 5.25568H5.91627Z" fill="black"/>
<path d="M9.65425 1.62835L14.5165 1.61719C15.0919 1.65695 15.1296 2.37135 14.5648 2.46832H9.68921C9.17886 2.40832 9.13901 1.72114 9.65425 1.62835Z" fill="black"/>
<path d="M30.9999 2.74219H29.5538V3.12122H30.9999V2.74219Z" fill="black"/>
<path d="M30.9995 4.375H29.554V4.74962H30.9995V4.375Z" fill="black"/>
<path d="M30.9995 1.11719H29.554V1.49126H30.9995V1.11719Z" fill="black"/>
<path d="M30.3935 1.92969H29.5538V2.30431H30.3935V1.92969Z" fill="black"/>
<path d="M30.3935 3.5625H29.5538V3.94264H30.3935V3.5625Z" fill="black"/>
<path d="M28.8457 5.2461C29.871 5.84832 30.0812 7.2155 29.3306 8.10047C28.5748 8.99206 27.2076 8.99096 26.4512 8.10102C25.6948 7.21108 25.9116 5.84611 26.9351 5.24748L26.9334 0.972972C26.9334 0.425934 27.3624 0 27.8918 0C28.4192 0 28.8484 0.425934 28.8482 0.973524L28.8457 5.2461ZM28.4719 5.4759V0.95311C28.4719 0.620694 28.1993 0.375727 27.8918 0.375451C27.5842 0.375175 27.3102 0.621246 27.3102 0.952282L27.3091 5.47921C26.6269 5.76363 26.2625 6.48363 26.4093 7.18874C26.5555 7.89081 27.1831 8.39647 27.8942 8.39454C28.614 8.39261 29.233 7.87702 29.3739 7.18101C29.5193 6.46404 29.1414 5.76142 28.4716 5.47562L28.4719 5.4759Z" fill="black"/>
<path d="M28.1313 5.69192C28.758 5.83344 29.1569 6.39785 29.0874 7.01551C29.0195 7.62104 28.5012 8.08394 27.8913 8.08476C27.2811 8.08559 26.763 7.62076 26.6943 7.01689C26.624 6.39979 27.0259 5.8293 27.6499 5.69413L27.6491 1.53906L28.1335 1.54072L28.1313 5.69192ZM27.3685 6.85579C27.3754 6.60006 27.5486 6.41275 27.7798 6.35482C27.9084 6.32254 27.9759 6.19151 27.9484 6.07206C27.9208 5.95261 27.8085 5.86351 27.6753 5.89109C27.2071 5.98847 26.8758 6.40558 26.8918 6.88531C26.8965 7.02324 27.0273 7.11207 27.147 7.10214C27.2667 7.0922 27.3649 6.99841 27.3685 6.85551V6.85579Z" fill="black"/>
</svg>
