<svg width="57" height="33" viewBox="0 0 57 33" fill="none" xmlns="http://www.w3.org/2000/svg">
<g clip-path="url(#clip0_812_7438)">
<path d="M54.0852 3.6583L50.0532 3.58008H3.30048C2.976 3.61804 2.59242 3.76297 2.31924 3.94357C1.97023 4.17478 0.476069 6.10842 0.260865 6.52713C-0.502941 8.01101 0.506175 9.42932 2.00926 9.5662C2.46085 17.5826 6.55864 25.4448 13.027 29.9436C14.2859 30.819 16.0165 31.9474 17.5441 32.0579C24.6815 32.5709 32.3909 31.6599 39.5885 32.0579C40.9779 31.9451 42.7028 30.8317 43.8591 30.0345C50.3398 25.5691 54.5056 17.67 55.052 9.66513C55.1902 9.37755 55.5526 9.47993 55.7767 9.37985C56.4246 9.08768 56.6799 8.68623 57.0011 8.05932V7.14138C56.5852 6.24761 55.8325 5.11802 55.1657 4.38528C54.8457 4.03444 54.548 3.79518 54.0863 3.66175L54.0852 3.6583ZM43.4577 27.8973C42.3271 28.7381 40.5252 29.9919 39.1425 30.1035L27.3186 30.1001V30.1035C27.3186 30.1035 25.4955 30.0989 17.6009 30.1035C17.4738 30.0598 17.35 30.0138 17.2252 29.9689C16.8215 29.8516 16.4234 29.6871 16.0365 29.4904C6.86416 25.4195 4.62404 15.4338 4.08436 11.2882C4.06651 11.264 4.05202 11.2353 4.04198 11.1996C3.95501 10.912 3.95389 10.3519 3.94163 9.89288C3.92044 9.59841 3.91598 9.43507 3.91598 9.43507H53.1051C52.7316 16.5473 49.0552 23.7309 43.4577 27.8973ZM2.02375 7.48302L3.4722 5.59079L53.3894 5.52407L53.715 5.64715L54.9962 7.48187H2.02375V7.48302Z" fill="#040404"/>
<path d="M14.4085 3.57971L15.4288 2.29598L15.8413 2.03257C24.1841 1.86347 32.5559 1.99231 40.9087 1.967C41.4116 2.04062 41.5955 2.29483 41.9222 2.64337C42.191 2.9298 42.4541 3.24728 42.715 3.57971H45.1871L42.9827 0.860419C42.5522 0.445163 42.0338 0.134584 41.4461 0.0345088L15.9852 0C15.6384 0.00115029 15.286 0.0816708 14.966 0.211654C14.1253 0.553291 12.9199 2.16025 11.8584 3.57971H14.4085Z" fill="#040404"/>
</g>
<defs>
<clipPath id="clip0_812_7438">
<rect width="57" height="32.2174" fill="white"/>
</clipPath>
</defs>
</svg>
