<svg width="55" height="40" viewBox="0 0 55 40" fill="none" xmlns="http://www.w3.org/2000/svg">
<g clip-path="url(#clip0_812_7553)">
<path d="M54.1422 17.4944C53.3872 20.5458 51.0785 21.7683 47.9947 21.0928C47.6457 21.017 46.9779 20.6545 46.7196 20.7237C46.5182 20.7764 45.5786 22.0978 45.3236 22.3713C42.2398 25.6896 38.4782 28.1611 34.0722 29.4759C33.7031 29.5846 32.0421 29.8746 31.9616 29.9438C31.7904 30.0954 32.0421 30.1349 32.0958 30.1811C33.7367 31.5717 34.881 32.7942 35.3105 35.0053C35.5957 36.4783 35.6662 37.4438 34.1796 38.1885C31.5421 39.5066 21.992 39.7439 19.7639 37.7239C18.7975 36.8474 19.4351 34.4715 19.9015 33.4005C20.5055 32.0198 21.5525 31.028 22.6665 30.0493C16.6063 29.0343 11.1333 25.5315 7.49244 20.7237C7.27432 20.6512 6.53609 21.0236 6.21059 21.0961C3.53281 21.7057 0.868456 20.7336 0.217468 17.9162C-0.124805 16.4333 -0.0778264 10.8017 0.408737 9.38476C0.566451 8.92671 0.881879 8.45549 1.27784 8.16222C1.54629 7.9645 2.7476 7.48999 2.79122 7.42079C2.87511 7.28898 2.78116 6.508 2.808 6.24438C3.12343 3.31491 9.56621 1.82545 11.9755 1.34764C21.378 -0.517469 36.5319 -0.632803 45.6927 2.19782C48.1356 2.95243 51.7999 4.31666 51.4141 7.41749C52.5214 7.87553 53.4341 8.24789 53.82 9.46055L54.1422 11.1675V17.4944ZM25.8141 1.865C21.1028 1.92761 9.24742 2.69869 5.52269 5.38103C4.45561 6.14882 4.36836 6.77821 5.45894 7.58555C7.78773 9.31555 14.3782 10.314 17.3479 10.6402C22.9786 11.2565 29.012 11.3191 34.6561 10.861C37.7836 10.6073 47.0518 9.4243 49.1322 7.23625C50.3101 5.99724 48.1121 5.03832 47.1424 4.61982C41.619 2.25384 31.8676 1.78921 25.8174 1.86829L25.8141 1.865ZM49.2832 9.30237C46.7766 10.6435 43.9579 11.3454 41.1526 11.8463C35.2769 12.8942 29.1965 13.059 23.247 12.8316C17.3311 12.6042 10.4152 12.0638 5.09988 9.38805C5.01264 9.34521 4.87841 9.21011 4.81466 9.35839C5.49585 14.4693 8.13336 19.656 12.103 23.0502C12.2205 23.1523 12.8581 23.7059 12.9118 23.7158C13.103 23.7487 13.2406 23.3665 13.5325 23.3105C14.1265 23.1984 14.6835 23.4719 14.7439 24.098C14.7808 24.4803 14.4419 24.6483 14.6298 24.9219C14.8043 25.1756 16.9955 26.3487 17.3848 26.4805C17.717 26.5925 17.6096 26.1378 18.0962 26.0291C19.5726 25.7028 19.1565 27.1824 19.2975 27.3472C19.3914 27.4526 21.6867 28.0029 22.0323 28.082C21.9853 26.1773 24.5389 26.6914 23.7235 28.3918C23.8141 28.517 26.4416 28.6883 26.8342 28.7081C26.9483 28.7147 27.3342 28.7773 27.314 28.5994C26.398 28.3456 26.4584 27.1461 27.3375 26.899C28.0556 26.6947 28.6563 27.3834 28.4315 28.082C28.3274 28.4049 28.0791 28.3753 27.9516 28.5961C29.0892 28.662 30.2066 28.4115 31.3307 28.2863C30.7368 26.7375 32.985 26.2301 33.0219 27.8711C34.0622 27.5383 35.1695 27.2681 36.1393 26.7309C36.2031 26.642 35.9279 26.4311 35.8641 26.2696C35.3541 25.0009 37.5856 24.5165 37.6695 26.006C37.7567 26.0818 39.5721 24.9713 39.6291 24.8658C39.7231 24.6912 39.4312 24.421 39.4647 24.098C39.5251 23.4752 40.0821 23.1984 40.6761 23.3105C41.2398 23.4192 40.8774 24.0124 41.6828 23.3599C43.6055 21.8144 45.5082 19.432 46.6994 17.2934C48.0517 14.8648 49.0383 12.0737 49.2832 9.30567V9.30237ZM47.8068 19.1519C49.2765 19.6923 51.3134 19.6725 52.008 18.0414C52.612 16.6244 52.3402 13.8202 52.2429 12.2549C52.1791 11.2235 52.4644 9.767 51.2362 9.30237C50.7631 12.825 49.5383 16.0675 47.8034 19.1552L47.8068 19.1519ZM3.02276 9.40453C1.74763 9.51327 2.02279 11.352 1.96574 12.2549C1.87178 13.7839 1.64696 16.1137 2.03957 17.5767C2.58317 19.6099 4.64017 19.7747 6.40186 19.1519C4.65694 16.1598 3.32141 12.881 3.02276 9.40453ZM21.1028 36.4585C24.0591 37.5262 27.7301 37.625 30.8408 37.1868C31.2535 37.1275 33.334 36.7221 33.5018 36.4783C34.0286 35.7072 32.6964 33.2918 32.126 32.636C28.3878 28.339 21.2236 30.8698 21.1062 36.4585H21.1028Z" fill="#030303"/>
<path d="M8.31195 14.288C8.82901 14.288 9.24816 13.8764 9.24816 13.3686C9.24816 12.8608 8.82901 12.4492 8.31195 12.4492C7.79489 12.4492 7.37573 12.8608 7.37573 13.3686C7.37573 13.8764 7.79489 14.288 8.31195 14.288Z" fill="#030303"/>
<path d="M45.8948 14.2814C46.41 14.2814 46.8276 13.8712 46.8276 13.3653C46.8276 12.8594 46.41 12.4492 45.8948 12.4492C45.3796 12.4492 44.9619 12.8594 44.9619 13.3653C44.9619 13.8712 45.3796 14.2814 45.8948 14.2814Z" fill="#030303"/>
<path d="M16.5666 23.2843C17.0819 23.2843 17.4995 22.8742 17.4995 22.3682C17.4995 21.8623 17.0819 21.4521 16.5666 21.4521C16.0514 21.4521 15.6338 21.8623 15.6338 22.3682C15.6338 22.8742 16.0514 23.2843 16.5666 23.2843Z" fill="#030303"/>
<path d="M37.6433 23.2814C38.1585 23.2814 38.5762 22.8712 38.5762 22.3653C38.5762 21.8594 38.1585 21.4492 37.6433 21.4492C37.1281 21.4492 36.7104 21.8594 36.7104 22.3653C36.7104 22.8712 37.1281 23.2814 37.6433 23.2814Z" fill="#030303"/>
<path d="M20.2344 19.6827C20.7496 19.6827 21.1672 19.2726 21.1672 18.7667C21.1672 18.2607 20.7496 17.8506 20.2344 17.8506C19.7192 17.8506 19.3015 18.2607 19.3015 18.7667C19.3015 19.2726 19.7192 19.6827 20.2344 19.6827Z" fill="#030303"/>
<path d="M33.9756 19.6827C34.4908 19.6827 34.9084 19.2726 34.9084 18.7667C34.9084 18.2607 34.4908 17.8506 33.9756 17.8506C33.4604 17.8506 33.0427 18.2607 33.0427 18.7667C33.0427 19.2726 33.4604 19.6827 33.9756 19.6827Z" fill="#030303"/>
<path d="M25.7276 25.0765C26.241 25.0765 26.6571 24.6679 26.6571 24.1638C26.6571 23.6596 26.241 23.251 25.7276 23.251C25.2142 23.251 24.7981 23.6596 24.7981 24.1638C24.7981 24.6679 25.2142 25.0765 25.7276 25.0765Z" fill="#030303"/>
<path d="M24.8182 20.5719C25.3297 20.5719 25.7444 20.1647 25.7444 19.6624C25.7444 19.1601 25.3297 18.7529 24.8182 18.7529C24.3067 18.7529 23.8921 19.1601 23.8921 19.6624C23.8921 20.1647 24.3067 20.5719 24.8182 20.5719Z" fill="#030303"/>
<path d="M29.3917 20.5719C29.9032 20.5719 30.3179 20.1647 30.3179 19.6624C30.3179 19.1601 29.9032 18.7529 29.3917 18.7529C28.8802 18.7529 28.4656 19.1601 28.4656 19.6624C28.4656 20.1647 28.8802 20.5719 29.3917 20.5719Z" fill="#030303"/>
<path d="M33.9789 24.1735C34.4904 24.1735 34.905 23.7663 34.905 23.264C34.905 22.7617 34.4904 22.3545 33.9789 22.3545C33.4674 22.3545 33.0527 22.7617 33.0527 23.264C33.0527 23.7663 33.4674 24.1735 33.9789 24.1735Z" fill="#030303"/>
<path d="M33.9789 16.0712C34.4886 16.0712 34.9017 15.6655 34.9017 15.165C34.9017 14.6645 34.4886 14.2588 33.9789 14.2588C33.4693 14.2588 33.0562 14.6645 33.0562 15.165C33.0562 15.6655 33.4693 16.0712 33.9789 16.0712Z" fill="#030303"/>
<path d="M12.8957 20.5722C13.4053 20.5722 13.8185 20.1664 13.8185 19.666C13.8185 19.1655 13.4053 18.7598 12.8957 18.7598C12.386 18.7598 11.9729 19.1655 11.9729 19.666C11.9729 20.1664 12.386 20.5722 12.8957 20.5722Z" fill="#030303"/>
<path d="M41.3144 20.5692C41.824 20.5692 42.2372 20.1635 42.2372 19.663C42.2372 19.1626 41.824 18.7568 41.3144 18.7568C40.8048 18.7568 40.3916 19.1626 40.3916 19.663C40.3916 20.1635 40.8048 20.5692 41.3144 20.5692Z" fill="#030303"/>
<path d="M21.1437 24.1639C21.6534 24.1639 22.0665 23.7582 22.0665 23.2578C22.0665 22.7573 21.6534 22.3516 21.1437 22.3516C20.6341 22.3516 20.2209 22.7573 20.2209 23.2578C20.2209 23.7582 20.6341 24.1639 21.1437 24.1639Z" fill="#030303"/>
<path d="M20.231 16.0646C20.7388 16.0646 21.1504 15.6603 21.1504 15.1617C21.1504 14.663 20.7388 14.2588 20.231 14.2588C19.7232 14.2588 19.3115 14.663 19.3115 15.1617C19.3115 15.6603 19.7232 16.0646 20.231 16.0646Z" fill="#030303"/>
<path d="M24.8281 16.0712C25.3377 16.0712 25.7509 15.6655 25.7509 15.165C25.7509 14.6645 25.3377 14.2588 24.8281 14.2588C24.3184 14.2588 23.9053 14.6645 23.9053 15.165C23.9053 15.6655 24.3184 16.0712 24.8281 16.0712Z" fill="#030303"/>
<path d="M29.3852 16.0712C29.8948 16.0712 30.308 15.6655 30.308 15.165C30.308 14.6645 29.8948 14.2588 29.3852 14.2588C28.8756 14.2588 28.4624 14.6645 28.4624 15.165C28.4624 15.6655 28.8756 16.0712 29.3852 16.0712Z" fill="#030303"/>
<path d="M38.5662 17.8702C39.074 17.8702 39.4856 17.466 39.4856 16.9674C39.4856 16.4687 39.074 16.0645 38.5662 16.0645C38.0584 16.0645 37.6467 16.4687 37.6467 16.9674C37.6467 17.466 38.0584 17.8702 38.5662 17.8702Z" fill="#030303"/>
<path d="M15.6438 17.8702C16.1516 17.8702 16.5632 17.466 16.5632 16.9674C16.5632 16.4687 16.1516 16.0645 15.6438 16.0645C15.136 16.0645 14.7244 16.4687 14.7244 16.9674C14.7244 17.466 15.136 17.8702 15.6438 17.8702Z" fill="#030303"/>
<path d="M30.3113 25.0704C30.8191 25.0704 31.2307 24.6662 31.2307 24.1675C31.2307 23.6689 30.8191 23.2646 30.3113 23.2646C29.8035 23.2646 29.3918 23.6689 29.3918 24.1675C29.3918 24.6662 29.8035 25.0704 30.3113 25.0704Z" fill="#030303"/>
<path d="M38.5593 14.2745C39.0671 14.2745 39.4788 13.8703 39.4788 13.3716C39.4788 12.873 39.0671 12.4688 38.5593 12.4688C38.0515 12.4688 37.6399 12.873 37.6399 13.3716C37.6399 13.8703 38.0515 14.2745 38.5593 14.2745Z" fill="#030303"/>
<path d="M11.9761 16.0704C12.4839 16.0704 12.8955 15.6662 12.8955 15.1675C12.8955 14.6689 12.4839 14.2646 11.9761 14.2646C11.4683 14.2646 11.0566 14.6689 11.0566 15.1675C11.0566 15.6662 11.4683 16.0704 11.9761 16.0704Z" fill="#030303"/>
<path d="M42.2336 16.0704C42.7414 16.0704 43.1531 15.6662 43.1531 15.1675C43.1531 14.6689 42.7414 14.2646 42.2336 14.2646C41.7259 14.2646 41.3142 14.6689 41.3142 15.1675C41.3142 15.6662 41.7259 16.0704 42.2336 16.0704Z" fill="#030303"/>
<path d="M15.6439 14.265C16.1498 14.265 16.5599 13.8623 16.5599 13.3654C16.5599 12.8686 16.1498 12.4658 15.6439 12.4658C15.1379 12.4658 14.7278 12.8686 14.7278 13.3654C14.7278 13.8623 15.1379 14.265 15.6439 14.265Z" fill="#030303"/>
<path d="M44.9854 18.7631C45.4914 18.7631 45.9015 18.3603 45.9015 17.8635C45.9015 17.3666 45.4914 16.9639 44.9854 16.9639C44.4795 16.9639 44.0693 17.3666 44.0693 17.8635C44.0693 18.3603 44.4795 18.7631 44.9854 18.7631Z" fill="#030303"/>
<path d="M9.22785 18.7631C9.73379 18.7631 10.1439 18.3603 10.1439 17.8635C10.1439 17.3666 9.73379 16.9639 9.22785 16.9639C8.72191 16.9639 8.31177 17.3666 8.31177 17.8635C8.31177 18.3603 8.72191 18.7631 9.22785 18.7631Z" fill="#030303"/>
</g>
<defs>
<clipPath id="clip0_812_7553">
<rect width="54.1428" height="39.2069" fill="white"/>
</clipPath>
</defs>
</svg>
