<svg width="53" height="37" viewBox="0 0 53 37" fill="none" xmlns="http://www.w3.org/2000/svg">
<path d="M0.00141945 2.97233C0.530358 1.25155 1.8052 0.174649 3.62174 0.0232314C17.3387 0.103893 31.0826 -0.147997 44.7825 0.150592C48.6538 0.682676 51.9508 4.07754 52.2075 8.00307C52.5322 12.98 51.9763 18.3306 52.1763 23.3443C51.1581 27.4666 45.5029 26.9982 45.1639 22.6623C44.8066 18.0815 45.4447 13.0494 45.1611 8.42053C44.886 7.32523 43.9628 7.02522 42.9248 7.04079L40.361 32.0048C39.8817 34.8605 37.8878 36.471 35.0262 36.6521C28.3159 36.3167 21.1916 37.0851 14.5295 36.6464C11.5558 36.4511 9.47125 34.6016 9.17771 31.61L6.95987 10.0154C6.87337 9.82857 6.66915 9.75498 6.516 9.6446C5.01569 8.57195 1.65913 7.27004 0.669322 5.91436C0.357348 5.48699 0.214128 4.97048 0 4.49641V2.97092L0.00141945 2.97233ZM41.5989 1.85298H3.51823C2.99921 1.85298 2.16398 2.44732 1.96403 2.94828C1.54712 3.99688 1.91013 4.75396 2.76239 5.35397C4.43145 6.53135 6.52876 7.37193 8.21342 8.56345C8.41337 8.75591 8.6828 9.19318 8.74661 9.45498C8.88275 10.0139 8.90969 12.2484 9.09829 12.5116C9.14509 12.5767 10.2271 13.1046 10.4937 13.3069C11.3303 13.9423 11.6763 14.6499 12.8987 14.773C15.1307 14.9966 15.2499 13.8121 16.7544 12.9263C18.3866 11.964 20.8271 11.9173 22.2764 13.2489C22.889 13.8121 22.6862 14.7815 21.8595 14.8735C21.1986 14.947 20.7108 14.2041 20.0103 14.0867C17.221 13.6168 16.6594 16.3381 14.0176 16.6056C11.8238 16.8277 11.1304 16.1173 9.58471 14.9272C9.48261 14.848 9.45564 14.7305 9.27839 14.7758L11.024 31.7034C11.2339 33.4454 12.5924 34.6582 14.3267 34.8181C21.1036 34.4912 28.2989 35.2596 35.0276 34.8252C36.7293 34.7148 38.0538 33.8615 38.4735 32.1591C39.1003 26.6444 39.676 21.1169 40.1709 15.5909C38.241 17.0273 35.7962 16.9678 33.9045 15.4876C32.5162 14.4022 33.0097 14.5055 31.1747 14.0414C30.0247 13.7499 30.1112 12.1479 31.6569 12.2357C34.4845 12.397 35.3112 15.8145 38.3743 14.5607C38.6664 14.4418 40.1369 13.2998 40.3326 13.0564C40.4942 12.8555 40.5184 12.6163 40.568 12.3758L41.5989 1.85581V1.85298ZM43.1276 5.31293C45.0292 5.07661 46.8415 6.50305 47.006 8.41204C47.4045 13.0211 46.6926 18.1877 47.0117 22.8547C47.4995 25.1599 50.5412 24.6816 50.4732 22.358C50.0718 17.7688 51.0461 12.1819 50.3569 7.71297C49.8379 4.34358 46.8273 1.87986 43.4339 1.85156L43.1276 5.31152V5.31293Z" fill="black"/>
<path d="M26.1024 5.31214V7.04142H28.1926C28.2181 7.04142 28.5301 7.29472 28.5812 7.37538C28.9924 8.02492 28.567 8.87399 27.7842 8.87399H26.1024V10.5014H29.008C29.2973 10.5014 29.6348 11.1311 29.6178 11.4297C29.5965 11.792 29.1541 12.3325 28.8052 12.3325H26.1038V13.9599H28.0919C28.394 13.9599 28.7754 14.5939 28.7613 14.925C28.7457 15.2816 28.3273 15.7925 27.9898 15.7925H26.1038V17.4199H28.9073C28.9371 17.4199 29.3668 17.6732 29.4136 17.7284C29.6334 17.9859 29.6362 18.6072 29.4575 18.8859C29.4008 18.9737 28.9555 19.2524 28.9073 19.2524H26.1038V20.8798H27.9898C28.3273 20.8798 28.7457 21.3893 28.7613 21.7473C28.7754 22.0784 28.3926 22.7124 28.0919 22.7124H26.1038V24.3398H28.8052C29.1555 24.3398 29.5979 24.8789 29.6178 25.2426C29.6348 25.5426 29.2973 26.1709 29.008 26.1709H26.1024V27.7983H27.7842C28.567 27.7983 28.9924 28.646 28.5812 29.2969C28.5301 29.3762 28.2181 29.6309 28.1926 29.6309H26.1024V31.3602H29.008C29.0619 31.3602 29.4178 31.6333 29.4717 31.7111C29.7865 32.1753 29.5781 32.8234 29.0888 33.0682C27.8537 32.9762 26.2229 33.2678 25.0374 33.0838C24.6857 33.0286 24.4305 32.7753 24.3752 32.4229L24.3624 4.34137C24.3085 4.03712 24.6446 3.64089 24.9311 3.58712C25.3763 3.50221 28.5585 3.50221 29.0052 3.58712C29.5596 3.69184 29.7752 4.51543 29.4703 4.96403C29.4178 5.04186 29.0619 5.31497 29.0066 5.31497H26.101L26.1024 5.31214Z" fill="black"/>
<path d="M14.4784 31.3599H17.7924C17.8208 31.3599 18.154 31.7009 18.1937 31.7745C18.4192 32.1891 18.2405 32.932 17.7711 33.0679C17.428 33.167 14.5904 33.1471 14.1196 33.092C13.5013 33.0184 12.9582 32.4608 12.7739 31.8905C12.6207 31.4136 12.3697 29.1339 12.4449 28.6683C12.5597 27.9622 13.429 27.6466 13.9636 28.1589C14.4401 28.6159 14.3479 30.6537 14.4784 31.3599Z" fill="black"/>
</svg>
