<svg width="30" height="42" viewBox="0 0 30 42" fill="none" xmlns="http://www.w3.org/2000/svg">
<g clip-path="url(#clip0_289_510)">
<path d="M4.45414 0.0215469L25.3909 0C28.0321 0.3701 28.9557 3.61861 26.8811 5.33476C26.7172 5.47038 26.1912 5.7112 26.1519 5.83161C26.0197 6.22833 26.1404 7.74548 26.3373 8.15614C26.7756 9.07252 27.6179 8.97239 28.3586 9.37671C29.2072 9.8406 29.9276 10.8787 30 11.8521L29.9975 39.242C29.7624 40.6654 28.6 41.8416 27.1504 42.0013H2.85085C1.37588 41.8289 0.174049 40.6299 0 39.1571L0.0038113 11.7684C0.161345 10.6999 0.835945 9.75061 1.81164 9.28418C2.70475 8.85832 3.50385 9.04717 3.90277 7.87096C4.02727 7.5034 4.13653 6.24734 4.02346 5.91906C3.98281 5.80119 3.30694 5.48306 3.11891 5.33476C1.08749 3.72635 1.91962 0.476567 4.45414 0.0215469ZM4.80605 1.4221C2.94359 1.74657 2.97662 4.29291 4.87084 4.54893H25.0415C27.0729 4.37783 27.0971 1.60715 25.0415 1.39928L4.80732 1.42083L4.80605 1.4221ZM24.6464 6.03567H5.43999V7.91659C5.43999 8.47934 4.49352 9.67203 4.01076 9.99016C2.92962 10.7012 1.62234 10.3438 1.41526 12.1258C1.46735 21.1793 1.26408 30.2709 1.51817 39.3028C1.78369 40.1508 2.42907 40.5259 3.28788 40.5995H26.7096C27.8009 40.5057 28.4602 39.8922 28.5911 38.8022V12.2057C28.4005 10.3197 26.9217 10.7164 25.8317 9.79624C25.2854 9.33615 24.6464 8.29049 24.6464 7.56677V6.03567Z" fill="black"/>
<path d="M3.0998 33.6563C3.02358 33.5866 2.97149 33.4509 2.92067 33.3559L2.89526 17.9764C2.90543 17.1501 4.20127 17.0905 4.30544 17.8865L4.3029 33.2038C4.28512 33.821 3.52667 34.0428 3.10107 33.655L3.0998 33.6563Z" fill="black"/>
<path d="M3.49238 13.7584C3.81507 13.7204 4.25718 13.8344 4.30419 14.221C4.32325 14.3769 4.22542 14.5214 4.2305 14.6545C4.23813 14.8813 4.36517 15.0664 4.28386 15.3364C4.10727 15.9207 3.02613 15.9511 2.9029 15.1741C2.80254 14.5442 2.76315 13.8446 3.49238 13.7584Z" fill="black"/>
</g>
<defs>
<clipPath id="clip0_289_510">
<rect width="30" height="42" fill="white"/>
</clipPath>
</defs>
</svg>
