<svg width="46" height="47" viewBox="0 0 46 47" fill="none" xmlns="http://www.w3.org/2000/svg">
<path d="M40.9458 8.65858C40.9458 12.1759 38.0885 15.0256 34.5654 15.0256C31.0423 15.0256 28.1851 12.1744 28.1851 8.65858C28.1851 5.14277 31.0423 2.2915 34.5654 2.2915C38.0885 2.2915 40.9458 5.14277 40.9458 8.65858ZM39.5134 8.65858C39.5134 5.93154 37.2981 3.72237 34.5669 3.72237C31.8342 3.72237 29.6204 5.93304 29.6204 8.65858C29.6204 11.3841 31.8357 13.5948 34.5669 13.5948C37.2981 13.5948 39.5134 11.3841 39.5134 8.65858Z" fill="black"/>
<path d="M4.76949 46.4076C-0.971918 45.0441 0.263987 36.6639 6.26487 37.2656C7.44224 37.3838 8.83107 38.6231 9.5315 38.6231H20.5524L14.7795 35.7389C13.2062 35.1627 12.0812 34.0177 10.2784 34.2991C9.82996 34.3694 9.22402 34.7107 8.73807 34.8439C6.01435 35.5877 3.08664 34.7211 1.37382 32.4596C0.953862 31.9058 -0.578988 29.4467 0.914858 29.3838C1.66328 29.3524 1.78632 30.3746 2.09079 30.9299C3.20667 32.9715 5.57188 34.0267 7.85765 33.6031C8.70206 33.4474 9.49397 32.931 10.3579 32.8397C11.8952 32.6781 12.8237 33.2274 14.1435 33.8366C18.7315 35.9544 23.2026 38.3567 27.7756 40.509C28.3216 40.7664 28.884 41.0134 29.4405 41.2454L29.5769 39.9821L27.0767 36.2268C23.6105 34.4188 20.0214 32.8487 16.5283 31.0931C14.6909 30.1696 13.0487 29.6772 12.2268 27.6012C12.0468 27.1462 11.9702 26.6268 11.7693 26.1569C9.91245 21.8328 3.73456 21.8613 1.84926 26.1569C1.63928 26.6358 1.5733 27.5788 0.995855 27.6626C-0.412499 27.8661 0.280476 26.1344 0.593944 25.4474C3.04769 20.0637 10.8679 20.2224 13.1297 25.7034C13.4626 26.5086 13.4851 27.227 14.0641 27.938C14.643 28.6489 15.4469 28.9632 16.2553 29.3718C19.2895 30.9075 22.4226 32.2665 25.4493 33.8201C25.5003 33.7662 25.1869 33.2963 25.1254 33.1945C23.2056 30.0229 20.9123 26.9546 18.922 23.816C17.5976 22.3267 16.0183 22.894 14.2935 22.3702C7.62369 20.3466 6.40582 11.3692 12.3062 7.62141C18.2816 3.82721 25.9338 8.94003 24.7924 15.9163C24.5239 17.5537 23.5685 18.4128 24.293 20.176L31.1653 30.6515C31.3708 29.3748 31.3033 28.0861 31.3438 26.8005C31.4263 24.2515 31.6182 21.2775 31.4412 18.7436C31.2538 16.0525 29.5859 16.0854 28.0831 14.4001C22.3642 7.98212 28.6275 -2.00104 36.9891 0.351816C43.104 2.07305 45.2503 9.79616 40.9637 14.4944C39.4654 16.1363 37.9505 16.0555 37.7826 18.7421C37.6191 21.3449 38.0466 27.6237 37.9836 30.2115C37.9581 31.2592 36.6757 31.2966 36.5467 30.4869L36.4372 17.7617C36.8932 15.0078 39.5404 14.5363 40.8542 12.2119C43.314 7.86388 40.6593 2.2811 35.7218 1.52675C29.5589 0.586802 25.0594 7.41487 28.5525 12.6639C29.8739 14.6485 32.4806 15.2158 32.7881 17.85C33.1721 21.1294 32.5181 25.0837 32.8016 28.4349C32.6051 31.2742 32.2707 34.1 31.7562 36.8974C31.3813 38.9404 30.2188 41.618 31.5432 43.4426C33.16 45.6697 36.3742 45.4631 37.7871 43.1417H36.1088C36.0473 43.1417 35.4128 43.6207 35.0124 43.6775C31.3243 44.1909 31.2357 38.5707 34.9298 38.9778C35.2958 39.0182 35.9587 39.4298 36.0172 39.4298H37.8771C37.5111 37.5814 37.1287 35.7239 36.8902 33.8515C36.7432 32.6901 36.5362 31.2038 36.5122 30.0573C36.4882 28.9108 37.7796 28.9647 37.9476 29.7176C38.1545 32.9879 38.6525 36.2268 39.3319 39.4253C40.7043 39.5421 42.2896 39.2847 43.6365 39.4298C45.8428 39.6678 45.8818 42.769 43.7955 43.1208C43.0861 43.2405 39.5689 43.016 39.3409 43.1567C38.8355 44.5217 37.7616 45.5335 36.4222 46.0828L35.4263 46.4016H33.703C32.6171 46.1771 31.8237 45.6577 30.9313 45.0485L23.4261 45.0246C22.5652 44.8315 22.9026 43.5952 23.4065 43.5952H29.9834L29.6564 42.9711L23.6585 40.0854L9.71151 40.063C7.57723 39.8729 6.67882 37.9122 4.31507 38.9344C1.82533 40.0106 1.84331 43.7658 4.38105 44.7492C6.76731 45.6742 7.61916 43.7539 9.79844 43.5907C13.2211 43.3348 21.6667 43.7748 25.1239 43.5758C26.0898 43.6895 26.0478 44.9363 25.1239 45.0276L9.63051 45.0515C8.47263 45.2551 7.66119 46.1531 6.49131 46.4001H4.76802L4.76949 46.4076ZM30.0764 38.0798C30.3343 36.3556 30.8083 34.6478 30.8713 32.8966C28.5795 29.1039 25.7628 25.4848 23.5085 21.6876C21.4208 18.1703 23.6406 17.3816 23.4606 14.1322C23.1201 8.01505 15.2189 5.51103 11.3943 10.3365C8.15013 14.43 10.5829 20.4588 15.7109 21.2311C16.5073 21.3509 17.2377 21.288 18.0326 21.5395C19.7095 22.0693 20.3649 23.3774 21.2798 24.726C24.275 29.1324 27.0197 33.7138 30.0764 38.0798ZM34.7034 42.3335C34.4634 41.645 34.5189 41.2693 34.6359 40.5883C34.7019 40.2051 34.3284 40.3803 34.0959 40.506C33.169 41.0089 33.6475 42.3634 34.7019 42.3335H34.7034ZM36.2183 40.9026C35.7548 41.1421 35.8823 41.6495 36.3773 41.7049H43.461C44.0565 41.633 44.0565 40.952 43.461 40.8817L36.2167 40.9041L36.2183 40.9026Z" fill="black"/>
<path d="M11.3762 28.3031C11.3762 30.8206 9.33198 32.8607 6.80925 32.8607C4.28651 32.8607 2.24219 30.8206 2.24219 28.3031C2.24219 25.7856 4.28651 23.7456 6.80925 23.7456C9.33198 23.7456 11.3762 25.7856 11.3762 28.3031ZM9.94691 28.3001C9.94691 26.5714 8.54303 25.1705 6.81071 25.1705C5.07839 25.1705 3.67458 26.5714 3.67458 28.3001C3.67458 30.0289 5.07839 31.4298 6.81071 31.4298C8.54303 31.4298 9.94691 30.0289 9.94691 28.3001Z" fill="black"/>
<path d="M7.97307 41.8364C7.97307 43.1281 6.92474 44.1743 5.63037 44.1743C4.33601 44.1743 3.2876 43.1281 3.2876 41.8364C3.2876 40.5447 4.33601 39.4985 5.63037 39.4985C6.92474 39.4985 7.97307 40.5447 7.97307 41.8364ZM6.54522 41.8304C6.54522 41.3245 6.13432 40.9144 5.62737 40.9144C5.12042 40.9144 4.70945 41.3245 4.70945 41.8304C4.70945 42.3363 5.12042 42.7464 5.62737 42.7464C6.13432 42.7464 6.54522 42.3363 6.54522 41.8304Z" fill="black"/>
<path d="M8.22513 33.4787C7.77367 33.6014 7.30119 33.6672 6.81075 33.6672C3.83955 33.6672 1.43086 31.2635 1.43086 28.2985C1.43086 25.3335 3.83955 22.9297 6.81075 22.9297C7.2997 22.9297 7.77367 22.9956 8.22513 23.1183V21.6545C7.76767 21.5587 7.29523 21.5063 6.80928 21.5063C3.04917 21.5063 0 24.5477 0 28.3015C0 32.0553 3.04767 35.0966 6.80928 35.0966C7.29523 35.0966 7.76767 35.0457 8.22513 34.9484V33.4772V33.4787Z" fill="black"/>
<path d="M22.6628 14.5782C22.6628 17.8471 20.0066 20.4978 16.7309 20.4978C13.4553 20.4978 10.7991 17.8471 10.7991 14.5782C10.7991 11.3094 13.4553 8.65869 16.7309 8.65869C20.0066 8.65869 22.6628 11.3094 22.6628 14.5782ZM21.229 14.5752C21.229 12.0982 19.2162 10.0896 16.7339 10.0896C14.2517 10.0896 12.2389 12.0982 12.2389 14.5752C12.2389 17.0523 14.2517 19.0609 16.7339 19.0609C19.2162 19.0609 21.229 17.0523 21.229 14.5752Z" fill="black"/>
</svg>
