<svg width="46" height="46" viewBox="0 0 46 46" fill="none" xmlns="http://www.w3.org/2000/svg">
<g clip-path="url(#clip0_2212_51074)">
<path d="M6.02489 45.9604C4.31108 45.6673 2.9817 44.7892 1.88416 43.549C0.859979 42.3924 0.0456246 41.0555 0.000138201 39.4782C-0.0174695 38.8376 0.17328 38.2029 0.588527 37.7851C1.95312 36.4145 4.55318 37.7162 5.83121 38.8054L20.5908 24.1596C19.0722 22.0164 19.2835 19.1682 21.1587 17.2874L37.8258 0.584922C38.5462 -0.171483 39.6717 -0.200801 40.4097 0.535081L45.4631 5.57339C46.1806 6.28875 46.1748 7.36618 45.469 8.0962L28.4923 24.9262C26.6875 26.7161 23.8703 26.8861 21.7793 25.451L7.08429 40.1012C8.25666 41.4484 9.49213 44.0152 8.02923 45.4019C7.52007 45.8857 6.82164 46.0953 6.02489 45.959V45.9604ZM39.139 1.76644L37.211 3.6897L42.3011 8.76465L44.2291 6.84139L39.139 1.76644ZM27.405 23.5629L41.0612 9.99894L35.9696 4.92839L22.1682 18.6038C20.8725 20.1195 21.0105 22.2891 22.3971 23.5937C23.7895 24.9042 25.9333 24.9482 27.4065 23.5629H27.405ZM6.82311 43.0213C6.05424 40.9735 4.16141 38.8186 1.80199 38.9344C1.55695 39.0956 1.58043 39.6937 1.69781 40.0148C3.01985 43.6135 7.79153 45.6013 6.82311 43.0213Z" fill="black"/>
<path d="M29.8596 17.7862C29.4752 18.1718 29.0071 18.2099 28.63 17.9123C28.3351 17.6792 28.1238 17.0504 28.4862 16.6839L33.5015 11.6221C33.861 11.26 34.4127 11.3187 34.7487 11.6133C35.0583 11.8845 35.1639 12.4665 34.8074 12.8242L29.8596 17.7862Z" fill="black"/>
<path d="M36.6487 11.391C37.5434 11.391 38.2686 10.6678 38.2686 9.77558C38.2686 8.88341 37.5434 8.16016 36.6487 8.16016C35.7541 8.16016 35.0288 8.88341 35.0288 9.77558C35.0288 10.6678 35.7541 11.391 36.6487 11.391Z" fill="black"/>
</g>
<defs>
<clipPath id="clip0_2212_51074">
<rect width="46" height="46" fill="white"/>
</clipPath>
</defs>
</svg>
