<svg width="57" height="35" viewBox="0 0 57 35" fill="none" xmlns="http://www.w3.org/2000/svg">
<g clip-path="url(#clip0_2431_1995)">
<path d="M41.1492 35C39.7355 35 38.34 34.7898 37.0022 34.3723C34.9159 33.7228 32.7915 32.212 33.0877 29.9174L33.1727 29.262H24.8621L24.9411 29.9145C25.2235 32.2558 23.0537 33.7695 20.9278 34.4059C19.6508 34.7883 18.2143 34.9898 16.7748 34.9898C13.9019 34.9898 11.4602 34.2132 9.90227 32.8032C9.07926 32.0573 8.69205 31.0516 8.7862 29.8955L8.83631 29.2737L4.63321 29.2314C1.90301 29.2036 0.240298 26.9631 0.00341797 24.7531V24.5225C0.105155 24.0802 0.121858 23.6277 0.137043 23.1883C0.143116 23.0117 0.14919 22.8322 0.161338 22.6468L1.33055 4.77459C1.49758 2.18513 3.89523 0 6.56317 0H50.5302C53.2012 0 55.6034 2.24497 55.775 4.90012L56.9412 22.9708C56.9897 23.727 57.0368 24.4407 56.9594 25.1574C56.7088 27.4754 54.6377 29.2372 52.1398 29.2547L49.1469 29.2752L49.2243 29.9218C49.5068 32.2675 47.3156 33.7812 45.1716 34.4161C43.8657 34.8029 42.5112 35 41.1492 35ZM10.7222 29.2606L10.6326 29.7408C10.4337 30.8078 10.9166 31.4194 11.3585 31.7435C12.6674 32.7069 14.6778 33.2601 16.875 33.2601C19.1011 33.2601 21.1191 32.6966 22.4098 31.7143C23.081 31.2034 23.3255 30.3874 23.0309 29.6357L22.8836 29.2577L10.7222 29.2606ZM34.9918 29.624C34.7974 30.0867 34.8141 30.5641 35.0374 31.0034C35.6007 32.1142 37.3166 32.6616 37.8283 32.8032C38.8882 33.0951 40.0695 33.2499 41.2448 33.2499C43.4269 33.2499 45.3507 32.7156 46.6612 31.7464C47.3354 31.2486 47.5905 30.475 47.3445 29.678L47.2154 29.2591H35.1436L34.9903 29.624H34.9918ZM6.57532 1.72971C4.84731 1.72971 3.23774 3.19668 3.12993 4.868L1.86505 24.4072C1.81342 25.2173 2.09889 25.9865 2.67287 26.5733C3.26052 27.1747 4.10326 27.5206 4.98397 27.5206L52.1626 27.5177C53.0175 27.5177 53.8071 27.1908 54.3886 26.5967C54.9641 26.007 55.2648 25.2085 55.2132 24.4057L53.9498 4.86509C53.8435 3.22441 52.2005 1.72971 50.5029 1.72971H6.57532Z" fill="black"/>
<path d="M41.1609 13.2141C39.4162 13.2141 37.6791 12.966 36.0012 12.4785C34.7652 12.1194 33.7615 11.5939 32.9324 10.8714C32.2445 10.2729 31.868 9.48615 31.871 8.6556C31.874 7.8338 32.2506 7.05871 32.9309 6.47339C33.7508 5.76982 34.7439 5.25894 35.9678 4.913C37.6472 4.4386 39.3919 4.19922 41.1533 4.19922C42.9148 4.19922 44.5623 4.42547 46.2037 4.87359C47.4595 5.21515 48.4799 5.72312 49.3227 6.42814C50.0196 7.00909 50.4129 7.78417 50.4327 8.61035C50.4524 9.4263 50.1001 10.2072 49.4426 10.8086C48.6181 11.5618 47.6417 12.0873 46.3708 12.4639C44.6807 12.9645 42.9269 13.2171 41.1625 13.2171L41.1609 13.2141ZM41.167 5.86616C39.726 5.86616 38.3123 6.04132 36.9654 6.38873C36.9335 6.39748 33.6962 7.26891 33.6886 8.65851C33.681 10.0773 36.9335 10.9341 36.9654 10.9429C38.2667 11.2786 39.8019 11.464 41.287 11.464C44.128 11.464 46.5469 10.8115 48.0957 9.62774C48.5361 9.29201 48.6955 8.8074 48.524 8.33447C48.0289 6.97259 44.7278 5.8647 41.1655 5.8647L41.167 5.86616Z" fill="black"/>
<path d="M16.8716 13.2141C15.0935 13.2141 13.3275 12.9572 11.6253 12.4507C10.3832 12.08 9.3856 11.5428 8.5793 10.8086C7.92636 10.2145 7.57408 9.4409 7.58471 8.62932C7.59534 7.82066 7.96888 7.05726 8.63548 6.48214C9.46152 5.76837 10.4713 5.25164 11.7195 4.90278C13.3928 4.43569 15.1269 4.19922 16.8731 4.19922C18.6194 4.19922 20.3641 4.43714 22.0359 4.90862C23.2598 5.2531 24.2544 5.76107 25.0728 6.46317C25.7455 7.03974 26.1266 7.80315 26.1433 8.6118C26.16 9.41608 25.8169 10.1868 25.1746 10.7838C24.3743 11.5268 23.3797 12.0698 22.1331 12.4434C20.4279 12.9558 18.6573 13.2156 16.8716 13.2156V13.2141ZM16.8807 5.8647C15.4352 5.8647 14.0139 6.04278 12.6579 6.39456C12.6245 6.40332 9.37953 7.26161 9.40079 8.67311C9.42053 10.0583 12.6138 10.9254 12.6473 10.9341C13.9607 11.2742 15.5126 11.4625 17.0189 11.4625C19.907 11.4625 22.3366 10.7955 23.8581 9.58249C24.2696 9.25406 24.4123 8.78551 24.2407 8.32863C23.732 6.96967 20.4294 5.8647 16.8807 5.8647Z" fill="black"/>
<path d="M16.8717 24.908C15.0951 24.908 13.3291 24.6511 11.6223 24.1461C10.4228 23.7899 9.44335 23.2688 8.62946 22.5506C7.95223 21.9536 7.5802 21.1698 7.58476 20.3436C7.58931 19.5277 7.96286 18.7569 8.63705 18.176C9.44791 17.4768 10.4288 16.9689 11.6375 16.6229C13.3276 16.1398 15.086 15.8945 16.8641 15.8945C18.6422 15.8945 20.2988 16.1252 21.954 16.5791C23.2173 16.9251 24.2377 17.4432 25.0759 18.1614C25.7471 18.7365 26.1252 19.4985 26.1419 20.3086C26.1586 21.1129 25.8154 21.8821 25.1746 22.4776C24.3668 23.2279 23.3995 23.7563 22.1301 24.1373C20.4264 24.6496 18.6574 24.9095 16.8701 24.9095L16.8717 24.908ZM16.8853 17.56C15.4018 17.56 13.9471 17.7483 12.5608 18.1176C12.5289 18.1264 9.41906 18.973 9.40236 20.3582C9.38413 21.7434 12.6154 22.6192 12.6473 22.628C13.9608 22.9681 15.5126 23.1549 17.019 23.1549C19.9086 23.1549 22.3366 22.4879 23.8581 21.2778C24.2696 20.9494 24.4123 20.4808 24.2408 20.0225C23.7321 18.6635 20.4309 17.5586 16.8853 17.5586V17.56Z" fill="black"/>
<path d="M41.1594 24.908C39.3813 24.908 37.6154 24.6511 35.9132 24.1461C34.7227 23.7928 33.7478 23.2761 32.9339 22.5667C32.2385 21.9609 31.8619 21.1669 31.8725 20.329C31.8832 19.4926 32.278 18.7088 32.984 18.122C33.8025 17.4418 34.7789 16.947 35.9678 16.6098C37.6427 16.1354 39.3844 15.8945 41.1473 15.8945C42.9102 15.8945 44.4985 16.1135 46.1203 16.5441C47.414 16.8871 48.4617 17.4038 49.3227 18.1235C50.0197 18.7059 50.4145 19.4809 50.4327 20.3086C50.4509 21.1275 50.0971 21.9084 49.4351 22.5083C48.6257 23.244 47.6752 23.7607 46.4452 24.1315C44.7339 24.6482 42.9558 24.9095 41.1594 24.9095V24.908ZM41.1686 17.5615C39.7275 17.5615 38.3138 17.7366 36.967 18.084C36.9351 18.0928 33.6992 18.9642 33.6901 20.3524C33.6795 21.7741 36.9351 22.6295 36.9685 22.6382C38.2728 22.9739 39.8095 23.1593 41.2946 23.1593C44.1356 23.1593 46.5515 22.5068 48.1003 21.3231C48.5392 20.9873 48.6986 20.5042 48.527 20.0312C48.032 18.6694 44.7324 17.5615 41.1701 17.5615H41.1686Z" fill="black"/>
</g>
<defs>
<clipPath id="clip0_2431_1995">
<rect width="57" height="35" fill="white"/>
</clipPath>
</defs>
</svg>
