<svg width="52" height="52" viewBox="0 0 52 52" fill="none" xmlns="http://www.w3.org/2000/svg">
<g clip-path="url(#clip0_812_7978)">
<path d="M27.5135 0C28.6309 0.227263 29.7375 0.357128 30.8441 0.68179C34.9885 1.90468 38.5579 4.72924 41.2268 8.05161C42.8108 8.35463 45.2301 7.53215 46.4561 8.80916C46.608 8.97149 47.107 9.80479 47.107 9.97794V12.1532H48.9839C49.8736 12.1532 49.4505 14.8262 49.5372 15.389C51.7939 15.3132 52.8571 18.246 51.1538 19.6853C51.0019 19.8152 50.2316 20.2481 50.0905 20.2481H45.4688V44.0999C45.4688 44.3704 45.165 45.4094 45.0674 45.7232C43.9933 49.0023 40.7928 51.6212 37.2994 51.8485C29.9437 52.3247 22.0672 51.4697 14.6572 51.8485C11.077 51.8918 6.48779 47.6495 6.48779 44.0999V20.2481H1.8769C1.70332 20.2481 0.867932 19.7503 0.705195 19.5988C0.368871 19.2741 0.227832 18.8196 0 18.43V17.2179C0.401419 16.1682 1.2368 15.3457 2.44106 15.3998C2.5387 14.837 2.10474 12.164 2.99437 12.164H4.87127V9.98876C4.87127 9.81561 5.37033 8.98231 5.52222 8.81998C6.75902 7.5538 9.17838 8.37627 10.7515 8.06243C13.4204 4.7076 16.9681 1.95879 21.1342 0.692612L24.3564 0.0108221H27.5026L27.5135 0ZM47.9099 13.7765H46.033C46.033 13.7765 45.7292 13.5817 45.6749 13.5276C44.9697 12.7159 46.2608 9.92383 44.6117 9.72903C43.3207 9.57752 41.8018 9.88054 40.489 9.68574C40.1527 9.58834 39.2522 8.26805 38.9268 7.91093C31.2564 -0.411238 20.711 -0.42206 13.0407 7.91093C12.7044 8.27888 11.8364 9.57752 11.4784 9.68574C10.1657 9.88054 8.64678 9.57752 7.35573 9.72903C5.70666 9.92383 6.99771 12.7159 6.29251 13.5276C6.23826 13.5817 5.97788 13.7765 5.93449 13.7765H4.05758V15.3998H47.9099V13.7765ZM6.49864 17.0123H2.28917C2.06134 17.0123 1.61652 17.575 1.62737 17.8672C1.63822 18.1053 2.09389 18.6356 2.28917 18.6356H6.49864V17.0123ZM43.8523 17.0123H8.12602V43.3856C8.12602 46.9028 11.8039 50.2468 15.2756 50.2252C22.2842 49.9113 29.629 50.6256 36.6051 50.2252C40.1853 50.0196 43.8631 47.1842 43.8631 43.3856V17.0123H43.8523ZM45.4797 18.6356H49.6891C49.917 18.6356 50.3618 18.0728 50.3509 17.7806C50.3401 17.5426 49.8844 17.0123 49.6891 17.0123H45.4797V18.6356Z" fill="black"/>
<path d="M43.0495 12.1426H8.11523V13.7767H43.0495V12.1426Z" fill="black"/>
<path d="M24.747 4.89247C27.7305 4.63274 30.3777 5.37946 32.8838 6.94866C33.7626 7.48976 36.1603 8.93992 34.2725 9.72993H17.8144C17.1526 9.77322 16.7728 9.03732 17.0766 8.47457C17.2068 8.23649 18.346 7.41401 18.6497 7.20839C20.3531 6.05043 22.6748 5.07644 24.747 4.89247ZM20.505 8.10662H31.4735C31.3758 7.95511 31.0503 7.81443 30.8876 7.72785C27.9149 6.22358 24.6168 6.11536 21.5573 7.47894L20.505 8.10662Z" fill="black"/>
<path d="M17.9445 20.2814L33.8493 20.2598C35.6177 20.487 37.2017 22.0562 37.3536 23.8527V42.5965C37.2017 44.4038 35.5635 46.0379 33.7517 46.1894C28.7936 46.6115 23.2388 45.8648 18.2157 46.1894C16.4039 46.0379 14.7657 44.4038 14.6138 42.5965V23.7553C14.8525 22.0454 16.2411 20.6169 17.9445 20.2922V20.2814ZM18.4544 21.8939C17.1633 22.0887 16.3713 22.9545 16.2411 24.2531V42.077C16.3605 43.538 17.2501 44.4362 18.7256 44.5553C23.4233 44.2523 28.6092 44.9557 33.2526 44.5553C34.7173 44.4254 35.6177 43.538 35.7371 42.077V24.3505C35.6177 22.9328 34.7715 22.0346 33.3503 21.8723L18.4544 21.8939Z" fill="black"/>
<path d="M34.1097 23.4844V39.6958H17.8577V23.4844H34.1097ZM32.4823 25.1077H19.485V38.0725H32.4823V25.1077Z" fill="black"/>
<path d="M20.071 41.3412C20.3856 41.2763 21.9479 41.2763 22.2408 41.3629C22.9677 41.5901 22.9243 42.8022 22.0781 42.932C21.7309 42.9862 20.2988 42.9862 19.995 42.8888C19.2898 42.6723 19.3224 41.5035 20.071 41.3304V41.3412Z" fill="black"/>
<path d="M24.9421 41.3412C25.2567 41.2763 26.819 41.2763 27.1119 41.3629C27.8388 41.5901 27.7954 42.8022 26.9491 42.932C26.602 42.9862 25.1699 42.9862 24.8661 42.8888C24.1609 42.6723 24.1935 41.5035 24.9421 41.3304V41.3412Z" fill="black"/>
<path d="M29.8134 41.3412C30.128 41.2763 31.6903 41.2763 31.9832 41.3629C32.7101 41.5901 32.6667 42.8022 31.8205 42.932C31.4733 42.9862 30.0412 42.9862 29.7374 42.8888C29.0323 42.6723 29.0648 41.5035 29.8134 41.3304V41.3412Z" fill="black"/>
<path d="M23.1086 27.878C23.8355 27.8455 24.1068 28.6247 23.7704 29.2308C23.2822 30.1182 22.7181 30.3563 22.7289 31.6333C22.7832 36.2868 30.2799 35.4751 29.0974 30.7567C28.8695 29.8368 27.5025 28.9061 28.2511 28.1377C29.2167 27.1638 30.3016 29.1334 30.5729 29.8909C31.7771 33.2999 29.2167 36.6547 25.6148 36.4491C22.3058 36.2651 20.2119 32.802 21.427 29.7394C21.6657 29.1334 22.3817 27.9105 23.0978 27.8672L23.1086 27.878Z" fill="black"/>
<path d="M25.7558 26.7529C26.32 26.6338 26.7323 26.926 26.7974 27.4888C26.8624 28.0515 26.8841 30.5081 26.7757 31.0167C26.6021 31.8176 25.2893 31.8392 25.17 30.8328C25.094 30.1618 25.0832 28.0299 25.17 27.3914C25.2134 27.0883 25.4412 26.8178 25.745 26.742L25.7558 26.7529Z" fill="black"/>
</g>
<defs>
<clipPath id="clip0_812_7978">
<rect width="52" height="52" fill="white"/>
</clipPath>
</defs>
</svg>
