<svg width="66" height="41" viewBox="0 0 66 41" fill="none" xmlns="http://www.w3.org/2000/svg">
<g clip-path="url(#clip0_2004_896)">
<path d="M60.1253 4.85611C63.9277 4.321 66.519 9.32447 63.6287 12.084C60.1501 14.494 56.8428 17.3707 53.3108 19.6752C53.0309 19.8568 52.6273 19.8685 52.2903 20.0833C51.4525 20.6165 50.569 21.7922 49.6723 22.339C50.3253 22.8194 50.986 23.3389 51.0907 24.2255C52.9186 39.8219 34.1526 41.5815 23.3663 41.1753C14.8039 40.853 2.47154 38.8884 0.921669 28.2818C0.712227 26.8445 0.409487 24.0849 1.39387 22.9893C3.71868 20.4017 12.8408 18.8764 16.2852 18.4878C25.514 17.4468 35.135 17.9741 44.1734 20.0599L48.4746 16.4625C48.8021 15.7048 49.0363 14.8963 49.5961 14.2674C52.5016 11.8516 55.0435 8.46517 57.8881 6.05132C58.5202 5.51425 59.2876 4.97328 60.1234 4.85611H60.1253ZM60.2643 6.88718C59.7464 6.99655 58.3755 8.35776 57.8919 8.81475C55.4662 11.1036 53.2061 13.621 50.8051 15.9411C49.916 17.7847 51.2164 18.5932 52.8634 17.6167C55.213 16.2243 58.5336 13.5214 60.7727 11.7696C61.2658 11.3829 62.2464 10.7482 62.5701 10.2697C63.6249 8.70929 62.0884 6.49854 60.2624 6.88718H60.2643ZM49.954 19.6478C49.7713 19.4564 49.0306 18.6069 48.8992 18.6362C48.328 19.2982 47.5093 19.7728 46.9038 20.3743C46.7381 20.5384 46.5097 20.6887 46.5535 20.9582C46.9228 20.8626 47.5816 21.3918 47.8292 21.3195C48.368 21.1614 49.301 19.7982 49.9559 19.6478H49.954ZM23.273 19.9837C17.8294 20.1771 8.82907 21.1106 3.9681 23.5947C3.34168 23.915 2.43537 24.4169 3.09606 25.1805C3.66346 25.8387 7.59907 27.28 8.50729 27.3464C9.3622 27.4089 12.8751 26.2215 14.0861 25.9734C21.9421 24.3623 30.5121 24.4189 38.3566 26.0926C39.4857 26.3328 42.5246 27.3932 43.3585 27.364C44.0801 27.3386 46.4678 26.4207 47.2161 26.073C50.3044 24.6337 49.1334 24.0576 46.6925 23.0694C40.0836 20.3919 30.3521 19.7318 23.2749 19.9837H23.273ZM39.0364 28.2311C30.4283 26.3601 21.3975 26.241 12.8104 28.3014C19.9943 29.522 27.3152 29.6645 34.5714 28.9537L39.0383 28.2291L39.0364 28.2311ZM49.1029 27.3561C46.1593 28.774 42.9796 29.6372 39.7732 30.2172C29.0098 32.1643 13.2007 32.0296 3.12843 27.4714C3.01419 27.4186 2.8314 27.2194 2.74382 27.4284C3.49781 35.2148 11.2339 37.7869 17.7228 38.6755C25.2608 39.7086 39.6076 39.6871 45.6338 34.338C47.6883 32.5139 48.8954 30.1684 49.1029 27.3561Z" fill="black"/>
<path d="M25.5688 15.2148C38.0909 15.2148 48.449 19.1185 50.1754 24.1964C50.3424 24.5062 50.4298 24.8224 50.4298 25.1445C50.4298 25.216 50.4235 25.2869 50.4151 25.3579C50.4235 25.4703 50.4298 25.5829 50.4298 25.6962C50.3985 25.7036 50.367 25.7096 50.3359 25.7167C49.2453 29.1045 38.5744 31.7643 25.5688 31.7643C12.574 31.7643 1.90933 29.1091 0.803822 25.7253C0.771967 25.7153 0.739726 25.7064 0.707764 25.6962C0.707764 25.583 0.713033 25.4702 0.721486 25.3579C0.713054 25.287 0.707764 25.216 0.707764 25.1445C0.707764 24.8226 0.794279 24.5061 0.961103 24.1964C2.68718 19.1183 13.0465 15.2148 25.5688 15.2148Z" fill="white"/>
<path d="M25.5688 15.2148C38.0909 15.2148 48.449 19.1185 50.1754 24.1964C50.3424 24.5062 50.4298 24.8224 50.4298 25.1445C50.4298 25.216 50.4235 25.2869 50.4151 25.3579C50.4235 25.4703 50.4298 25.5829 50.4298 25.6962C50.3985 25.7036 50.367 25.7096 50.3359 25.7167C49.2453 29.1045 38.5744 31.7643 25.5688 31.7643V29.5577C31.9456 29.5577 37.6887 28.9034 41.9145 27.8651C44.0357 27.3438 45.6907 26.7459 46.8314 26.1358C47.7156 25.6628 48.0758 25.2968 48.21 25.1284L48.1931 25.096L48.1329 24.9193C47.8901 24.2056 47.2689 23.3379 46.065 22.4154C44.8741 21.5029 43.233 20.6312 41.1861 19.8769C37.094 18.3689 31.6297 17.4214 25.5688 17.4214C19.5077 17.4214 14.0428 18.3689 9.95043 19.8769C7.90346 20.6312 6.26246 21.5029 5.07154 22.4154C3.86747 23.338 3.24634 24.2057 3.00365 24.9193L2.94348 25.096L2.92554 25.1284C3.05991 25.2974 3.42271 25.6658 4.31363 26.1412C5.45629 26.7509 7.11286 27.3479 9.23369 27.8683C13.4587 28.905 19.1976 29.5577 25.5688 29.5577V31.7643C12.574 31.7643 1.90933 29.1091 0.803822 25.7253C0.771967 25.7153 0.739726 25.7064 0.707764 25.6962C0.707764 25.583 0.713033 25.4702 0.721486 25.3579C0.713054 25.287 0.707764 25.216 0.707764 25.1445C0.707764 24.8226 0.794279 24.5061 0.961103 24.1964C2.68718 19.1183 13.0465 15.2148 25.5688 15.2148Z" fill="black"/>
<path d="M23 13.5599L24.1322 18.0532C25.9437 19.8505 27.6546 18.802 28.2836 18.0532L29.4158 13.5599C26.6985 11.5058 24.0064 12.704 23 13.5599Z" fill="black"/>
<path d="M25.6006 11.9043C26.6873 11.7176 27.9524 11.9974 29.1835 13.2135L29.4158 13.4432L29.35 13.7826L28.4222 18.5968L28.3985 18.718L28.3348 18.8185C28.0283 19.2953 27.4464 19.8934 26.6764 20.0734C25.8532 20.2657 24.9484 19.9501 24.1066 18.8589L24.0183 18.7446L23.9895 18.5968L23.0617 13.7826L23 13.4652L23.2055 13.2377C23.6834 12.7066 24.5397 12.0867 25.6006 11.9043ZM28.2536 13.8842C27.3426 13.0914 26.4777 12.9491 25.7589 13.0726C25.0926 13.1873 24.5265 13.5363 24.1539 13.8715L24.9872 18.1916C25.5931 18.9262 26.101 19.0011 26.4627 18.9166C26.8549 18.8248 27.201 18.5145 27.4183 18.2147L28.2536 13.8842Z" fill="black"/>
</g>
<defs>
<clipPath id="clip0_2004_896">
<rect width="66" height="41" fill="white"/>
</clipPath>
</defs>
</svg>
