<svg width="59" height="32" viewBox="0 0 59 32" fill="none" xmlns="http://www.w3.org/2000/svg">
<g clip-path="url(#clip0_149_2082)">
<path d="M54.64 0.0340991C58.1367 -0.436211 60.5197 3.96136 57.8618 6.38672C54.6628 8.50484 51.6214 11.0332 48.3734 13.0586C48.116 13.2182 47.7448 13.2285 47.4348 13.4174C46.6644 13.8859 45.852 14.9193 45.0273 15.3999C45.6279 15.8221 46.2354 16.2787 46.3317 17.058C48.0127 30.7656 30.7553 32.3122 20.8362 31.9551C12.9621 31.6719 1.62125 29.9452 0.195976 20.6231C0.0033717 19.3597 -0.275029 16.9344 0.630212 15.9714C2.76812 13.6971 11.1569 12.3566 14.3244 12.015C22.8112 11.1001 31.6588 11.5636 39.9705 13.3968L43.9259 10.235C44.2271 9.56905 44.4425 8.85843 44.9573 8.30573C47.6292 6.18247 49.9667 3.20612 52.5826 1.08457C53.164 0.612547 53.8696 0.137087 54.6383 0.0340991H54.64ZM54.7678 1.81922C54.2916 1.91534 53.0309 3.11172 52.5861 3.51337C50.3554 5.52506 48.2771 7.73758 46.0691 9.77674C45.2514 11.3971 46.4473 12.1077 47.9619 11.2495C50.1226 10.0256 53.1762 7.65004 55.2353 6.11037C55.6888 5.77051 56.5906 5.21267 56.8882 4.79213C57.8582 3.42068 56.4452 1.47764 54.7661 1.81922H54.7678ZM45.2864 13.0346C45.1183 12.8664 44.4372 12.1197 44.3164 12.1455C43.7911 12.7273 43.0382 13.1444 42.4814 13.6731C42.3291 13.8173 42.119 13.9495 42.1592 14.1863C42.4989 14.1022 43.1047 14.5674 43.3324 14.5039C43.8279 14.3648 44.6859 13.1667 45.2882 13.0346H45.2864ZM20.7504 13.3298C15.7444 13.4997 7.46767 14.3202 2.9975 16.5036C2.42143 16.7851 1.58798 17.2262 2.19556 17.8973C2.71734 18.4758 6.33656 19.7425 7.17176 19.8009C7.95794 19.8558 11.1884 18.8122 12.302 18.5942C19.5265 17.1781 27.4075 17.2279 34.6214 18.6989C35.6597 18.91 38.4542 19.8421 39.2211 19.8163C39.8848 19.794 42.0804 18.9873 42.7686 18.6817C45.6086 17.4167 44.5318 16.9104 42.2871 16.0418C36.2095 13.6886 27.2604 13.1084 20.7521 13.3298H20.7504ZM35.2465 20.5784C27.3304 18.9341 19.0257 18.8294 11.1289 20.6402C17.7352 21.713 24.4676 21.8383 31.1405 21.2135L35.2482 20.5767L35.2465 20.5784ZM44.5038 19.8095C41.7968 21.0556 38.8727 21.8143 35.9241 22.3241C26.026 24.0354 11.4879 23.917 2.22533 19.9107C2.12027 19.8644 1.95218 19.6893 1.87163 19.873C2.56501 26.7165 9.67912 28.9771 15.6464 29.7581C22.5784 30.6661 35.7718 30.6472 41.3135 25.9458C43.2028 24.3426 44.3129 22.2812 44.5038 19.8095Z" fill="black"/>
</g>
<defs>
<clipPath id="clip0_149_2082">
<rect width="59" height="32" fill="white"/>
</clipPath>
</defs>
</svg>
