<svg width="33" height="41" viewBox="0 0 33 41" fill="none" xmlns="http://www.w3.org/2000/svg">
<g clip-path="url(#clip0_1995_988)">
<path d="M1.38654 38.8427C2.51827 38.054 3.70294 37.3337 4.96373 36.7634C5.56048 36.4942 7.64415 35.6063 8.17913 35.7199C8.71411 35.8335 8.83214 36.6233 8.43504 36.931C6.36461 37.6392 4.39897 38.4202 2.59879 39.6821C2.24692 39.9281 1.28285 40.8227 1.03466 40.9253C0.6144 41.0984 0.11582 40.9771 0.0176488 40.4984L0 6.53374C0.0926563 6.12119 1.45493 5.11961 1.85533 4.83943C3.19444 3.90182 4.83909 3.06018 6.38005 2.51085C6.81245 2.35642 7.85483 1.93063 8.24311 2.05307C8.65124 2.18324 8.77698 2.7822 8.56078 3.12305C8.39643 3.38117 6.6856 3.86431 6.25872 4.04081C4.5181 4.7589 2.77087 5.73071 1.38654 7.01248V38.8427Z" fill="black"/>
<path d="M18.956 0.0579048C21.6 -0.0766697 24.4789 0.00826664 27.0799 0.472659C28.7897 0.778209 32.6889 1.64522 32.9879 3.73002L33 36.9743C32.7706 38.8926 29.6445 39.7706 28.0561 40.1225C24.2947 40.9553 19.6895 40.9939 15.8906 40.3972C14.1522 40.1236 9.80173 39.2367 9.49949 37.1277L9.47412 3.95284C9.48184 3.59986 9.57229 3.22482 9.77194 2.9303C11.1662 0.868661 16.6175 0.177036 18.956 0.0579048ZM20.7727 1.37828C18.1717 1.40475 14.257 1.75332 11.9372 2.94684C10.6213 3.62413 10.4801 4.12603 11.8688 4.86729C15.7626 6.94327 27.2465 7.06902 30.9715 4.64226C31.9025 4.03668 31.7249 3.65832 30.8656 3.12664C28.4985 1.66397 23.5259 1.3507 20.7727 1.37828ZM10.8816 5.89535V37.0648C10.8816 37.099 11.2699 37.4442 11.3504 37.5049C13.4186 39.0834 19.6409 39.5324 22.2386 39.4221C22.6832 39.4033 23.1332 39.272 23.5965 39.3349C23.5347 38.2969 24.7437 38.1888 24.8363 39.2533C26.4545 39.0172 28.1058 38.8154 29.6445 38.2407C30.0306 38.0973 31.6057 37.4211 31.6057 36.9821V5.89535C29.5364 6.99401 27.1549 7.43854 24.8352 7.62937C25.0514 8.92217 23.5193 9.16816 23.5976 7.79484C19.3178 7.83344 14.7721 7.87426 10.8816 5.89645V5.89535Z" fill="black"/>
<path d="M23.9859 9.62843C24.265 9.5457 24.6003 9.65711 24.7349 9.91965C24.8849 10.2109 24.8827 11.9008 24.8154 12.2769C24.6709 13.0799 23.7146 13.006 23.601 12.2912C23.5425 11.9217 23.5425 10.523 23.601 10.1535C23.6297 9.97149 23.8061 9.68138 23.9859 9.62843Z" fill="black"/>
<path d="M23.9859 13.7573C24.265 13.6746 24.6003 13.786 24.7349 14.0486C24.8849 14.3398 24.8827 16.0297 24.8154 16.4058C24.6709 17.2088 23.7146 17.1349 23.601 16.4202C23.5425 16.0506 23.5425 14.6519 23.601 14.2824C23.6297 14.1004 23.8061 13.8103 23.9859 13.7573Z" fill="black"/>
<path d="M23.9859 17.8823C24.265 17.7996 24.6003 17.911 24.7349 18.1736C24.8849 18.4648 24.8827 20.1547 24.8154 20.5308C24.6709 21.3338 23.7146 21.2599 23.601 20.5452C23.5425 20.1756 23.5425 18.7769 23.601 18.4074C23.6297 18.2254 23.8061 17.9353 23.9859 17.8823Z" fill="black"/>
<path d="M23.7828 33.3697C23.699 33.2913 23.6086 32.9836 23.5942 32.8567C23.5468 32.4309 23.538 31.2021 23.6008 30.7951C23.6825 30.2744 24.3686 30.0483 24.673 30.4554C24.9135 30.7786 24.9113 32.8722 24.7028 33.2185C24.5263 33.5142 24.0123 33.5859 23.7817 33.3686L23.7828 33.3697Z" fill="black"/>
<path d="M23.7828 37.4986C23.699 37.4203 23.6086 37.1125 23.5942 36.9856C23.5468 36.5599 23.538 35.331 23.6008 34.924C23.6825 34.4034 24.3686 34.1772 24.673 34.5843C24.9135 34.9075 24.9113 37.0011 24.7028 37.3474C24.5263 37.6431 24.0123 37.7148 23.7817 37.4975L23.7828 37.4986Z" fill="black"/>
<path d="M24.0709 22.0105C24.2639 21.9707 24.4934 22.0116 24.6346 22.1561C24.9059 22.4351 24.8916 24.2431 24.8166 24.66C24.693 25.345 23.8867 25.4355 23.6606 24.8641C23.5602 24.6115 23.5481 22.7716 23.6153 22.4671C23.6606 22.2631 23.8646 22.0524 24.0709 22.0093V22.0105Z" fill="black"/>
<path d="M24.0709 26.1394C24.2639 26.0996 24.4934 26.1405 24.6346 26.285C24.9059 26.564 24.8916 28.372 24.8166 28.7889C24.693 29.4739 23.8867 29.5644 23.6606 28.993C23.5602 28.7404 23.5481 26.9005 23.6153 26.596C23.6606 26.392 23.8646 26.1813 24.0709 26.1383V26.1394Z" fill="black"/>
<path d="M20.3602 2.1217C21.7666 2.05221 25.3261 2.17134 26.3663 3.16741C26.8539 3.63401 26.8252 4.26828 26.3244 4.70068C24.7371 6.0718 18.2887 5.97252 16.5017 4.94115C15.7671 4.51757 15.4307 3.82484 16.1234 3.16962C16.9518 2.38644 19.2373 2.17796 20.3602 2.1217ZM25.2478 3.83256C25.1816 3.76307 24.2087 3.56011 24.0245 3.52701C22.285 3.21154 19.5561 3.19499 17.8474 3.65607C17.6147 3.71895 17.2727 3.76528 17.1558 3.99582C19.3972 4.57493 22.4571 4.79334 24.704 4.15576C24.7702 4.13701 25.4133 4.00685 25.2467 3.83256H25.2478Z" fill="black"/>
</g>
<defs>
<clipPath id="clip0_1995_988">
<rect width="33" height="41" fill="white"/>
</clipPath>
</defs>
</svg>
