<svg width="40" height="40" viewBox="0 0 40 40" fill="none" xmlns="http://www.w3.org/2000/svg">
<g clip-path="url(#clip0_289_392)">
<path d="M6.91701 39.9999C6.30004 39.9999 4.64185 39.373 3.85475 38.9057C1.85415 37.7183 0.486689 35.6939 0.00430698 33.2055L0 33.1852V6.88751L0.00323024 6.87037C0.540526 3.64679 2.76724 1.11444 5.81442 0.261392C5.95225 0.222812 6.09976 0.198163 6.25589 0.172443C6.47985 0.134935 6.7092 0.096355 6.94716 0.0127649L6.98161 0.000976562H8.73563L8.7787 0.0202666C8.94021 0.0942117 9.13511 0.141365 9.37307 0.161727C9.9362 0.212095 10.3604 0.322477 10.9968 0.586107C13.5638 1.6492 15.4825 4.12368 15.7722 6.74284L15.8249 7.21973H37.9337V9.58169L39.9978 11.7979L38.2352 13.7891L40.0011 15.7256L38.2352 17.7199L40.0011 19.6564L38.2352 21.6508L40.0011 23.5873L38.2352 25.5817L40.0011 27.5182L38.2352 29.5126L40.0011 31.4491L38.2395 33.4381L39.9978 35.4239L37.9337 37.6401V40.002H6.91701V39.9999ZM36.5921 38.6646V37.0614L36.6524 36.9992C36.773 36.8749 36.9496 36.7024 37.0669 36.5877C37.4944 36.1698 37.6516 36.0112 37.7302 35.8783C37.9553 35.4989 37.937 35.1517 37.6753 34.8473L37.6656 34.8355L36.3003 33.4209L36.4446 33.272C36.6287 33.0823 36.8591 32.8551 37.012 32.704C37.3523 32.3675 37.5666 32.1542 37.6732 32.0256C37.8336 31.8445 37.9057 31.6184 37.8831 31.3815C37.8551 31.0976 37.6775 30.8929 36.8602 30.0688C36.7385 29.9466 36.5867 29.7933 36.4543 29.6551L36.3121 29.5072L37.6549 28.1151C37.8282 27.9319 37.9079 27.7014 37.8831 27.4517C37.8551 27.1678 37.6775 26.9631 36.8602 26.139C36.7385 26.0168 36.5867 25.8635 36.4543 25.7253L36.3121 25.5774L37.6549 24.1853C37.8282 24.002 37.9079 23.7716 37.8831 23.5209C37.8551 23.2369 37.6775 23.0322 36.8602 22.2081C36.7385 22.0859 36.5867 21.9327 36.4543 21.7944L36.3121 21.6465L37.6549 20.2544C37.8282 20.0712 37.9079 19.8408 37.8831 19.59C37.8551 19.306 37.6775 19.1024 36.8602 18.2772C36.7385 18.155 36.5867 18.0018 36.4543 17.8635L36.3121 17.7146L37.6549 16.3225C37.8282 16.1392 37.9079 15.9088 37.8831 15.658C37.8551 15.3741 37.6775 15.1694 36.8602 14.3453C36.7353 14.2199 36.5856 14.0677 36.4543 13.9316L36.3121 13.7826L37.6549 12.3905C37.8282 12.2073 37.9079 11.9769 37.8831 11.7261C37.8562 11.455 37.6936 11.2674 36.9474 10.514C36.8538 10.4187 36.7385 10.3029 36.6513 10.2118L36.5921 10.1497V8.55181H15.8497V33.1198C15.8335 33.2484 15.756 33.5785 15.6171 34.1025L15.6031 34.1572C15.2672 35.4314 14.5404 36.6756 13.5013 37.7558L12.6291 38.6625H36.5932L36.5921 38.6646ZM7.92484 25.5849C4.30806 25.5849 1.36531 28.5138 1.36531 32.1135C1.36531 35.7132 4.30806 38.6421 7.92484 38.6421C11.5416 38.6421 14.4844 35.7132 14.4844 32.1135C14.4844 28.5138 11.5416 25.5849 7.92484 25.5849ZM1.34162 27.485L2.26332 26.5526C3.75138 25.048 5.76059 24.2196 7.92269 24.2196C10.0848 24.2196 12.0962 25.048 13.5842 26.5526L14.4865 27.4646L14.5059 26.184C14.535 24.2517 14.5684 22.0623 13.9815 19.9211C12.4967 14.5071 7.53829 10.3951 1.92414 9.91926L1.34055 9.86996V27.485H1.34162ZM7.96576 1.35664C4.72045 1.35664 1.98121 3.65429 1.45145 6.81893C1.29317 7.76735 1.28671 8.22603 1.66895 8.43929C1.84554 8.53788 2.10611 8.57218 2.75108 8.63755C2.9449 8.65684 3.14625 8.6772 3.23562 8.69434C6.95254 9.37271 10.1806 11.2728 12.5699 14.1899L14.5081 16.8304V7.5273C14.5081 5.82656 13.3323 3.8997 12.2264 2.94913C11.014 1.90747 9.54104 1.35664 7.96468 1.35664H7.96576Z" fill="black"/>
<path d="M6.91699 39.7857C6.34201 39.7857 4.71397 39.1663 3.96456 38.7215C2.01457 37.5652 0.68587 35.5933 0.215332 33.1649V6.90478C0.739707 3.76372 2.90289 1.29996 5.87255 0.467269C5.99853 0.431904 6.14066 0.408327 6.2914 0.382607C6.51537 0.345099 6.76302 0.303304 7.01821 0.214355H8.68824C8.87236 0.299017 9.0931 0.351529 9.35367 0.375106C9.89204 0.423331 10.3001 0.529426 10.9139 0.784483C13.4108 1.81864 15.2768 4.22239 15.5579 6.76653L15.6322 7.43418H37.7184V9.66539L39.7071 11.8012L37.9456 13.7902L39.7114 15.7267L37.9456 17.7211L39.7114 19.6576L37.9456 21.652L39.7114 23.5885L37.9456 25.5829L39.7114 27.5194L37.9456 29.5138L39.7114 31.4503L37.952 33.4371L39.7071 35.4186L37.7184 37.5545V39.7857H6.91699ZM15.6332 33.0985C15.6257 33.1692 15.5837 33.3846 15.4082 34.0512L15.3942 34.1059C15.0669 35.3458 14.3584 36.5578 13.3452 37.6113L12.1241 38.8801H36.8074V37.1494C36.9259 37.0272 37.0992 36.8579 37.2188 36.7422C37.6699 36.3006 37.8239 36.1452 37.9165 35.9888C38.2621 35.4069 38.0662 34.9718 37.84 34.7092L37.826 34.6931L36.6007 33.4232C36.7805 33.2389 37.0034 33.0181 37.1649 32.8584C37.5159 32.5112 37.727 32.3012 37.8411 32.164C38.036 31.9432 38.1275 31.6603 38.0985 31.3635C38.0618 30.9927 37.826 30.7408 37.0142 29.921C36.8936 29.7988 36.7428 29.6466 36.6115 29.5095L37.812 28.2653C38.0295 28.0349 38.1297 27.7412 38.0995 27.4326C38.0629 27.0618 37.8271 26.8099 37.0152 25.9901C36.8947 25.8679 36.7439 25.7158 36.6115 25.5786L37.812 24.3344C38.0295 24.104 38.1297 23.8103 38.0995 23.5006C38.0629 23.1298 37.8271 22.878 37.0152 22.0582C36.8947 21.936 36.7439 21.7838 36.6125 21.6466L37.8131 20.4024C38.0306 20.172 38.1308 19.8784 38.1006 19.5687C38.064 19.1979 37.8282 18.946 37.0163 18.1262C36.8957 18.004 36.745 17.8519 36.6125 17.7147L37.8131 16.4705C38.0306 16.2401 38.1308 15.9464 38.1006 15.6367C38.064 15.2659 37.8282 15.0141 37.0163 14.1943C36.8957 14.0721 36.745 13.9199 36.6136 13.7827L37.8142 12.5385C38.0317 12.3081 38.1318 12.0145 38.1017 11.7058C38.0662 11.349 37.8508 11.1164 37.1057 10.3641C37.012 10.2698 36.899 10.1551 36.8117 10.0641V8.3376H15.6386V33.0953L15.6332 33.0985ZM7.92483 25.3707C4.1896 25.3707 1.14995 28.3949 1.14995 32.1136C1.14995 35.8323 4.1896 38.8566 7.92483 38.8566C11.6601 38.8566 14.6997 35.8323 14.6997 32.1136C14.6997 28.3949 11.6601 25.3707 7.92483 25.3707ZM1.12626 28.0091L2.41728 26.7028C3.86442 25.2389 5.81979 24.433 7.92375 24.433C10.0277 24.433 11.9842 25.2389 13.4324 26.7028L14.6954 27.9802L14.7223 26.1884C14.7514 24.2422 14.7858 22.0357 14.1904 19.8655C12.6819 14.3668 7.64595 10.1894 1.94351 9.70719L1.12626 9.63753V28.0091ZM14.7234 17.4864V7.52635C14.7234 5.76238 13.5099 3.76801 12.3675 2.78636C11.1163 1.7104 9.59378 1.14242 7.96574 1.14242C4.61491 1.14242 1.7863 3.51509 1.23932 6.78368C1.09073 7.67316 1.02612 8.32581 1.56342 8.62588C1.77661 8.74483 2.03718 8.7802 2.72846 8.84986C2.90935 8.86807 3.11501 8.88951 3.19684 8.90344C6.86316 9.57216 10.046 11.4465 12.403 14.3239L14.7234 17.4864Z" fill="black"/>
<path d="M7.92384 35.2022C6.21181 35.2022 4.81958 33.8165 4.81958 32.1126C4.81958 30.4086 6.21181 29.0229 7.92384 29.0229C9.63586 29.0229 11.0281 30.4086 11.0281 32.1126C11.0281 33.8165 9.63586 35.2022 7.92384 35.2022ZM7.92491 30.3968C6.97415 30.3968 6.19997 31.1663 6.19997 32.1136C6.19997 33.061 6.97307 33.8304 7.92491 33.8304C8.87676 33.8304 9.64986 33.061 9.64986 32.1136C9.64986 31.1663 8.87568 30.3968 7.92491 30.3968Z" fill="black"/>
<path d="M7.92382 34.9879C6.33131 34.9879 5.03491 33.6987 5.03491 32.1126C5.03491 30.5265 6.33024 29.2373 7.92382 29.2373C9.5174 29.2373 10.8127 30.5276 10.8127 32.1126C10.8127 33.6976 9.5174 34.9879 7.92382 34.9879ZM7.9249 30.1825C6.85569 30.1825 5.9846 31.0484 5.9846 32.1137C5.9846 33.1789 6.85461 34.0448 7.9249 34.0448C8.99518 34.0448 9.86519 33.1789 9.86519 32.1137C9.86519 31.0484 8.99518 30.1825 7.9249 30.1825Z" fill="black"/>
</g>
<defs>
<clipPath id="clip0_289_392">
<rect width="40" height="40" fill="white"/>
</clipPath>
</defs>
</svg>
