<svg width="42" height="42" viewBox="0 0 42 42" fill="none" xmlns="http://www.w3.org/2000/svg">
<g clip-path="url(#clip0_289_317)">
<path d="M0.32224 34.2405C0.661897 33.4338 1.16152 32.7049 1.81234 32.1206C6.30675 28.1286 11.6328 24.6287 16.0406 20.5917C18.611 18.2383 16.8076 16.3859 16.4953 13.5776C15.9245 8.45214 18.4883 3.67635 22.3987 0.531584C22.7176 0.275091 23.0046 0.142466 23.3837 -0.00112696L24.3676 -0.00112688C25.6518 0.440608 26.3519 1.71759 25.7767 3.00881C25.6967 3.18858 25.4622 3.42753 25.4425 3.50316C25.3746 3.75418 26.2138 4.36033 26.3771 4.59271C27.0805 3.82104 28.2408 3.76404 29.0834 4.34827L37.6076 12.8859C37.9747 13.5042 38.082 14.1388 37.8344 14.8261C37.7281 15.1231 37.5068 15.3226 37.3644 15.589C37.5748 15.7348 38.1565 16.4955 38.3516 16.4944C38.4261 16.4944 38.8194 16.1732 39.0265 16.0998C40.2284 15.669 41.6692 16.3135 41.8993 17.619C41.9443 17.8733 41.8413 18.178 42.0012 18.3786L42.0012 18.543C41.7437 18.8839 41.6331 19.2226 41.3471 19.5701C37.8103 23.8647 32.8601 26.3003 27.2218 25.2469C25.5783 24.94 24.2855 24.0346 22.5894 24.8457C21.8991 25.1756 21.4148 25.8147 20.9251 26.3803C17.0793 30.8272 13.6236 35.6425 9.81177 40.1223C7.12521 43.1016 2.12022 42.4516 0.431809 38.7554C-0.377887 37.017 0.177617 34.5847 0.323338 34.2394L0.32224 34.2405ZM5.76549 40.5904C6.24978 40.564 6.76912 40.4325 7.24792 40.2242C7.72673 40.016 8.18033 39.6915 8.5408 39.2947C12.6693 34.7623 16.1841 29.433 20.2677 24.9027C20.6577 24.4697 21.0818 24.0576 21.5847 23.7584C24.326 22.1262 26.1766 23.8526 28.919 24.0379C33.3269 24.336 37.5726 22.0561 40.2383 18.6252C40.8869 17.7911 40.1101 17.0282 39.2522 17.6387C38.5904 18.11 38.0305 18.8653 37.2351 19.3947C27.2931 26.0207 15.6823 13.5644 22.9378 4.10603C23.2512 3.69718 24.3282 2.73807 24.4542 2.42349C24.7555 1.67264 24.0357 1.14432 23.341 1.63757C22.6825 2.10451 21.1431 3.79473 20.5964 4.47104C18.2396 7.38452 17.3762 11.0905 18.1739 14.7669C18.3492 15.5736 18.7579 16.4133 18.8488 17.209C19.0559 19.0253 18.3371 20.4711 17.0234 21.656C12.6046 25.6426 7.24244 29.0877 2.87733 33.1028C-0.151084 35.888 1.73346 40.8041 5.7644 40.5871L5.76549 40.5904ZM32.4219 19.6676C34.1201 19.5043 35.997 18.6778 37.2417 17.517L36.3005 16.5744C35.5883 17.38 34.3338 17.4173 33.5098 16.7388L25.07 8.28005C24.5276 7.43275 24.5923 6.31032 25.3505 5.61867L24.4082 4.67711C19.0635 11.0795 24.0554 20.4722 32.4219 19.6665L32.4219 19.6676ZM35.0503 15.7337C35.3714 15.6471 36.9174 14.2331 36.4276 13.7387L28.2627 5.57921C27.7839 4.92264 26.3376 6.46378 26.216 6.81344C26.1043 7.1379 26.1623 7.37356 26.3837 7.62238L34.2078 15.4662C34.485 15.6876 34.6625 15.8367 35.0493 15.7326L35.0503 15.7337Z" fill="black"/>
<path d="M2.70525 36.4064C2.70525 34.8466 3.96855 33.5828 5.52768 33.5828C7.0868 33.5828 8.3501 34.8466 8.3501 36.4064C8.3501 37.9662 7.0868 39.23 5.52768 39.23C3.96855 39.23 2.70525 37.9662 2.70525 36.4064ZM4.15481 36.4042C4.15481 37.1638 4.76948 37.7787 5.52877 37.7787C6.28807 37.7787 6.90273 37.1638 6.90273 36.4042C6.90273 35.6446 6.28807 35.0297 5.52877 35.0297C4.76948 35.0297 4.15481 35.6446 4.15481 36.4042Z" fill="black"/>
</g>
<defs>
<clipPath id="clip0_289_317">
<rect width="42" height="42" fill="white" transform="translate(42 42) rotate(-180)"/>
</clipPath>
</defs>
</svg>
