<svg width="58" height="50" viewBox="0 0 58 50" fill="none" xmlns="http://www.w3.org/2000/svg">
<path d="M33.0842 5.22236C33.1324 5.59688 32.943 6.91457 33.1995 7.08981C38.2334 7.6533 44.1521 8.96584 47.7725 12.7368C48.0204 12.9962 48.3338 13.6078 48.5507 13.7607C48.8416 13.9652 49.4562 13.9841 49.8332 14.1541C51.6581 14.977 52.0472 17.5678 50.6734 18.9834C50.3583 19.3081 49.377 19.7049 49.3374 19.7702C49.2359 19.9317 49.3598 20.4213 49.3168 20.6498C51.4842 19.9729 53.5931 17.8478 55.8794 19.4369C57.9917 20.9041 57.6577 23.8332 55.5058 25.0908C53.9736 25.9858 51.9336 26.6851 50.2998 27.4839C50.0691 27.5973 49.4063 27.8602 49.3357 28.0646L49.3133 42.1881C48.7073 46.0037 45.7618 48.6443 41.9038 48.9398C33.2719 48.4999 24.046 49.5307 15.483 48.9466C11.5079 48.6752 8.42634 45.9092 7.9443 41.9373L7.92879 28.0646C7.79279 27.6712 2.7314 25.6251 1.93431 25.1732C-1.92198 22.9845 0.514059 17.6846 4.63375 19.1363C5.04348 19.2806 7.82724 20.7855 7.94775 20.6498C8.06998 19.5623 7.91676 19.9111 7.34175 19.5194C5.13127 18.0127 5.25351 15.178 7.73083 14.0682C8.03554 13.9308 8.45216 13.9342 8.71555 13.7659C8.97895 13.5975 9.33704 12.9034 9.61937 12.6114C13.2467 8.8662 19.3255 7.70656 24.2957 7.00219L24.3128 5.22064C21.5601 5.09008 19.6182 2.53716 22.8495 0.994419C25.5438 -0.290628 31.2008 -0.2975 33.976 0.784827C37.5327 2.17295 36.338 4.86159 33.0825 5.22408L33.0842 5.22236ZM23.0286 3.03022C25.2924 3.8686 28.0349 3.94591 30.4451 3.81019C30.8789 3.78613 34.248 3.35664 34.2377 2.96838C34.0414 2.75019 33.7625 2.65742 33.5008 2.54919C31.144 1.57166 25.9053 1.54761 23.5864 2.62306C23.3901 2.71412 23.1043 2.80517 23.0303 3.03022H23.0286ZM31.2749 5.60375H26.1205V6.89052H31.2749V5.60375ZM46.2231 13.8346C45.624 13.0529 44.7529 12.4619 43.9059 11.9671C36.3638 7.56912 21.0075 7.54507 13.4516 11.9311C12.6114 12.419 11.6491 13.0838 11.0431 13.8346H46.2231ZM8.55714 15.6608C7.26253 16.135 7.25394 17.8272 8.65528 18.0797C22.1075 18.0093 35.5942 18.2086 49.0241 17.9784C50.1517 17.3204 49.7747 15.7484 48.4801 15.6299L8.55542 15.6608H8.55714ZM47.5126 19.8784H9.75538V42.061C9.75538 44.8853 13.1881 46.9813 15.7412 47.1462C24.275 47.7011 33.4233 46.7321 42.0191 47.1238C44.1452 47.2389 47.5126 44.406 47.5126 42.3187V19.8784ZM7.95115 22.5791C6.72196 22.4279 4.58896 20.7323 3.49061 20.655C2.9552 20.6172 2.11854 21.0071 1.95327 21.5432C1.42647 23.2457 2.9638 23.6425 4.16889 24.2318C5.40497 24.8365 6.7013 25.3519 7.95287 25.9223V22.5791H7.95115ZM49.3168 25.9223C50.9953 25.1045 52.8907 24.5032 54.5124 23.5841C56.2684 22.5894 55.3629 20.4557 53.7739 20.6515C53.3073 20.7082 51.1468 21.7957 50.558 22.0826C50.1362 22.2888 49.6852 22.4795 49.315 22.7715V25.9223H49.3168Z" fill="black"/>
<path d="M14.2711 22.4434H12.3257V33.9006H14.2711V22.4434Z" fill="black"/>
<path d="M14.2661 39.2968H12.3328V35.7612C12.3328 35.4709 14.2661 35.4709 14.2661 35.7612V39.2968Z" fill="black"/>
</svg>
