<svg width="54" height="63" viewBox="0 0 54 63" fill="none" xmlns="http://www.w3.org/2000/svg">
<g clip-path="url(#clip0_2149_3096)">
<path d="M42.0159 7.91773C42.7949 8.6661 43.3283 9.87719 43.2198 10.9974C43.1977 11.2253 43.0178 12.0907 42.9252 12.2412L34.8098 25.4202L32.3988 23.9356L30.6334 26.8025C30.7387 26.8741 30.8093 26.9754 30.8633 27.0903C32.2355 30.022 33.7034 33.1129 34.953 36.0915C36.1875 39.0336 36.7293 41.9964 35.1426 45.0771C33.1034 49.0339 30.0447 52.873 27.9134 56.8275C25.9262 59.5 21.8014 57.0518 23.1034 54.0815C23.5682 53.0226 24.9648 51.4506 25.221 50.5013C25.4899 49.5019 24.1155 48.6352 23.3858 49.5668C21.9548 51.3947 20.8547 54.0319 19.4582 55.9558C18.5686 57.1818 17.3925 57.6463 15.9829 57.1916L15.0006 56.5867C14.2076 55.4692 14.0587 54.3163 14.7183 53.0371C16.4349 49.7082 19.0231 46.4756 20.8078 43.1427C21.2379 42.1269 19.7461 41.2083 19.0314 42.0488C16.859 45.1447 15.1371 48.909 12.9371 51.9403C12.0624 53.1448 10.8324 53.5796 9.46184 53.176L8.47958 52.5712C7.92277 51.8167 7.44826 50.6113 7.83885 49.6597C8.72088 47.5073 10.9253 45.0927 11.9609 42.9176C12.6708 41.4262 11.095 40.4065 10.0844 41.757C9.25788 42.8619 8.54916 44.8795 7.35743 45.5215C4.87667 46.8595 2.28928 44.2186 3.58254 41.7157C6.11359 38.0908 8.13192 33.7011 10.7065 30.1574C12.9821 27.0247 16.0745 26.3814 19.5662 26.183C22.6441 26.0086 25.7601 25.9325 28.8401 25.8427C28.967 25.8393 29.0892 25.8567 29.2006 25.9185L30.966 23.0516L28.555 21.567L36.6705 8.38789C36.7631 8.23746 37.4549 7.6873 37.6485 7.56499C38.562 6.98811 39.754 6.94834 40.7618 7.14375L42.0119 7.91357L42.0159 7.91773ZM37.9901 9.45558L30.9855 20.8307C30.9794 20.8405 31.0255 21.0458 31.0338 21.0509L34.1592 22.9754C34.1687 22.9813 34.3722 22.9281 34.3775 22.9195L41.3821 11.5444C41.5606 11.2546 41.4582 10.1728 41.311 9.84922C40.7406 8.59153 38.8741 8.42519 37.9889 9.45484L37.9901 9.45558ZM29.1418 27.5608L17.6673 28.0748C15.5052 28.4339 13.4668 29.4269 12.1143 31.2793C9.58162 34.7468 7.59215 39.0897 5.11704 42.6504C4.75432 44.0155 6.21363 44.7576 7.09836 43.6222C8.26817 42.1198 8.74583 39.7201 10.8948 39.4516C13.1803 39.1668 14.6551 41.5291 13.6347 43.5809L9.50437 50.403C9.3827 51.4539 10.7207 52.1077 11.3965 51.245C13.5827 48.1373 15.318 44.2739 17.5451 41.2492C18.3965 40.0933 19.7677 39.6077 21.0378 40.2759C22.7738 41.1901 22.9291 42.8605 22.056 44.5371C20.3543 47.8072 17.8438 50.9721 16.0803 54.2466C15.7565 55.4178 17.0852 56.0575 17.9125 55.2472C19.4202 53.2761 20.5812 50.2921 22.1361 48.4469C23.4503 46.8888 25.9991 47.2883 26.8064 49.0813C27.7343 51.1425 25.7288 52.8259 24.8621 54.5642C24.1478 55.9934 25.945 56.9708 26.8021 55.6296C28.7927 51.9303 31.6708 48.3337 33.5593 44.6242C35.1981 41.4056 34.3596 38.9913 33.0698 36.0271C31.8294 33.1749 30.4218 30.3915 29.1413 27.5588L29.1418 27.5608Z" fill="#040404"/>
</g>
<defs>
<clipPath id="clip0_2149_3096">
<rect width="28.8389" height="55.6073" fill="white" transform="translate(29.1573) rotate(31.624)"/>
</clipPath>
</defs>
</svg>
