<svg width="30" height="26" viewBox="0 0 30 26" fill="none" xmlns="http://www.w3.org/2000/svg">
<g clip-path="url(#clip0_2945_10108)">
<path d="M17.4988 0V0.962054H16.4994V1.89432C16.4994 2.03451 17.0828 1.97405 17.2166 1.98544C19.5849 2.18346 24.1414 3.07542 25.2973 5.32897C25.3537 5.4385 25.4175 5.75217 25.4357 5.76619C25.4557 5.78284 25.7542 5.77145 25.8707 5.79949C26.243 5.88798 26.5825 6.10703 26.7818 6.42509C26.8219 6.48992 26.9912 6.84916 26.9912 6.88508V8.65849H29.7081C29.7281 8.65849 29.9593 8.8863 29.9757 8.9415C30.013 9.06154 30.0076 9.26218 29.9566 9.37959C29.9193 9.46458 29.2667 10.0674 29.1174 10.2549C28.9608 10.452 28.3173 11.5447 28.209 11.5447H26.9912V20.3521C26.9912 20.5676 26.679 21.393 26.5652 21.6261C26.0774 22.6267 25.0798 23.4547 24.0039 23.8192C24.003 24.5201 24.0749 25.2798 23.3895 25.7231C22.8953 26.0429 21.9878 26.0202 21.399 25.9763C20.2366 25.8896 19.9326 25.045 19.9608 24.0487H10.5039C10.6359 24.8951 10.2473 25.8405 9.28063 25.9685C8.92838 26.0149 7.97359 26.0096 7.62862 25.9466C6.63378 25.7652 6.40168 24.7681 6.50454 23.9322C5.20933 23.7272 3.99331 22.7537 3.43536 21.6261C3.3225 21.3974 3.00939 20.565 3.00939 20.3521V11.5447H1.79155C1.68597 11.5447 1.05975 10.4775 0.910482 10.2882C0.76121 10.0989 0.0812952 9.46283 0.0439772 9.37784C-0.00790386 9.26043 -0.013365 9.05978 0.0248631 8.93974C0.0421568 8.88455 0.272436 8.65674 0.29246 8.65674H3.00939V6.82288C3.00939 6.79659 3.2242 6.41282 3.26971 6.35149C3.47632 6.06848 3.78214 5.8801 4.13075 5.79774C4.24634 5.77057 4.54489 5.78109 4.56582 5.76444C4.58403 5.74955 4.64865 5.43587 4.70417 5.32722C5.8583 3.07542 10.4175 2.18171 12.7849 1.98369C12.9187 1.9723 13.5021 2.03276 13.5021 1.89257V0.960302H12.5027V0H17.4988ZM14.5006 0.962054V1.92411H15.5V0.962054H14.5006ZM24.3061 5.77145C24.1923 5.34737 23.7982 5.06524 23.4514 4.82079C19.8498 2.28072 10.1508 2.28072 6.54913 4.82079C6.20235 5.06524 5.80824 5.34737 5.69446 5.77145H24.3061ZM25.9927 7.69556C26.0182 7.1935 26.0018 6.79922 25.3993 6.7335C18.3844 6.7703 11.3531 6.65903 4.34829 6.78958C3.96509 6.93327 3.99877 7.36348 4.00878 7.69556H25.9927ZM25.9927 8.65761H4.00878V19.8097C4.00878 21.4771 5.68263 23.0867 7.41291 23.0867H11.0036V17.6455C11.0036 17.3906 11.3668 16.5827 11.5152 16.3348C13.0661 13.7448 17.051 13.7789 18.53 16.4119C18.662 16.6467 18.997 17.4116 18.997 17.6455V23.0867H22.5877C24.3198 23.0867 25.9918 21.4754 25.9918 19.8097V8.65761H25.9927ZM3.00939 9.61967H1.6978C1.87711 9.73007 2.25666 10.5256 2.33494 10.5686C2.4478 10.6317 2.84829 10.5502 3.00939 10.5817V9.61967ZM28.3028 9.61967H26.9912V10.5817C27.1523 10.5511 27.5528 10.6325 27.6656 10.5686C27.7439 10.5248 28.1235 9.73007 28.3028 9.61967ZM17.9985 23.0867V18.187C17.9985 16.6817 16.5048 15.3859 14.9766 15.3972C13.4675 15.4086 12.003 16.701 12.003 18.187V23.0867H13.5021V21.4333C13.5021 21.3991 13.7561 21.181 13.8471 21.1643C14.1939 21.1004 15.642 21.1214 16.0352 21.1591C16.159 21.1705 16.4994 21.3124 16.4994 21.4333V23.0867H17.9985ZM14.5006 22.1246V23.0867H15.5V22.1246H14.5006ZM9.50454 24.0479H7.50575C7.38924 25.0195 7.94901 25.0765 8.78821 25.0125C9.48633 24.9591 9.53002 24.6787 9.50363 24.0479H9.50454ZM22.9945 24.0479H20.9957C20.8792 25.0195 21.439 25.0765 22.2782 25.0125C22.9763 24.9591 23.02 24.6787 22.9936 24.0479H22.9945Z" fill="black"/>
<path d="M13.2956 17.3289L16.5959 17.3131C16.7161 17.3009 16.9263 17.4665 16.9664 17.5585C17.0265 17.6987 17.0365 19.5702 17.0019 19.8147C16.9737 20.0206 16.8062 20.1783 16.5959 20.2054C16.0261 20.2782 13.9746 20.2782 13.4039 20.2054C13.2355 20.1835 13.0362 20.039 13.0025 19.8699C12.9433 19.572 12.9524 18.0299 12.9979 17.7039C13.0234 17.5208 13.1372 17.4218 13.2956 17.3289ZM14.001 18.2778V19.2399H15.9998V18.2778H14.001Z" fill="black"/>
</g>
<defs>
<clipPath id="clip0_2945_10108">
<rect width="30" height="26" fill="white"/>
</clipPath>
</defs>
</svg>
