<svg width="52" height="50" viewBox="0 0 52 50" fill="none" xmlns="http://www.w3.org/2000/svg">
<g clip-path="url(#clip0_1995_983)">
<path d="M40.0434 1.85156C40.4845 2.06624 40.6127 2.183 40.4707 2.70023L31.9371 20.0816C37.7221 17.3561 43.4493 14.5012 49.184 11.669C49.7546 11.5121 49.7571 11.6816 50.0348 12.0946V13.4103C49.4077 15.6324 47.6494 17.2393 45.9754 18.7132L27.7998 29.4421C27.1525 31.9404 26.0817 34.5115 26.2778 37.1416C26.4161 38.9934 27.5874 39.6198 28.0448 41.2996C29.5216 46.7067 24.4995 51.4422 19.1631 49.5904C14.1913 47.8655 13.1406 41.272 17.1875 37.9388C17.6726 37.5396 18.1916 37.3601 18.6403 37.0374C19.8569 36.1649 22.7148 33.7018 23.1735 32.3484C23.3834 31.7282 23.5091 29.3617 22.9775 28.965C22.6218 28.7001 21.1338 28.5884 20.6725 28.6336C18.8389 28.8144 16.8331 31.0541 15.6743 32.3898C13.9022 34.4349 13.4083 36.3181 10.4436 37.1366C6.3854 38.2564 2.52581 35.6954 1.773 31.6403C1.82955 30.9838 1.69633 30.2129 1.773 29.5727C2.32096 25.0192 7.6535 22.5222 11.674 24.5409C12.8968 25.1548 12.9069 25.6971 14.5407 25.8177C17.2365 26.0173 19.9172 25.0255 22.4836 24.379L33.312 6.08863C34.7485 4.29462 36.4641 2.54456 38.7238 1.85156H40.0434ZM23.8308 23.9345C24.1212 23.9672 24.3625 23.8366 24.6176 23.7337C26.5769 22.949 28.6456 21.6396 30.566 20.737C33.4905 14.7172 36.5483 8.75641 39.3823 2.69772C37.1578 3.05301 35.5843 4.8784 34.1579 6.46275L23.8308 23.9345ZM15.3475 29.7145C15.4003 30.2368 15.3086 30.8281 15.3475 31.3591C16.412 30.3272 17.3282 29.142 18.6453 28.3976C21.3009 26.8948 23.6159 28.0963 25.9988 29.4308L45.3533 17.9989C46.9796 16.5903 48.8371 14.9984 49.1865 12.7537L24.5837 24.733C21.1702 25.5616 17.6927 27.0869 14.1234 26.6626C14.6676 27.5351 15.2432 28.6813 15.3488 29.7158L15.3475 29.7145ZM14.4452 30.6059C14.4452 27.3593 11.8059 24.728 8.54833 24.728C5.29074 24.728 2.65149 27.3593 2.65149 30.6059C2.65149 33.8524 5.29074 36.4838 8.54833 36.4838C11.8059 36.4838 14.4452 33.8524 14.4452 30.6059ZM20.8146 36.4336H22.3705C22.5439 36.4336 23.2087 36.6282 23.4312 36.6909C24.1438 36.8918 24.8363 37.2207 25.432 37.6551C25.0424 35.1053 25.9561 32.5555 26.6586 30.1376C26.4324 30.125 26.3406 30.351 26.1195 30.4C25.4948 30.5406 24.8702 29.7108 24.2556 29.5714C24.316 30.8394 24.4366 31.8638 23.8799 33.0514C23.21 34.4814 21.913 35.3727 20.8146 36.4323V36.4336ZM27.3951 43.2091C27.3951 39.9626 24.7558 37.3312 21.4995 37.3312C18.2432 37.3312 15.6039 39.9626 15.6039 43.2091C15.6039 46.4556 18.2432 49.087 21.4995 49.087C24.7558 49.087 27.3951 46.4556 27.3951 43.2091Z" fill="black" stroke="black" stroke-width="0.2"/>
<path d="M27.7765 26.6233C27.7765 27.4807 27.079 28.1762 26.2181 28.1762C25.3572 28.1762 24.6597 27.4807 24.6597 26.6233C24.6597 25.7658 25.3572 25.0703 26.2181 25.0703C27.079 25.0703 27.7765 25.7658 27.7765 26.6233ZM26.854 26.6132C26.854 26.2655 26.5712 25.983 26.2219 25.983C25.8725 25.983 25.5897 26.2655 25.5897 26.6132C25.5897 26.961 25.8725 27.2435 26.2219 27.2435C26.5712 27.2435 26.854 26.961 26.854 26.6132Z" fill="black" stroke="black" stroke-width="0.2"/>
<path d="M12.7377 30.6068C12.7377 32.9092 10.865 34.7761 8.55633 34.7761C6.24761 34.7761 4.375 32.9092 4.375 30.6068C4.375 28.3043 6.24761 26.4375 8.55633 26.4375C10.865 26.4375 12.7377 28.3043 12.7377 30.6068ZM11.8114 30.608C11.8114 28.8115 10.3498 27.354 8.54753 27.354C6.7453 27.354 5.28366 28.8103 5.28366 30.608C5.28366 32.4058 6.7453 33.8621 8.54753 33.8621C10.3498 33.8621 11.8114 32.4058 11.8114 30.608Z" fill="black" stroke="black" stroke-width="0.2"/>
<path d="M25.6839 43.2069C25.6839 45.5106 23.81 47.3787 21.4988 47.3787C19.1876 47.3787 17.3137 45.5106 17.3137 43.2069C17.3137 40.9032 19.1876 39.0352 21.4988 39.0352C23.81 39.0352 25.6839 40.9032 25.6839 43.2069ZM24.769 43.2095C24.769 41.4117 23.3073 39.9541 21.5038 39.9541C19.7004 39.9541 18.2387 41.4117 18.2387 43.2095C18.2387 45.0072 19.7004 46.4648 21.5038 46.4648C23.3073 46.4648 24.769 45.0072 24.769 43.2095Z" fill="black" stroke="black" stroke-width="0.2"/>
</g>
<defs>
<clipPath id="clip0_1995_983">
<rect width="52" height="50" fill="white"/>
</clipPath>
</defs>
</svg>
