<svg width="69" height="58" viewBox="0 0 69 58" fill="none" xmlns="http://www.w3.org/2000/svg">
<g clip-path="url(#clip0_289_500)">
<path d="M59.3987 3.17302C59.115 2.2392 58.3658 1.50678 57.1721 0.995518C56.464 0.692742 55.7856 0.614945 55.098 0.757448C53.8564 1.01474 52.8283 1.95523 51.8332 2.86478C51.5928 3.08477 51.344 3.31215 51.1 3.52154C49.0015 5.32764 43.9837 9.78632 41.2844 13.3646L41.2819 13.3524L40.9391 13.8332C40.8011 13.9015 40.7343 14.0146 40.6441 14.2659C40.3376 14.5208 40.1884 14.678 39.9515 14.9284L39.3064 15.6094L39.328 15.605C38.4294 16.5994 36.6633 18.6089 36.4332 19.3004C36.3706 19.4878 36.36 19.6743 36.3518 19.8391C36.3447 19.9611 36.3389 20.0757 36.312 20.1636C36.1774 20.6154 34.4735 22.6531 33.5576 23.7476C33.2099 24.1642 32.9081 24.5232 32.7455 24.7313C32.4064 25.1617 32.0885 25.5793 31.7816 25.9818C29.7133 28.6948 28.2187 30.6551 24.3052 31.5015C20.4536 32.3338 17.9285 32.952 14.6731 35.0773C10.8443 37.5766 8.00614 41.5453 7.44099 45.189C7.04253 47.7673 7.69406 50.1294 9.37937 52.2106C11.6137 54.9693 15.0359 56.0355 19.0186 55.2101C24.3982 54.0953 29.6568 49.8193 31.2503 45.2634C31.8459 43.5617 31.9274 42.1056 32.0139 40.5647C32.05 39.9163 32.0873 39.2463 32.1646 38.5383C32.6231 34.3665 35.8391 31.2554 38.9508 28.2467C40.0741 27.1603 41.1351 26.1336 42.065 25.066C43.788 24.7047 44.6897 24.3916 45.9345 23.0687C48.7787 20.0474 51.8586 15.8783 54.5765 12.1997C54.9373 11.7109 55.2896 11.2351 55.6299 10.7761C55.881 10.4376 56.1466 10.0876 56.4152 9.73134C57.1751 8.72731 57.9591 7.68993 58.5987 6.70373C59.4348 5.4145 59.7131 4.19406 59.403 3.17354L59.3987 3.17302ZM41.1084 23.598C40.0227 24.8454 38.802 26.0258 37.6196 27.167C36.7144 28.0409 35.7785 28.9438 34.91 29.8725C33.3401 31.5506 32.1767 33.2254 31.4527 34.8515C30.6428 36.6685 30.5198 38.5091 30.4012 40.2891C30.2837 42.0406 30.1632 43.8523 29.3696 45.6049C27.7643 49.1522 23.0783 52.6417 18.7011 53.5488C16.2626 54.0541 12.8785 54.0152 10.6112 50.9613C9.25082 49.129 8.80336 47.0989 9.27931 44.9286C10.1374 41.0257 13.8268 37.5002 17.1033 35.735C18.9769 34.7271 20.9811 34.1926 22.9215 33.6771C25.8928 32.8869 28.6996 32.1394 31.0597 29.8409L31.0739 29.828L37.6999 21.3195C38.3231 21.5392 40.6422 22.7148 40.856 22.8761C41.0999 23.0808 41.1644 23.256 41.1068 23.597L41.1084 23.598ZM57.3804 5.49566C56.2308 7.37311 54.5169 9.54617 53.005 11.4633C52.4907 12.1158 52.0039 12.7314 51.5489 13.3234C51.0682 13.9477 50.5689 14.6113 50.0411 15.3148C48.3324 17.5875 46.3947 20.1628 44.6406 21.9926C44.1541 22.5004 43.6005 22.9908 42.8562 23.1522C42.7174 22.4351 42.3712 21.8318 41.8621 21.4354C41.2601 20.9645 39.1253 19.9847 38.3777 19.6745C38.3391 19.6584 38.2992 19.6426 38.2566 19.6273C39.3403 18.1322 40.4692 16.7057 41.6181 15.3828L41.6363 15.362C41.8935 15.0662 42.1622 14.7581 42.4215 14.4662C45.6168 10.8744 49.2181 7.3247 52.5614 4.46796C52.698 4.35175 52.85 4.2153 53.0115 4.06982C53.7222 3.43333 54.6967 2.56065 55.4506 2.40443C55.5006 2.39407 55.5498 2.38671 55.5968 2.38263C55.9063 2.35963 57.0636 2.92664 57.3808 3.21967C57.9608 3.75459 57.7524 4.88397 57.3788 5.49458L57.3804 5.49566Z" fill="#040000"/>
</g>
<defs>
<clipPath id="clip0_289_500">
<rect width="60" height="46" fill="white" transform="translate(0 12.1753) rotate(-11.7077)"/>
</clipPath>
</defs>
</svg>
