<svg width="59" height="45" viewBox="0 0 59 45" fill="none" xmlns="http://www.w3.org/2000/svg">
<g clip-path="url(#clip0_2212_50974)">
<path d="M58.9999 19.99V23.0559C58.6773 23.9411 58.0381 24.4756 57.0686 24.6119L52.1181 25.3041V36.1299C52.1181 39.1162 49.5876 41.3077 46.6821 41.078C46.5715 41.0688 46.3656 41.0856 46.295 41.104C46.2012 41.127 46.1889 41.4088 46.2028 41.5206C46.4271 43.3215 45.1872 44.9694 43.3311 44.9847L41.3691 45C39.6083 45.0138 38.2823 43.614 38.3469 41.8682C38.3561 41.6216 38.3361 41.3598 38.3161 41.0856H20.6807C20.6638 41.4103 20.6515 41.6783 20.653 41.9922C20.6576 43.6156 19.4146 44.9908 17.7476 44.9893L15.6718 44.9862C13.8127 44.9847 12.5712 43.3139 12.7971 41.5236C12.8063 41.4471 12.7771 41.2219 12.7541 41.153C12.7218 41.0627 12.4744 41.0611 12.33 41.0734C9.45683 41.3062 6.89863 39.1744 6.89555 36.2463L6.88326 25.3102L1.62396 24.543C0.766621 24.4174 0.322585 23.7665 0.00146484 23.0697V19.9746C0.330267 19.1048 0.950996 18.5703 1.91282 18.434L6.8848 17.7311L6.88019 15.6636L5.87227 15.6437C4.30816 15.6131 3.08821 14.4078 2.98527 12.9285C2.88079 11.4307 3.91175 10.08 5.46665 9.83188C10.2358 7.07528 16.1635 5.87922 21.6225 5.28349L21.6348 3.91897C21.6517 1.74432 23.371 -0.00305887 25.585 4.02043e-06L33.5331 0.0122556C35.7011 0.0153185 37.3466 1.82242 37.3681 3.91132L37.382 5.27583C42.8579 5.88382 48.7333 7.06456 53.5209 9.83188C55.1403 10.0601 56.1928 11.4904 56.0315 13.0357C55.8702 14.5809 54.598 15.6514 53.0139 15.6575L52.1197 15.6606L52.132 17.7357L57.19 18.4493C58.1165 18.5795 58.6911 19.1645 59.003 19.9884L58.9999 19.99ZM35.3723 5.09206L35.3953 3.91744C35.4168 2.83012 34.5242 1.95719 33.4179 1.95719H25.5804C24.4726 1.95719 23.58 2.82705 23.603 3.91897L23.6291 5.09512C27.6055 4.82406 31.3898 4.82865 35.3723 5.09206ZM48.6672 9.77216C45.751 8.66033 42.7872 7.99568 39.6774 7.55003C33.0753 6.6036 26.447 6.64035 19.8264 7.46121C16.5445 7.97424 13.404 8.56844 10.3295 9.77522H48.6672V9.77216ZM53.0323 13.6927C53.7959 13.6927 54.114 13.1306 54.0602 12.5915C54.0095 12.0831 53.61 11.737 52.9816 11.737H6.01824C5.34527 11.737 4.93657 12.1413 4.93196 12.6988C4.92735 13.2562 5.34219 13.6911 6.01977 13.6911H53.0323V13.6927ZM33.9326 35.2033L47.1231 35.2156C48.8393 35.2064 50.1376 33.9414 50.1515 32.2277L50.1453 15.6483H8.85608L8.84993 32.3441C8.92675 34.0103 10.2097 35.2141 11.8768 35.2141L25.0857 35.2079C22.9285 32.6826 23.1636 29.1541 25.5174 26.978C27.7899 24.8768 31.4113 24.8937 33.653 27.1112C35.8563 29.292 36.0145 32.7209 33.9342 35.2033H33.9326ZM6.88326 23.3163L6.87712 19.7189L1.9712 20.4111V22.6286L6.88173 23.3163H6.88326ZM57.0425 22.6256L57.0087 20.405L52.1289 19.7158L52.1243 23.33L57.0409 22.6256H57.0425ZM26.8357 30.0225L26.1197 29.3563C25.0688 31.0945 25.5835 33.2538 27.1384 34.4254C28.7117 35.6107 30.9273 35.43 32.2978 34.0456C33.6852 32.6428 33.8128 30.4329 32.5882 28.8892C31.3637 27.3455 29.2556 26.9044 27.5548 27.9428L28.1817 28.612C28.5642 29.0194 28.6119 29.5906 28.2308 30.001C27.8959 30.3609 27.2844 30.4406 26.8357 30.024V30.0225ZM50.1253 36.2371C49.1067 36.8328 48.3046 37.1559 47.2245 37.1697H11.7753C10.6568 37.1697 9.79946 36.793 8.85608 36.2049C8.8991 38.0181 10.2896 39.1315 12.0074 39.1315L47.1108 39.1284C48.7733 39.1284 50.1161 37.9186 50.1238 36.2386L50.1253 36.2371ZM17.8213 43.0229C18.2961 43.0183 18.6756 42.5022 18.674 42.1255L18.671 41.0841L14.7453 41.0918L14.776 42.2051C14.7899 42.6936 15.3123 43.0489 15.7747 43.0443L17.8213 43.0229ZM43.2973 43.0382C43.7475 43.0382 44.2223 42.6186 44.2269 42.2143L44.2407 41.0856L40.3274 41.0887V42.1178C40.3289 42.5834 40.7606 43.0321 41.2462 43.0336L43.2989 43.0382H43.2973Z" fill="black"/>
<path d="M23.2422 26.0465C23.7827 26.0465 24.2209 25.6111 24.2209 25.074C24.2209 24.5369 23.7827 24.1016 23.2422 24.1016C22.7016 24.1016 22.2634 24.5369 22.2634 25.074C22.2634 25.6111 22.7016 26.0465 23.2422 26.0465Z" fill="black"/>
<path d="M35.7566 26.0465C36.2971 26.0465 36.7353 25.6111 36.7353 25.074C36.7353 24.5369 36.2971 24.1016 35.7566 24.1016C35.216 24.1016 34.7778 24.5369 34.7778 25.074C34.7778 25.6111 35.216 26.0465 35.7566 26.0465Z" fill="black"/>
<path d="M20.65 32.2739C21.1897 32.2739 21.6272 31.8392 21.6272 31.303C21.6272 30.7667 21.1897 30.332 20.65 30.332C20.1104 30.332 19.6729 30.7667 19.6729 31.303C19.6729 31.8392 20.1104 32.2739 20.65 32.2739Z" fill="black"/>
<path d="M38.3485 32.2739C38.8882 32.2739 39.3257 31.8392 39.3257 31.303C39.3257 30.7667 38.8882 30.332 38.3485 30.332C37.8088 30.332 37.3713 30.7667 37.3713 31.303C37.3713 31.8392 37.8088 32.2739 38.3485 32.2739Z" fill="black"/>
<path d="M29.5001 23.4692C30.0389 23.4692 30.4757 23.0345 30.4757 22.4983C30.4757 21.962 30.0389 21.5273 29.5001 21.5273C28.9612 21.5273 28.5244 21.962 28.5244 22.4983C28.5244 23.0345 28.9612 23.4692 29.5001 23.4692Z" fill="black"/>
</g>
<defs>
<clipPath id="clip0_2212_50974">
<rect width="59" height="45" fill="white"/>
</clipPath>
</defs>
</svg>
