<svg width="39" height="39" viewBox="0 0 39 39" fill="none" xmlns="http://www.w3.org/2000/svg">
<g clip-path="url(#clip0_812_7883)">
<path d="M2.97058 39H2.05673C1.68569 38.7641 1.30779 38.6794 0.950493 38.3931C0.437456 37.9831 0.300035 37.4953 0 36.9434V35.8761C0.210712 35.3998 0.387068 34.9211 0.760395 34.541L12.8672 22.4143C12.9015 22.2769 12.2969 21.4432 12.1755 21.2234C8.71935 14.8635 10.4508 6.92559 16.3118 2.70702C21.2865 -0.874869 27.8964 -0.88403 32.9375 2.5719L36.9089 0.144274C37.6327 -0.167194 38.558 0.112211 38.8695 0.85653C39.1809 1.60085 38.8511 2.11157 38.5053 2.73221C38.2442 3.20171 36.4119 5.90186 36.4325 6.11714C39.7512 10.8327 39.852 17.2063 36.7234 22.0524C33.194 27.5169 26.4329 29.8987 20.2054 27.9016C18.916 27.4871 17.7548 26.7955 16.5821 26.1382L4.42037 38.2786L3.88901 38.661L2.97287 39.0023L2.97058 39ZM37.7014 14.2955C37.7014 7.11797 31.8839 1.30083 24.706 1.30083C17.528 1.30083 11.7105 7.11797 11.7105 14.2955C11.7105 21.473 17.528 27.2901 24.706 27.2901C31.8839 27.2901 37.7014 21.473 37.7014 14.2955ZM37.6372 1.36496L34.133 3.46279L35.5416 4.94456L37.596 1.74284L37.6372 1.36496ZM13.6757 23.4609L1.7544 35.3837C0.490134 36.7144 2.18728 38.5328 3.5821 37.2869L15.4323 25.3618V25.2106L13.6757 23.4586V23.4609Z" fill="#030303"/>
<path d="M36.4005 14.295C36.4005 20.7534 31.1648 25.9889 24.706 25.9889C18.2472 25.9889 13.0115 20.7534 13.0115 14.295C13.0115 7.83665 18.2472 2.60352 24.706 2.60352C31.1648 2.60352 36.4005 7.83894 36.4005 14.2973V14.295ZM35.0973 14.2973C35.0973 8.55806 30.4456 3.90665 24.706 3.90665C18.9664 3.90665 14.3147 8.55806 14.3147 14.2973C14.3147 20.0366 18.9664 24.688 24.706 24.688C30.4456 24.688 35.0973 20.0366 35.0973 14.2973Z" fill="#030303"/>
<path d="M27.3056 12.3504C27.6699 12.3504 27.9652 12.0551 27.9652 11.6908C27.9652 11.3266 27.6699 11.0312 27.3056 11.0312C26.9413 11.0312 26.646 11.3266 26.646 11.6908C26.646 12.0551 26.9413 12.3504 27.3056 12.3504Z" fill="#030303"/>
<path d="M28.6087 22.7443C28.9718 22.7443 29.2661 22.45 29.2661 22.087C29.2661 21.724 28.9718 21.4297 28.6087 21.4297C28.2457 21.4297 27.9514 21.724 27.9514 22.087C27.9514 22.45 28.2457 22.7443 28.6087 22.7443Z" fill="#030303"/>
<path d="M28.6042 9.7469C28.9685 9.7469 29.2638 9.45159 29.2638 9.08732C29.2638 8.72304 28.9685 8.42773 28.6042 8.42773C28.2399 8.42773 27.9446 8.72304 27.9446 9.08732C27.9446 9.45159 28.2399 9.7469 28.6042 9.7469Z" fill="#030303"/>
<path d="M28.6041 20.1388C28.9671 20.1388 29.2614 19.8445 29.2614 19.4815C29.2614 19.1185 28.9671 18.8242 28.6041 18.8242C28.2411 18.8242 27.9468 19.1185 27.9468 19.4815C27.9468 19.8445 28.2411 20.1388 28.6041 20.1388Z" fill="#030303"/>
<path d="M26.0115 20.1401C26.3733 20.1401 26.6665 19.8468 26.6665 19.4851C26.6665 19.1233 26.3733 18.8301 26.0115 18.8301C25.6497 18.8301 25.3564 19.1233 25.3564 19.4851C25.3564 19.8468 25.6497 20.1401 26.0115 20.1401Z" fill="#030303"/>
<path d="M29.9097 14.9487C30.2714 14.9487 30.5647 14.6554 30.5647 14.2937C30.5647 13.9319 30.2714 13.6387 29.9097 13.6387C29.5479 13.6387 29.2546 13.9319 29.2546 14.2937C29.2546 14.6554 29.5479 14.9487 29.9097 14.9487Z" fill="#030303"/>
<path d="M26.009 7.14984C26.3708 7.14984 26.6641 6.85659 26.6641 6.49484C26.6641 6.1331 26.3708 5.83984 26.009 5.83984C25.6473 5.83984 25.354 6.1331 25.354 6.49484C25.354 6.85659 25.6473 7.14984 26.009 7.14984Z" fill="#030303"/>
<path d="M26.0068 9.74164C26.3686 9.74164 26.6619 9.44839 26.6619 9.08664C26.6619 8.72489 26.3686 8.43164 26.0068 8.43164C25.6451 8.43164 25.3518 8.72489 25.3518 9.08664C25.3518 9.44839 25.6451 9.74164 26.0068 9.74164Z" fill="#030303"/>
<path d="M31.2061 9.74945C31.5678 9.74945 31.8611 9.4562 31.8611 9.09445C31.8611 8.73271 31.5678 8.43945 31.2061 8.43945C30.8443 8.43945 30.551 8.73271 30.551 9.09445C30.551 9.4562 30.8443 9.74945 31.2061 9.74945Z" fill="#030303"/>
<path d="M24.7061 12.353C25.0678 12.353 25.3611 12.0597 25.3611 11.698C25.3611 11.3362 25.0678 11.043 24.7061 11.043C24.3443 11.043 24.051 11.3362 24.051 11.698C24.051 12.0597 24.3443 12.353 24.7061 12.353Z" fill="#030303"/>
<path d="M27.3101 17.5522C27.6718 17.5522 27.9651 17.2589 27.9651 16.8972C27.9651 16.5354 27.6718 16.2422 27.3101 16.2422C26.9483 16.2422 26.655 16.5354 26.655 16.8972C26.655 17.2589 26.9483 17.5522 27.3101 17.5522Z" fill="#030303"/>
<path d="M23.4097 20.144C23.7714 20.144 24.0647 19.8507 24.0647 19.489C24.0647 19.1272 23.7714 18.834 23.4097 18.834C23.0479 18.834 22.7546 19.1272 22.7546 19.489C22.7546 19.8507 23.0479 20.144 23.4097 20.144Z" fill="#030303"/>
<path d="M27.301 14.9467C27.6628 14.9467 27.9561 14.6535 27.9561 14.2917C27.9561 13.93 27.6628 13.6367 27.301 13.6367C26.9393 13.6367 26.646 13.93 26.646 14.2917C26.646 14.6535 26.9393 14.9467 27.301 14.9467Z" fill="#030303"/>
<path d="M28.6042 7.14722C28.9647 7.14722 29.2569 6.85499 29.2569 6.49451C29.2569 6.13403 28.9647 5.8418 28.6042 5.8418C28.2437 5.8418 27.9514 6.13403 27.9514 6.49451C27.9514 6.85499 28.2437 7.14722 28.6042 7.14722Z" fill="#030303"/>
<path d="M16.9006 12.3445C17.2611 12.3445 17.5533 12.0523 17.5533 11.6918C17.5533 11.3313 17.2611 11.0391 16.9006 11.0391C16.54 11.0391 16.2478 11.3313 16.2478 11.6918C16.2478 12.0523 16.54 12.3445 16.9006 12.3445Z" fill="#030303"/>
<path d="M29.9097 12.351C30.2714 12.351 30.5647 12.0578 30.5647 11.696C30.5647 11.3343 30.2714 11.041 29.9097 11.041C29.5479 11.041 29.2546 11.3343 29.2546 11.696C29.2546 12.0578 29.5479 12.351 29.9097 12.351Z" fill="#030303"/>
<path d="M32.5 12.351C32.8618 12.351 33.155 12.0578 33.155 11.696C33.155 11.3343 32.8618 11.041 32.5 11.041C32.1382 11.041 31.845 11.3343 31.845 11.696C31.845 12.0578 32.1382 12.351 32.5 12.351Z" fill="#030303"/>
<path d="M24.7106 14.9441C25.0711 14.9441 25.3634 14.6519 25.3634 14.2914C25.3634 13.9309 25.0711 13.6387 24.7106 13.6387C24.3501 13.6387 24.0579 13.9309 24.0579 14.2914C24.0579 14.6519 24.3501 14.9441 24.7106 14.9441Z" fill="#030303"/>
<path d="M29.9049 17.5457C30.2655 17.5457 30.5577 17.2534 30.5577 16.8929C30.5577 16.5325 30.2655 16.2402 29.9049 16.2402C29.5444 16.2402 29.2522 16.5325 29.2522 16.8929C29.2522 17.2534 29.5444 17.5457 29.9049 17.5457Z" fill="#030303"/>
<path d="M26.0092 22.7371C26.3697 22.7371 26.6619 22.4448 26.6619 22.0844C26.6619 21.7239 26.3697 21.4316 26.0092 21.4316C25.6487 21.4316 25.3564 21.7239 25.3564 22.0844C25.3564 22.4448 25.6487 22.7371 26.0092 22.7371Z" fill="#030303"/>
<path d="M18.1968 9.75006C18.5561 9.75006 18.8473 9.45886 18.8473 9.09964C18.8473 8.74042 18.5561 8.44922 18.1968 8.44922C17.8376 8.44922 17.5464 8.74042 17.5464 9.09964C17.5464 9.45886 17.8376 9.75006 18.1968 9.75006Z" fill="#030303"/>
<path d="M20.8123 9.75006C21.1716 9.75006 21.4628 9.45886 21.4628 9.09964C21.4628 8.74042 21.1716 8.44922 20.8123 8.44922C20.4531 8.44922 20.1619 8.74042 20.1619 9.09964C20.1619 9.45886 20.4531 9.75006 20.8123 9.75006Z" fill="#030303"/>
<path d="M23.4027 9.75006C23.7619 9.75006 24.0531 9.45886 24.0531 9.09964C24.0531 8.74042 23.7619 8.44922 23.4027 8.44922C23.0434 8.44922 22.7522 8.74042 22.7522 9.09964C22.7522 9.45886 23.0434 9.75006 23.4027 9.75006Z" fill="#030303"/>
<path d="M22.1087 12.3438C22.4679 12.3438 22.7592 12.0526 22.7592 11.6934C22.7592 11.3342 22.4679 11.043 22.1087 11.043C21.7495 11.043 21.4583 11.3342 21.4583 11.6934C21.4583 12.0526 21.7495 12.3438 22.1087 12.3438Z" fill="#030303"/>
<path d="M32.5001 14.9454C32.8593 14.9454 33.1505 14.6542 33.1505 14.295C33.1505 13.9357 32.8593 13.6445 32.5001 13.6445C32.1408 13.6445 31.8496 13.9357 31.8496 14.295C31.8496 14.6542 32.1408 14.9454 32.5001 14.9454Z" fill="#030303"/>
<path d="M23.4051 7.15045C23.7643 7.15045 24.0556 6.85925 24.0556 6.50003C24.0556 6.14081 23.7643 5.84961 23.4051 5.84961C23.0459 5.84961 22.7546 6.14081 22.7546 6.50003C22.7546 6.85925 23.0459 7.15045 23.4051 7.15045Z" fill="#030303"/>
<path d="M19.5045 17.5391C19.8637 17.5391 20.1549 17.2479 20.1549 16.8887C20.1549 16.5295 19.8637 16.2383 19.5045 16.2383C19.1452 16.2383 18.854 16.5295 18.854 16.8887C18.854 17.2479 19.1452 17.5391 19.5045 17.5391Z" fill="#030303"/>
<path d="M32.5 17.5404C32.8579 17.5404 33.1481 17.2502 33.1481 16.8923C33.1481 16.5343 32.8579 16.2441 32.5 16.2441C32.142 16.2441 31.8518 16.5343 31.8518 16.8923C31.8518 17.2502 32.142 17.5404 32.5 17.5404Z" fill="#030303"/>
<path d="M22.1111 14.9369C22.469 14.9369 22.7592 14.6467 22.7592 14.2888C22.7592 13.9308 22.469 13.6406 22.1111 13.6406C21.7531 13.6406 21.4629 13.9308 21.4629 14.2888C21.4629 14.6467 21.7531 14.9369 22.1111 14.9369Z" fill="#030303"/>
<path d="M24.7104 17.5463C25.0684 17.5463 25.3586 17.2561 25.3586 16.8981C25.3586 16.5402 25.0684 16.25 24.7104 16.25C24.3525 16.25 24.0623 16.5402 24.0623 16.8981C24.0623 17.2561 24.3525 17.5463 24.7104 17.5463Z" fill="#030303"/>
<path d="M16.905 14.9408C17.263 14.9408 17.5532 14.6506 17.5532 14.2927C17.5532 13.9347 17.263 13.6445 16.905 13.6445C16.547 13.6445 16.2568 13.9347 16.2568 14.2927C16.2568 14.6506 16.547 14.9408 16.905 14.9408Z" fill="#030303"/>
<path d="M16.905 17.5404C17.263 17.5404 17.5532 17.2502 17.5532 16.8923C17.5532 16.5343 17.263 16.2441 16.905 16.2441C16.547 16.2441 16.2568 16.5343 16.2568 16.8923C16.2568 17.2502 16.547 17.5404 16.905 17.5404Z" fill="#030303"/>
<path d="M23.4118 22.7435C23.7698 22.7435 24.06 22.4533 24.06 22.0954C24.06 21.7374 23.7698 21.4473 23.4118 21.4473C23.0539 21.4473 22.7637 21.7374 22.7637 22.0954C22.7637 22.4533 23.0539 22.7435 23.4118 22.7435Z" fill="#030303"/>
<path d="M31.2014 20.1478C31.5594 20.1478 31.8496 19.8576 31.8496 19.4997C31.8496 19.1417 31.5594 18.8516 31.2014 18.8516C30.8434 18.8516 30.5532 19.1417 30.5532 19.4997C30.5532 19.8576 30.8434 20.1478 31.2014 20.1478Z" fill="#030303"/>
<path d="M22.1064 17.5424C22.4644 17.5424 22.7546 17.2522 22.7546 16.8942C22.7546 16.5363 22.4644 16.2461 22.1064 16.2461C21.7484 16.2461 21.4583 16.5363 21.4583 16.8942C21.4583 17.2522 21.7484 17.5424 22.1064 17.5424Z" fill="#030303"/>
<path d="M20.8031 7.14324C21.1598 7.14324 21.449 6.85409 21.449 6.4974C21.449 6.14072 21.1598 5.85156 20.8031 5.85156C20.4464 5.85156 20.1572 6.14072 20.1572 6.4974C20.1572 6.85409 20.4464 7.14324 20.8031 7.14324Z" fill="#030303"/>
<path d="M19.5023 14.9421C19.859 14.9421 20.1482 14.6529 20.1482 14.2962C20.1482 13.9395 19.859 13.6504 19.5023 13.6504C19.1456 13.6504 18.8564 13.9395 18.8564 14.2962C18.8564 14.6529 19.1456 14.9421 19.5023 14.9421Z" fill="#030303"/>
<path d="M20.8055 22.7487C21.1623 22.7487 21.4514 22.4596 21.4514 22.1029C21.4514 21.7462 21.1623 21.457 20.8055 21.457C20.4488 21.457 20.1597 21.7462 20.1597 22.1029C20.1597 22.4596 20.4488 22.7487 20.8055 22.7487Z" fill="#030303"/>
<path d="M19.5045 12.3425C19.8612 12.3425 20.1504 12.0533 20.1504 11.6966C20.1504 11.3399 19.8612 11.0508 19.5045 11.0508C19.1478 11.0508 18.8586 11.3399 18.8586 11.6966C18.8586 12.0533 19.1478 12.3425 19.5045 12.3425Z" fill="#030303"/>
<path d="M18.1945 20.1374C18.5512 20.1374 18.8403 19.8482 18.8403 19.4915C18.8403 19.1349 18.5512 18.8457 18.1945 18.8457C17.8378 18.8457 17.5486 19.1349 17.5486 19.4915C17.5486 19.8482 17.8378 20.1374 18.1945 20.1374Z" fill="#030303"/>
<path d="M20.8124 20.138C21.1666 20.138 21.4537 19.8509 21.4537 19.4967C21.4537 19.1426 21.1666 18.8555 20.8124 18.8555C20.4583 18.8555 20.1711 19.1426 20.1711 19.4967C20.1711 19.8509 20.4583 20.138 20.8124 20.138Z" fill="#030303"/>
</g>
<defs>
<clipPath id="clip0_812_7883">
<rect width="39" height="39" fill="white"/>
</clipPath>
</defs>
</svg>
