<svg width="39" height="39" viewBox="0 0 39 39" fill="none" xmlns="http://www.w3.org/2000/svg">
<g clip-path="url(#clip0_812_7721)">
<path d="M4.38335 33.7973C5.00475 33.6596 5.41794 34.2246 5.12621 34.7864C5.06548 34.9035 3.74242 36.2266 3.6253 36.2873C2.97786 36.6246 2.37815 36.0194 2.71217 35.3742C2.81194 35.1811 4.20224 33.8375 4.38335 33.7973Z" fill="#040404"/>
<path d="M28.4145 0.0337083C29.2972 -0.0877532 30.1279 0.118298 30.8263 0.66379L38.3353 8.17272C39.1931 9.27021 39.2235 10.7624 38.4047 11.8914C35.8247 14.2295 33.4551 17.2585 30.8307 19.4979C28.1856 21.7547 24.2414 20.4121 21.0487 20.8372L14.2664 27.6174C14.1753 27.8202 14.3705 27.9818 14.3932 28.2204C14.454 28.8407 14.365 29.4133 13.9454 29.8872C11.1127 32.3457 8.55767 35.7673 5.70658 38.1271C2.39458 40.8676 -1.90321 36.5839 0.914267 33.2534C3.32832 30.3991 6.65658 27.8484 9.1563 25.0157C9.63239 24.6839 10.1182 24.5505 10.6995 24.6091C10.9381 24.6329 11.1951 24.8184 11.386 24.7338L18.1314 17.9981C18.4177 15.7803 18.0121 13.3142 18.2095 11.0954C18.3017 10.0586 18.8374 8.95246 19.5055 8.16946C21.7124 5.5819 24.698 3.27196 26.9754 0.702831C27.3603 0.392671 27.9254 0.10203 28.4177 0.0347928L28.4145 0.0337083ZM28.8244 1.32966C28.473 1.34918 28.0609 1.54222 27.7822 1.75586C25.5807 4.24474 22.6938 6.47659 20.5574 8.98065C19.949 9.69424 19.5846 10.4718 19.5055 11.4196C19.3157 13.6808 19.6747 16.161 19.4675 18.4449L12.3956 25.5851C12.3414 25.6458 12.3631 25.6838 12.3956 25.7456C12.4238 25.7998 13.1992 26.5752 13.2535 26.6034C13.3489 26.6522 13.3879 26.6425 13.4584 26.5633L20.4989 19.5576C22.7925 19.3038 25.2966 19.6866 27.5794 19.4947C28.5262 19.4155 29.3048 19.0511 30.0184 18.4427C32.5908 16.2477 34.9647 13.2665 37.4471 10.9349C37.844 10.2213 37.7334 9.56627 37.2421 8.9427L30.0596 1.75694C29.7278 1.49775 29.2506 1.30689 28.8244 1.33074V1.32966ZM10.2288 25.9235C10.1085 25.9495 10.012 26.0265 9.92519 26.1089L1.77534 34.2761C0.300453 36.2607 2.73944 38.6997 4.72404 37.2248L13.0008 28.9416C13.1645 28.6281 13.1244 28.4188 12.9303 28.1401C12.7633 27.8994 11.04 26.174 10.8156 26.033C10.616 25.9072 10.4653 25.8703 10.2288 25.9235Z" fill="#040404"/>
<path d="M28.4121 4.57438C29.0899 4.42472 29.5042 5.11879 29.0845 5.65452L22.5494 12.1896C21.9898 12.6299 21.2654 12.1484 21.4899 11.4543L28.1085 4.75983C28.1952 4.67741 28.2928 4.60041 28.4121 4.57438Z" fill="#040404"/>
<path d="M31.0095 7.17204C31.6873 7.02238 32.1016 7.71645 31.6819 8.25218L25.1468 14.7872C24.5873 15.2275 23.8628 14.746 24.0873 14.052L30.7059 7.35748C30.7926 7.27506 30.8902 7.19807 31.0095 7.17204Z" fill="#040404"/>
<path d="M33.6067 9.76969C34.2845 9.62004 34.6988 10.3141 34.2791 10.8498L27.744 17.3849C27.1844 17.8252 26.46 17.3437 26.6845 16.6496L33.303 9.95514C33.3898 9.87272 33.4874 9.79572 33.6067 9.76969Z" fill="#040404"/>
</g>
<defs>
<clipPath id="clip0_812_7721">
<rect width="39" height="39" fill="white"/>
</clipPath>
</defs>
</svg>
