<svg width="48" height="48" viewBox="0 0 48 48" fill="none" xmlns="http://www.w3.org/2000/svg">
<g clip-path="url(#clip0_812_7464)">
<path d="M11.3025 27.6051C12.0149 27.4509 12.3829 27.8541 12.4542 28.5181C12.8697 33.024 12.1336 38.1584 12.4542 42.7236C12.3236 43.8383 10.792 43.9094 10.6733 42.6169C10.2578 38.111 10.9939 32.9766 10.6733 28.4114C10.6733 28.0438 10.9464 27.6881 11.3144 27.6051H11.3025Z" fill="black"/>
<path d="M11.3025 23.1704C12.7628 22.8502 12.7153 25.2099 12.1098 25.6368C10.5664 26.7395 10.0796 23.4312 11.3025 23.1704Z" fill="black"/>
<path d="M38.2172 5.39534V10.2807C39.2738 9.27281 40.1999 8.27676 41.7433 8.08704C42.3488 8.01589 44.1534 7.95661 44.6876 8.08704C45.5068 8.26491 45.5424 9.54554 44.7707 9.79455C44.1059 9.99613 42.8355 9.75898 42.052 9.85384C40.4611 10.0436 39.3688 11.9408 38.2053 12.8894V19.6009H40.2592C40.3898 19.6009 40.8647 20.0752 40.8647 20.2056V24.4744C41.7314 23.7036 42.4081 22.8499 43.5835 22.4704C44.3315 22.2333 46.5991 22.1147 47.347 22.2807C48.2019 22.4704 48.2019 23.8222 47.347 24.0119C46.1005 24.2847 44.8657 23.6681 43.5716 24.4625C43.2867 24.6404 40.9478 26.9289 40.8885 27.1187L40.8647 43.9566C40.6392 46.1621 38.9058 47.8222 36.7094 48.0119H11.3856C9.42669 47.9171 7.75269 46.589 7.25405 44.7036C6.88601 38.8459 7.27779 32.9171 7.05222 27.0357C6.10243 26.1108 4.87958 24.2372 3.49051 24.0475C2.70693 23.9408 0.688628 24.2847 0.225605 23.7629C-0.2018 23.2886 -0.0118421 22.4349 0.641138 22.2807C1.15165 22.1621 3.14621 22.1977 3.71608 22.2807C5.1289 22.4467 6.16179 23.4428 7.11158 24.3795V20.2175C7.11158 20.087 7.58648 19.6127 7.71707 19.6127H9.77099V12.9013C8.58376 11.8696 7.66958 10.0198 5.93622 9.85384C5.14077 9.77083 4.02476 9.99613 3.30055 9.83012C2.44574 9.6404 2.44574 8.28862 3.30055 8.0989C3.84668 7.98032 5.73439 8.02775 6.35175 8.0989C7.84767 8.27676 8.79746 9.2491 9.77099 10.2926V5.4072C9.11801 5.41906 8.10886 5.54949 7.99014 4.67202C7.90703 3.99613 8.29882 3.67597 8.92805 3.62854C11.0413 3.43882 13.4277 3.80641 15.5766 3.61668C17.025 2.56135 18.236 0.22538 20.1474 0.0830878C22.7712 -0.118493 25.68 0.201665 28.3275 0.142376C30.0253 0.770835 31.0107 2.53763 32.3997 3.61668C34.5486 3.80641 36.935 3.43882 39.0483 3.62854C39.6775 3.68783 40.0693 3.99613 39.9862 4.67202C39.8437 5.77479 38.2053 5.30048 38.2053 5.4072L38.2172 5.39534ZM29.7759 3.61668C29.2179 3.01194 28.6362 2.27676 27.9239 1.86174C25.5019 1.99218 22.7712 1.61273 20.3849 1.83803C19.5182 1.92103 18.8296 3.04751 18.2241 3.61668H29.7759ZM11.5637 5.39534V11.6088H36.4482V5.39534H11.5637ZM11.5637 13.3874V19.6009H36.4482V13.3874H11.5637ZM39.1076 21.3677H8.89244V43.9447C8.89244 44.9408 10.3765 46.2451 11.3975 46.2214H36.4007C37.493 46.3637 39.1195 45.0119 39.1195 43.9447V21.3677H39.1076Z" fill="black"/>
<path d="M13.9739 7.19772C15.4342 6.87757 15.3867 9.23725 14.7812 9.66413C13.2378 10.7669 12.751 7.45859 13.9739 7.19772Z" fill="black"/>
<path d="M13.3327 16.0553C13.831 16.0553 14.235 15.6518 14.235 15.1541C14.235 14.6564 13.831 14.2529 13.3327 14.2529C12.8344 14.2529 12.4304 14.6564 12.4304 15.1541C12.4304 15.6518 12.8344 16.0553 13.3327 16.0553Z" fill="black"/>
<path d="M16.0039 16.0553C16.5022 16.0553 16.9062 15.6518 16.9062 15.1541C16.9062 14.6564 16.5022 14.2529 16.0039 14.2529C15.5055 14.2529 15.1016 14.6564 15.1016 15.1541C15.1016 15.6518 15.5055 16.0553 16.0039 16.0553Z" fill="black"/>
<path d="M18.6752 16.0553C19.1736 16.0553 19.5775 15.6518 19.5775 15.1541C19.5775 14.6564 19.1736 14.2529 18.6752 14.2529C18.1769 14.2529 17.7729 14.6564 17.7729 15.1541C17.7729 15.6518 18.1769 16.0553 18.6752 16.0553Z" fill="black"/>
<path d="M21.3347 16.0553C21.833 16.0553 22.237 15.6518 22.237 15.1541C22.237 14.6564 21.833 14.2529 21.3347 14.2529C20.8363 14.2529 20.4324 14.6564 20.4324 15.1541C20.4324 15.6518 20.8363 16.0553 21.3347 16.0553Z" fill="black"/>
<path d="M24.0058 16.0553C24.5041 16.0553 24.9081 15.6518 24.9081 15.1541C24.9081 14.6564 24.5041 14.2529 24.0058 14.2529C23.5075 14.2529 23.1035 14.6564 23.1035 15.1541C23.1035 15.6518 23.5075 16.0553 24.0058 16.0553Z" fill="black"/>
<path d="M26.6652 16.0553C27.1636 16.0553 27.5675 15.6518 27.5675 15.1541C27.5675 14.6564 27.1636 14.2529 26.6652 14.2529C26.1669 14.2529 25.7629 14.6564 25.7629 15.1541C25.7629 15.6518 26.1669 16.0553 26.6652 16.0553Z" fill="black"/>
<path d="M29.3366 16.0553C29.835 16.0553 30.2389 15.6518 30.2389 15.1541C30.2389 14.6564 29.835 14.2529 29.3366 14.2529C28.8383 14.2529 28.4343 14.6564 28.4343 15.1541C28.4343 15.6518 28.8383 16.0553 29.3366 16.0553Z" fill="black"/>
<path d="M31.9961 16.0553C32.4944 16.0553 32.8983 15.6518 32.8983 15.1541C32.8983 14.6564 32.4944 14.2529 31.9961 14.2529C31.4977 14.2529 31.0938 14.6564 31.0938 15.1541C31.0938 15.6518 31.4977 16.0553 31.9961 16.0553Z" fill="black"/>
<path d="M34.6674 16.0553C35.1658 16.0553 35.5697 15.6518 35.5697 15.1541C35.5697 14.6564 35.1658 14.2529 34.6674 14.2529C34.1691 14.2529 33.7651 14.6564 33.7651 15.1541C33.7651 15.6518 34.1691 16.0553 34.6674 16.0553Z" fill="black"/>
<path d="M13.3327 18.7233C13.831 18.7233 14.235 18.3198 14.235 17.8221C14.235 17.3244 13.831 16.9209 13.3327 16.9209C12.8344 16.9209 12.4304 17.3244 12.4304 17.8221C12.4304 18.3198 12.8344 18.7233 13.3327 18.7233Z" fill="black"/>
<path d="M16.0039 18.7233C16.5022 18.7233 16.9062 18.3198 16.9062 17.8221C16.9062 17.3244 16.5022 16.9209 16.0039 16.9209C15.5055 16.9209 15.1016 17.3244 15.1016 17.8221C15.1016 18.3198 15.5055 18.7233 16.0039 18.7233Z" fill="black"/>
<path d="M18.6752 18.7233C19.1736 18.7233 19.5775 18.3198 19.5775 17.8221C19.5775 17.3244 19.1736 16.9209 18.6752 16.9209C18.1769 16.9209 17.7729 17.3244 17.7729 17.8221C17.7729 18.3198 18.1769 18.7233 18.6752 18.7233Z" fill="black"/>
<path d="M21.3347 18.7233C21.833 18.7233 22.237 18.3198 22.237 17.8221C22.237 17.3244 21.833 16.9209 21.3347 16.9209C20.8363 16.9209 20.4324 17.3244 20.4324 17.8221C20.4324 18.3198 20.8363 18.7233 21.3347 18.7233Z" fill="black"/>
<path d="M24.0058 18.7233C24.5041 18.7233 24.9081 18.3198 24.9081 17.8221C24.9081 17.3244 24.5041 16.9209 24.0058 16.9209C23.5075 16.9209 23.1035 17.3244 23.1035 17.8221C23.1035 18.3198 23.5075 18.7233 24.0058 18.7233Z" fill="black"/>
<path d="M26.6652 18.7233C27.1636 18.7233 27.5675 18.3198 27.5675 17.8221C27.5675 17.3244 27.1636 16.9209 26.6652 16.9209C26.1669 16.9209 25.7629 17.3244 25.7629 17.8221C25.7629 18.3198 26.1669 18.7233 26.6652 18.7233Z" fill="black"/>
<path d="M29.3366 18.7233C29.835 18.7233 30.2389 18.3198 30.2389 17.8221C30.2389 17.3244 29.835 16.9209 29.3366 16.9209C28.8383 16.9209 28.4343 17.3244 28.4343 17.8221C28.4343 18.3198 28.8383 18.7233 29.3366 18.7233Z" fill="black"/>
<path d="M31.9961 18.7233C32.4944 18.7233 32.8983 18.3198 32.8983 17.8221C32.8983 17.3244 32.4944 16.9209 31.9961 16.9209C31.4977 16.9209 31.0938 17.3244 31.0938 17.8221C31.0938 18.3198 31.4977 18.7233 31.9961 18.7233Z" fill="black"/>
<path d="M34.6674 18.7233C35.1658 18.7233 35.5697 18.3198 35.5697 17.8221C35.5697 17.3244 35.1658 16.9209 34.6674 16.9209C34.1691 16.9209 33.7651 17.3244 33.7651 17.8221C33.7651 18.3198 34.1691 18.7233 34.6674 18.7233Z" fill="black"/>
</g>
<defs>
<clipPath id="clip0_812_7464">
<rect width="48" height="48" fill="white"/>
</clipPath>
</defs>
</svg>
