<svg width="48" height="42" viewBox="0 0 48 42" fill="none" xmlns="http://www.w3.org/2000/svg">
<g clip-path="url(#clip0_812_7659)">
<path d="M0 16.9974C0.442143 14.8504 1.51496 13.0035 3.3436 11.8922C5.17223 10.7809 7.16772 10.8564 9.27332 10.888V8.47412C9.27332 8.41794 8.66266 7.84211 8.53919 7.66831C6.56874 4.89978 8.03365 0.402004 11.4707 0.140424C17.3136 -0.303735 23.6605 0.486271 29.5568 0.140424C32.8487 0.55825 34.2852 4.89978 32.4099 7.5858C32.2631 7.79647 31.5673 8.40916 31.5673 8.47236V10.8863C34.4154 10.8792 37.1233 10.551 39.4358 12.6102C40.3685 13.4406 41.7766 15.6526 41.7766 16.9483V18.3773C43.325 18.5932 46.44 17.7751 47.4895 19.2147C48.0884 20.0363 48.1785 22.0921 47.6613 22.9435C47.4661 23.2666 46.6702 23.9951 46.3182 23.9951H41.9151C41.9051 23.9951 41.775 24.1321 41.775 24.1426V37.743C41.775 37.8413 41.4479 38.1871 41.3528 38.1871H38.9636V41.0944C38.9636 41.377 38.4914 41.521 38.2645 41.542C37.6655 41.5965 35.6951 41.6421 35.1712 41.5368C35.0494 41.5122 34.7474 41.2594 34.7474 41.1944V38.3364C34.7474 38.3258 34.6173 38.1889 34.6073 38.1889H7.11933V40.8995C7.11933 41.0926 6.82067 41.4946 6.60211 41.5368C6.08655 41.6368 4.08773 41.6035 3.50711 41.5456C3.1851 41.5122 2.80969 41.2559 2.80969 40.8995V38.1889C1.90205 38.0502 0.67239 38.5453 0 37.7939V16.9974ZM30.2542 10.8863V7.88073C30.2542 7.649 30.8832 7.24171 31.0518 7.04508C32.7386 5.08587 31.7208 1.67655 29.0863 1.5203C23.4869 1.87317 17.3854 1.0621 11.8444 1.5203C10.9485 1.59404 10.0925 1.98553 9.5703 2.77378C8.81616 3.90963 8.87789 5.90572 9.73882 6.96784C9.94904 7.22766 10.6782 7.67182 10.6782 8.07736V10.8863H30.2542ZM40.4652 36.8073V17.4398C40.4652 15.0821 37.8491 12.4628 35.63 12.3768L6.32014 12.361C3.66061 12.5348 1.31141 15.1365 1.31141 17.9331V36.6598C1.31141 36.6703 1.44155 36.8073 1.45156 36.8073H40.4636H40.4652ZM46.1313 19.8555H41.775V22.4678C41.775 22.4783 41.9051 22.6152 41.9151 22.6152H45.9428C46.9005 22.6152 46.8621 20.0293 46.1297 19.8555H46.1313ZM5.71448 38.1871H4.21621V40.1587H5.71448V38.1871ZM37.6539 38.1871H36.0621V40.1587H37.6539V38.1871Z" fill="#040404"/>
<path d="M3.39702 17.3186C3.27522 17.4555 3.19847 17.9243 3.18179 18.1279C3.49546 23.2314 2.77802 28.8632 3.18179 33.9052C3.29858 35.3501 4.47818 35.2219 4.59164 34.2002V17.8347C4.61166 17.1904 3.77743 16.8902 3.39535 17.3204L3.39702 17.3186Z" fill="#FDFDFD"/>
<path d="M3.39701 17.319C3.77909 16.8889 4.61332 17.1909 4.5933 17.8334V34.1988C4.47818 35.2223 3.29857 35.3487 3.18345 33.9039C2.77801 28.8619 3.49712 23.23 3.18345 18.1266C3.20013 17.9229 3.27688 17.4559 3.39868 17.3173L3.39701 17.319Z" fill="#040404"/>
</g>
<defs>
<clipPath id="clip0_812_7659">
<rect width="48" height="41.6" fill="white"/>
</clipPath>
</defs>
</svg>
