<svg width="53" height="53" viewBox="0 0 53 53" fill="none" xmlns="http://www.w3.org/2000/svg">
<path d="M9.01071 41.1851C9.968 41.5101 10.6999 42.3012 11.3069 43.0809C11.4895 43.3156 11.5651 43.8523 11.9665 43.7358L40.0832 27.6746C41.0898 26.8785 39.8858 25.9495 39.593 25.1124C39.2838 24.2227 39.3545 23.4004 39.8316 22.5879L46.8286 15.5364C47.3205 15.3525 47.6297 15.4838 48.0113 15.7678C49.0442 16.5327 52.0296 19.6891 52.5214 20.8201C53.8587 23.8944 52.2105 26.6504 49.8387 28.5626C37.5535 36.1311 24.7271 42.8494 12.2839 50.1701C10.7246 51.0877 9.00247 52.6437 7.16684 52.8473C2.88206 53.3249 -0.356613 50.111 0.0315673 45.845C0.209209 43.8852 2.4281 41.1621 3.4775 39.3779C10.0766 28.1555 16.0078 16.298 23.0263 5.34321C24.2468 3.43753 25.3011 1.42188 27.4871 0.47643C29.2109 -0.26877 31.2389 -0.130892 32.8492 0.827692C33.5631 1.25282 36.7771 4.34523 37.259 5.03791C37.4992 5.38261 37.5798 5.62389 37.4433 6.04738L30.8212 12.7657C29.9149 13.5568 28.8079 13.7341 27.6878 13.2926C26.7469 12.9232 26.0956 11.8219 25.2057 12.9397L9.01565 41.1834L9.01071 41.1851ZM35.0105 5.80445C35.0615 5.58286 34.8855 5.52541 34.7753 5.39245C34.0401 4.50117 32.0021 2.47731 30.9577 2.12605C28.5217 1.31027 26.4936 3.50483 25.2254 5.29561C18.0573 17.3649 11.4566 29.7756 4.3065 41.8531C3.19131 43.7358 1.54317 45.1737 2.07116 47.5816C2.35243 48.8636 3.35907 50.0142 4.56144 50.5214C7.33462 51.6901 8.82649 49.9042 10.9878 48.6354C23.6283 41.213 36.6768 34.3995 49.0804 26.6192C49.4719 26.2187 49.9292 25.7607 50.24 25.2995C52.5247 21.9215 49.3354 19.9895 47.1889 17.8311C47.1889 18.8816 49.5574 23.2576 47.0145 22.7832C46.1872 22.6289 45.8681 20.3276 45.651 19.6005C45.5342 19.4987 44.6739 20.3326 44.5769 20.4819C44.1328 21.1648 46.8468 25.3733 44.6377 25.4948C44.3581 25.5096 44.039 25.3044 43.8236 25.1386L42.8153 22.253C42.4403 22.7159 41.4254 23.402 41.3859 24.0225C41.3464 24.6429 42.2955 25.4997 42.432 26.2909C42.6787 27.7271 41.9994 28.9615 40.7247 29.6016L11.5964 46.1749C10.1901 46.5557 10.195 44.7535 9.37421 43.8343C8.29027 42.6196 5.77203 42.6968 6.98756 40.7501L23.6711 11.6397C24.4557 10.6433 25.5182 10.3134 26.7749 10.5481C27.5134 10.686 28.4181 11.7447 29.1122 11.533C29.298 11.4772 30.7093 10.1345 30.6435 10.0491C29.9346 9.72414 27.747 9.51568 27.5052 8.7557C27.2634 7.99573 27.7733 7.36215 28.5464 7.35886L32.2407 8.47502L33.3608 7.39333C32.693 7.04207 30.4165 6.8172 30.1961 6.072C30.0678 5.63867 30.1961 4.99031 30.6452 4.80155C31.5202 4.43551 34.0072 5.67806 35.0155 5.79952L35.0105 5.80445Z" fill="black"/>
<path d="M6.0303 49.676C4.27691 49.676 2.85083 48.2529 2.85083 46.5032C2.85083 44.7534 4.27691 43.3303 6.0303 43.3303C7.78369 43.3303 9.20975 44.7534 9.20975 46.5032C9.20975 48.2529 7.78369 49.676 6.0303 49.676ZM6.0303 44.8732C5.12893 44.8732 4.39533 45.6053 4.39533 46.5048C4.39533 47.4043 5.12893 48.1364 6.0303 48.1364C6.93167 48.1364 7.66525 47.4043 7.66525 46.5048C7.66525 45.6053 6.93167 44.8732 6.0303 44.8732Z" fill="black"/>
</svg>
