<svg width="317" height="320" viewBox="0 0 317 320" fill="none" xmlns="http://www.w3.org/2000/svg">
<path d="M97.9054 314.968C65.8654 326.288 26.9654 316.248 10.1354 285.158C-0.594567 265.328 -2.98457 241.778 3.82543 220.338C7.63543 208.358 14.8454 198.978 25.1054 192.198C34.2654 186.148 43.0754 180.908 52.7754 175.548C79.4354 160.818 106.285 147.538 133.975 134.868C141.635 131.368 148.565 128.528 156.465 125.588L275.645 6.71797C285.165 -2.78203 300.295 -1.98203 309.165 7.69797C319.015 16.918 319.215 31.848 309.625 41.418L190.455 160.338C179.135 189.188 167.205 217.218 153.595 244.828C145.505 261.248 137.245 276.648 127.065 291.688C120.035 302.708 110.375 310.568 97.9154 314.978L97.9054 314.968ZM185.605 148.508L301.615 32.708C306.565 27.478 305.675 20.758 300.905 15.928C296.135 11.098 289.095 9.93797 283.965 15.058L167.695 131.058L185.595 148.498L185.605 148.508ZM38.3854 242.528C32.3154 254.668 28.0354 267.578 28.4154 281.658L165.465 144.348C136.685 160.398 111.825 179.338 85.8854 197.258C74.5254 206.128 63.6254 214.198 53.1054 223.828C47.1654 229.268 42.1754 234.958 38.3954 242.528H38.3854ZM27.8654 237.178C32.4454 228.278 38.2354 221.168 45.5554 214.788C57.8654 203.448 70.5954 193.538 84.3454 183.908L136.195 147.558C109.385 158.928 84.6354 171.768 59.5054 185.158C49.4154 190.528 40.2854 196.098 30.9554 202.468C23.5154 207.548 18.2854 214.358 15.3454 223.068C10.2554 238.178 10.4854 254.818 16.5654 270.238C19.4654 258.158 21.9754 247.598 27.8554 237.188L27.8654 237.178ZM91.5654 268.008C101.255 257.978 108.565 247.938 117.005 237.298C135.705 210.418 155.465 184.678 172.305 155.168L34.2654 292.448C56.3254 291.468 75.9854 281.768 91.5654 268.008ZM116.495 286.308C124.135 275.148 130.425 263.928 136.835 251.908C146.605 231.788 156.875 212.478 164.685 190.558L121.695 250.348C101.005 279.128 82.5554 294.508 47.6854 303.148C72.4754 312.368 101.575 308.118 116.495 286.308Z" fill="black"/>
</svg>
