<svg width="51" height="34" viewBox="0 0 51 34" fill="none" xmlns="http://www.w3.org/2000/svg">
<g clip-path="url(#clip0_812_7457)">
<path d="M50.9807 13.7826C50.9383 14.4859 51.0397 15.2577 50.9807 15.9511C50.061 26.8571 37.3152 32.8798 28.0617 33.5119C18.1999 34.1857 4.55554 30.0375 0.895674 19.3863C-0.592327 15.0568 -0.535731 12.3125 3.4873 9.94312C11.0051 5.518 25.8616 5.23622 34.325 6.24327C35.3697 6.36823 36.4214 6.57895 37.4566 6.75782V4.69227C37.4566 4.65552 37.0086 4.51095 36.827 4.36394C35.2871 3.11922 35.721 0.676337 37.558 0.0980822C38.0485 -0.0562825 38.4777 0.00252309 38.9847 0.0564282C40.7015 0.235295 43.5596 0.695939 45.2174 1.12228C47.0096 1.58292 47.618 4.01111 46.255 5.31218C46.0663 5.49105 45.4791 5.73362 45.4272 5.89779C45.3801 6.04725 45.3777 8.72291 45.4249 8.86257C46.1771 9.30851 47.0143 9.59519 47.7642 10.046C49.1956 10.9061 50.5044 12.0773 50.9784 13.7826H50.9807ZM42.5291 2.31799L38.2065 1.58782C37.3977 1.63928 37.1406 2.9281 37.9754 3.17558L42.2791 3.9719C42.2885 3.401 42.3333 2.8595 42.5291 2.31799ZM45.432 3.50636C45.432 3.04571 45.0735 2.67328 44.6302 2.67328C44.1868 2.67328 43.8284 3.04571 43.8284 3.50636C43.8284 3.967 44.1868 4.33944 44.6302 4.33944C45.0735 4.33944 45.432 3.967 45.432 3.50636ZM43.8213 5.82918L39.0484 5.00345V7.069L43.8213 8.30882V5.82918ZM13.4953 19.0531C15.3465 17.9946 17.4476 17.4482 19.5275 17.1076C24.3547 16.3162 34.4028 16.2623 38.3009 19.6755C38.5013 19.8519 38.7135 20.2807 38.8928 20.288C41.5834 19.6289 44.451 18.9526 46.8728 17.5192C52.3862 14.258 47.9104 11.5652 44.1986 10.1391C36.761 7.27727 26.1846 6.93669 18.3201 7.68891C14.3749 8.06624 4.59092 9.69075 2.12192 13.0696C0.31085 15.5444 3.78914 17.458 5.64266 18.2274V15.5419C5.64266 15.5052 5.18753 15.3802 4.99652 15.2307C3.66416 14.1918 3.77971 11.9793 5.25592 11.1633C5.90441 10.8056 6.36661 10.835 7.0717 10.9061C8.84033 11.0898 11.5923 11.5456 13.3256 11.9499C15.2074 12.3885 15.804 14.8926 14.3584 16.228C14.1391 16.4289 13.4977 16.6274 13.4977 16.6764V19.0531H13.4953ZM10.7127 13.1652L6.3902 12.435C5.52947 12.4718 5.34553 13.7214 6.13787 14.0448L10.4627 14.8191C10.4227 14.2335 10.4981 13.7165 10.7127 13.1652ZM13.6062 14.3584C13.6062 13.9003 13.2477 13.5278 12.8068 13.5278C12.3658 13.5278 12.0073 13.9003 12.0073 14.3584C12.0073 14.8166 12.3658 15.1891 12.8068 15.1891C13.2477 15.1891 13.6062 14.8166 13.6062 14.3584ZM12.005 16.6764L7.13302 15.8506V18.7958C7.13302 18.9649 8.55735 19.3618 8.8026 19.4378C9.84491 19.7588 10.9344 20.0332 12.005 20.19V16.6764ZM48.8914 18.122C44.8542 20.7879 39.9233 21.9174 35.2093 22.552C26.4157 23.733 11.6135 23.4807 3.68774 19.0702C3.42834 18.9257 2.20917 18.0093 2.06532 18.1245C2.84588 20.1434 3.80801 22.0595 5.19696 23.7036C10.8424 30.3977 21.2113 32.7156 29.446 31.7478C37.235 30.8314 46.4247 26.4528 48.8961 18.1245L48.8914 18.122ZM36.86 20.5012C36.8223 20.4546 35.9804 20.0332 35.8342 19.9646C31.099 17.7398 19.2328 17.5584 14.6862 20.239C14.5565 20.315 14.1509 20.4816 14.191 20.6531C20.9118 21.6895 27.8542 21.8586 34.6103 21.0035C35.3414 20.9104 36.0653 20.7094 36.8105 20.707C36.8954 20.7193 36.8695 20.5134 36.86 20.5012Z" fill="black"/>
</g>
<defs>
<clipPath id="clip0_812_7457">
<rect width="51" height="33.5854" fill="white"/>
</clipPath>
</defs>
</svg>
