<svg width="47" height="47" viewBox="0 0 47 47" fill="none" xmlns="http://www.w3.org/2000/svg">
<path d="M40.4342 0.0720811C41.9466 0.224291 43.2623 0.868693 44.4227 1.87868C45.8325 3.10632 46.5581 4.7223 46.9187 6.52748C46.933 6.59719 46.9273 6.66831 46.933 6.73944C46.9928 7.49195 47.0114 8.4109 46.9387 9.19187C46.3414 15.6387 39.1897 22.3502 32.7009 22.5394C30.3745 22.6062 29.3054 21.4853 27.3154 23.4256C27.2997 23.4413 27.2841 23.4569 27.2698 23.4726L19.7333 31.8868C19.662 31.9664 19.5779 32.0361 19.4795 32.0817C18.7639 32.4131 18.1054 31.7559 18.5487 31.0205C18.5772 30.9721 18.6157 30.928 18.6542 30.8882C21.2044 28.2636 23.4695 25.3489 26.0068 22.7186C26.6882 22.0116 27.2698 21.4369 28.2263 21.0955C29.9483 20.481 31.0317 21.1425 32.6966 21.0785C38.0821 20.8736 43.5531 15.9588 45.0556 10.9302C47.0441 4.27705 42.4997 -0.0744385 35.8954 1.97257C30.9647 3.50036 26.1708 8.82343 25.87 14.0853C25.7688 15.8379 26.4901 16.9916 25.8215 18.7896C25.4637 19.7512 24.8465 20.343 24.1295 21.0315C17.2886 27.5893 9.71495 33.635 2.78852 40.1303C1.96459 40.9027 0.972447 41.6268 1.67236 42.8928C1.84484 43.2044 3.41145 44.7563 3.74929 45.0238C5.07785 46.075 5.89892 45.0394 6.7756 44.1091C10.0699 40.6097 16.0883 33.6379 19.4211 30.1072C19.4581 30.0688 19.4952 30.0318 19.5394 30.0019C20.1253 29.6079 20.8095 30.1143 20.6613 30.7246C20.6313 30.8498 20.5615 30.9607 20.4745 31.056L6.83405 46.1376C6.79271 46.1831 6.74709 46.2258 6.69577 46.2614C5.48268 47.1291 3.99733 47.075 2.83271 46.1191C1.10359 44.6994 -1.06314 42.54 0.590421 40.2583C0.626058 40.2099 0.667395 40.1644 0.713011 40.1232L23.8045 19.333C23.8358 19.3046 23.8657 19.2747 23.8928 19.242C25.2912 17.5734 24.3447 16.1494 24.4003 14.2632C24.5885 7.80633 31.284 0.685188 37.7286 0.0592784C37.76 0.0564334 38.8946 -0.0815512 40.4285 0.0735037L40.4342 0.0720811Z" fill="black"/>
<path d="M42.5696 5.56316C43.214 4.91733 43.7271 5.61579 43.9196 6.22178C45.2595 10.4438 41.4392 15.5023 37.9582 17.5479C30.644 21.8482 25.1089 16.3416 29.4095 9.01704C31.3981 5.63001 36.1336 2.07371 40.2589 2.92722C40.9047 3.06094 41.6003 3.24729 41.4663 4.14206C41.3893 4.65985 40.0822 4.31134 39.4749 4.2587C34.768 3.84759 28.932 9.75959 29.3582 14.4454C29.5079 16.0927 30.7039 17.3744 32.3589 17.5749C37.1328 18.1525 43.214 12.1779 42.7165 7.42097C42.6594 6.87045 42.1477 5.98564 42.5696 5.56173V5.56316Z" fill="black"/>
<path d="M3.92039 42.9826C3.54833 42.6113 3.76074 42.166 4.03015 41.8175C4.20549 41.5913 5.60389 40.1887 5.7835 40.0949C6.57892 39.6809 7.2774 40.486 6.6901 41.2727C6.47628 41.5586 5.21187 42.8161 4.93248 42.9911C4.61032 43.1945 4.21831 43.2785 3.92039 42.9811V42.9826Z" fill="black"/>
<path d="M42.6364 7.05311C42.5751 6.76861 42.243 5.67611 41.3991 4.99188C40.7704 4.48119 40.1133 4.34179 39.804 4.29627C40.1717 3.90649 40.5381 3.51672 40.9044 3.12695C41.285 3.2564 41.965 3.54375 42.6093 4.16966C43.1895 4.73298 43.6456 5.55377 43.7939 5.9151C43.4261 6.30487 43.0027 6.66476 42.635 7.05454L42.6364 7.05311Z" fill="black"/>
</svg>
